<svg width="16" height="18" viewBox="0 0 16 18" fill="none" xmlns="http://www.w3.org/2000/svg">
<path d="M15.5483 14.0874C15.0394 13.6226 14.5938 13.0897 14.2236 12.5032C13.8191 11.6937 13.5768 10.8094 13.5111 9.90252V7.23157C13.5146 5.80721 13.0103 4.43057 12.0928 3.3603C11.1754 2.29003 9.90805 1.59979 8.52889 1.41928V0.721805C8.52889 0.530371 8.45466 0.346777 8.32252 0.211412C8.19039 0.0760472 8.01117 0 7.82431 0C7.63744 0 7.45823 0.0760472 7.32609 0.211412C7.19396 0.346777 7.11972 0.530371 7.11972 0.721805V1.43009C5.75291 1.62362 4.50087 2.31803 3.5955 3.3847C2.69013 4.45138 2.19277 5.81805 2.19556 7.23157V9.90252C2.12988 10.8094 1.88762 11.6937 1.48306 12.5032C1.11935 13.0884 0.680936 13.6212 0.179445 14.0874C0.123147 14.138 0.0780274 14.2004 0.047087 14.2703C0.0161466 14.3402 9.48925e-05 14.4161 0 14.4929V15.2282C0 15.3716 0.055605 15.5091 0.154583 15.6105C0.25356 15.7119 0.387803 15.7689 0.527778 15.7689H15.2C15.34 15.7689 15.4742 15.7119 15.5732 15.6105C15.6722 15.5091 15.7278 15.3716 15.7278 15.2282V14.4929C15.7277 14.4161 15.7116 14.3402 15.6807 14.2703C15.6498 14.2004 15.6046 14.138 15.5483 14.0874ZM1.09778 14.6875C1.58871 14.2015 2.02105 13.6569 2.38556 13.0655C2.89528 12.0879 3.19236 11.0089 3.25639 9.90252V7.23157C3.23546 6.59791 3.33921 5.96642 3.56147 5.3747C3.78373 4.78298 4.11995 4.24313 4.5501 3.78729C4.98026 3.33145 5.49556 2.96895 6.06532 2.72138C6.63508 2.47381 7.24764 2.34622 7.86653 2.34622C8.48542 2.34622 9.09798 2.47381 9.66774 2.72138C10.2375 2.96895 10.7528 3.33145 11.183 3.78729C11.6131 4.24313 11.9493 4.78298 12.1716 5.3747C12.3938 5.96642 12.4976 6.59791 12.4767 7.23157V9.90252C12.5407 11.0089 12.8378 12.0879 13.3475 13.0655C13.712 13.6569 14.1443 14.2015 14.6353 14.6875H1.09778Z" fill="black"/>
<path d="M7.89027 17.5748C8.22274 17.5669 8.54179 17.4389 8.79098 17.2133C9.04017 16.9877 9.20345 16.6791 9.25194 16.342H6.47583C6.52569 16.6882 6.69661 17.0041 6.9568 17.2308C7.21698 17.4576 7.54871 17.5798 7.89027 17.5748Z" fill="black"/>
</svg>
