<svg width="14" height="15" viewBox="0 0 14 15" fill="none" xmlns="http://www.w3.org/2000/svg">
<path d="M4.48101 14.837C4.16451 14.837 3.89776 14.7285 3.68076 14.5115C3.46376 14.2945 3.35551 14.028 3.35601 13.712C3.35651 13.396 3.46476 13.1293 3.68076 12.9118C3.89776 12.6953 4.16451 12.587 4.48101 12.587C4.7975 12.587 5.064 12.6953 5.2805 12.9118C5.497 13.1283 5.6055 13.395 5.606 13.712C5.6065 14.029 5.498 14.2955 5.2805 14.5115C5.063 14.7275 4.7965 14.836 4.48101 14.837ZM11.519 14.837C11.203 14.837 10.9365 14.7285 10.7195 14.5115C10.5025 14.2945 10.394 14.028 10.394 13.712C10.394 13.396 10.5025 13.1293 10.7195 12.9118C10.9365 12.6953 11.203 12.587 11.519 12.587C11.835 12.587 12.1018 12.6953 12.3193 12.9118C12.5358 13.1288 12.644 13.3955 12.644 13.712C12.644 14.028 12.5358 14.2945 12.3193 14.5115C12.1023 14.7285 11.8355 14.837 11.519 14.837ZM1.85601 1.62501H0.875005C0.768505 1.62501 0.679505 1.58901 0.608005 1.51701C0.536505 1.44501 0.500505 1.35576 0.500005 1.24926C0.499505 1.14276 0.535505 1.05375 0.608005 0.982255C0.680505 0.910755 0.769505 0.875005 0.875005 0.875005H1.95201C2.07151 0.875005 2.18026 0.905005 2.27825 0.965005C2.37626 1.025 2.44976 1.11001 2.49876 1.22001L5.40876 7.33701H10.3843C10.4708 7.33701 10.5478 7.31526 10.6153 7.27176C10.6823 7.22826 10.7398 7.16825 10.7878 7.09175L13.3048 2.56251C13.3388 2.50501 13.3838 2.45926 13.4398 2.42526C13.4958 2.39126 13.5575 2.37451 13.625 2.37501C13.7675 2.37501 13.8748 2.43676 13.9468 2.56026C14.0183 2.68376 14.019 2.80801 13.949 2.93301L11.426 7.5005C11.3175 7.6835 11.1763 7.827 11.0023 7.93101C10.8283 8.03501 10.6378 8.08701 10.4308 8.08701H5.07501L4.16376 9.7595C4.08676 9.875 4.08425 10 4.15626 10.1345C4.22826 10.269 4.33651 10.3365 4.48101 10.337H12.269C12.3755 10.337 12.4648 10.3728 12.5368 10.4443C12.6083 10.5163 12.644 10.6055 12.644 10.712C12.644 10.8185 12.6083 10.9075 12.5368 10.979C12.4653 11.0505 12.376 11.0865 12.269 11.087H4.48101C4.04351 11.087 3.71626 10.9033 3.49926 10.5358C3.28226 10.1683 3.27776 9.797 3.48576 9.422L4.61376 7.412L1.85601 1.62501ZM8 6.125C7.8695 6.125 7.76 6.08075 7.6715 5.99226C7.58301 5.90376 7.53875 5.79426 7.53876 5.66376C7.53876 5.53326 7.58301 5.42351 7.6715 5.33451C7.76 5.2455 7.8695 5.20151 8 5.20251C8.13051 5.20351 8.24025 5.24775 8.32926 5.33525C8.41826 5.42275 8.46226 5.5325 8.46126 5.66451C8.46025 5.7965 8.416 5.90601 8.3285 5.99301C8.241 6.08001 8.13151 6.124 8 6.125ZM8 3.87501C7.893 3.87501 7.80375 3.839 7.73225 3.767C7.66075 3.695 7.62501 3.606 7.625 3.50001V0.500005C7.625 0.393505 7.66101 0.304505 7.73301 0.233005C7.80501 0.161505 7.89426 0.125505 8.00076 0.125005C8.10726 0.124505 8.19626 0.160505 8.26776 0.233005C8.33926 0.305505 8.375 0.394505 8.375 0.500005V3.50001C8.375 3.6065 8.339 3.6955 8.267 3.767C8.195 3.83851 8.10575 3.87451 7.99925 3.87501" fill="#9CA3AF"/>
</svg>
