<svg width="17" height="17" viewBox="0 0 17 17" fill="none" xmlns="http://www.w3.org/2000/svg">
<path d="M8.13641 4.38724C7.18848 4.38724 6.39854 5.17718 6.39854 6.12511V6.80972H6.34588C5.81925 6.80972 5.39795 7.23103 5.39795 7.75765V11.3651C5.39795 11.8917 5.81925 12.313 6.34588 12.313H9.95328C10.4799 12.313 10.9012 11.8917 10.9012 11.3651V7.75765C10.9012 7.23103 10.4799 6.80972 9.95328 6.80972H9.90062V6.12511C9.87428 5.15085 9.08434 4.38724 8.13641 4.38724ZM7.05683 6.12511C7.05683 5.51949 7.53079 5.04552 8.13641 5.04552C8.74203 5.04552 9.216 5.51949 9.216 6.12511V6.80972H7.05683V6.12511ZM10.2429 7.75765V11.3651C10.2429 11.523 10.1113 11.6547 9.95328 11.6547H6.34588C6.18789 11.6547 6.05623 11.523 6.05623 11.3651V7.75765C6.05623 7.59967 6.18789 7.46801 6.34588 7.46801H9.95328C10.1113 7.46801 10.2429 7.59967 10.2429 7.75765Z" fill="white"/>
<path d="M14.5613 3.59733C14.4559 3.46567 14.2453 3.43934 14.0873 3.54467C13.9556 3.64999 13.9293 3.86064 14.0346 4.01863C15.0879 5.3352 15.6145 6.94141 15.6145 8.62662C15.6145 12.7606 12.2441 16.1047 8.1364 16.1047C6.7935 16.1047 5.47693 15.7361 4.34468 15.0778L5.34527 15.0515C5.52959 15.0515 5.66125 14.8935 5.66125 14.7092C5.66125 14.5249 5.50326 14.3405 5.31894 14.3932L3.31776 14.4722C3.29142 14.4722 3.29142 14.4722 3.26509 14.4722H3.23876C3.13344 14.4722 3.02811 14.5249 2.97545 14.6302C2.92278 14.7092 2.89645 14.8408 2.94912 14.9198L3.68639 16.7893C3.73906 16.921 3.87071 17 4.00237 17C4.05503 17 4.08136 17 4.13403 16.9737C4.29202 16.8947 4.39734 16.7104 4.31835 16.5524L3.92338 15.5781C5.18728 16.3417 6.63551 16.763 8.1364 16.763C12.6391 16.763 16.2728 13.103 16.2728 8.62662C16.2728 6.78343 15.6935 5.04555 14.5613 3.59733Z" fill="white"/>
<path d="M8.1364 1.1485C9.29498 1.1485 10.4536 1.43814 11.4805 1.93844L10.4799 1.9911C10.2956 1.9911 10.1639 2.14909 10.1639 2.33341C10.1639 2.51773 10.3219 2.64939 10.4799 2.64939C10.4799 2.64939 10.4799 2.64939 10.5062 2.64939L12.5864 2.51773C12.6917 2.51773 12.7971 2.46507 12.8497 2.35974C12.9024 2.25442 12.9287 2.14909 12.876 2.0701L12.1124 0.200567C12.0334 0.0425792 11.8491 -0.0364151 11.6911 0.0162476C11.5331 0.0952418 11.4541 0.279562 11.5068 0.43755L11.9018 1.38548C10.7432 0.779858 9.4793 0.463881 8.1364 0.463881C3.63373 0.463881 0 4.12394 0 8.60028C0 10.2328 0.473965 11.8127 1.39556 13.1819C1.44823 13.2873 1.55355 13.3136 1.65888 13.3136C1.71154 13.3136 1.79053 13.2873 1.8432 13.2609C2.00118 13.1556 2.02752 12.945 1.92219 12.8133C1.07959 11.5757 0.631953 10.1275 0.631953 8.60028C0.658284 4.49258 4.00237 1.1485 8.1364 1.1485Z" fill="white"/>
</svg>
