<svg width="96" height="96" viewBox="0 0 96 96" fill="none" xmlns="http://www.w3.org/2000/svg">
<g opacity="0.3">
<path d="M48.0001 48C55.909 48 62.3203 37.2548 62.3203 24C62.3203 10.7452 55.909 0 48.0001 0C40.0913 0 33.6799 10.7452 33.6799 24C33.6799 37.2548 40.0913 48 48.0001 48Z" fill="#FFFB00"/>
</g>
<g opacity="0.3">
<path d="M48.0015 48.0009C55.7901 46.628 60.2387 34.9331 57.9376 21.8798C55.6366 8.8264 47.4573 -0.642423 39.6687 0.73055C31.8801 2.10352 27.4315 13.7984 29.7326 26.8517C32.0336 39.9051 40.2129 49.3739 48.0015 48.0009Z" fill="#FFED00"/>
</g>
<g opacity="0.3">
<path d="M48.0026 48.0017C55.4345 45.2969 57.7844 33.0069 53.2513 20.5514C48.7181 8.09579 39.0185 0.19125 31.5866 2.89607C24.1547 5.60089 21.8047 17.8908 26.3379 30.3464C30.871 42.8019 40.5707 50.7065 48.0026 48.0017Z" fill="#FFDF00"/>
</g>
<g opacity="0.3">
<path d="M48.0038 47.9997C54.8529 44.0453 55.0325 31.5342 48.4051 20.0556C41.7777 8.57688 30.8529 2.47725 24.0038 6.43167C17.1548 10.3861 16.9751 22.8971 23.6025 34.3758C30.23 45.8545 41.1548 51.9541 48.0038 47.9997Z" fill="#FFD000"/>
</g>
<g opacity="0.3">
<path d="M48.0007 47.9926C54.0588 42.9088 52.063 30.5568 43.5427 20.4036C35.0225 10.2504 23.2044 6.14082 17.1463 11.2246C11.0881 16.3084 13.084 28.6604 21.6042 38.8136C30.1244 48.9668 41.9425 53.0764 48.0007 47.9926Z" fill="#FFC000"/>
</g>
<g opacity="0.3">
<path d="M47.9994 48.009C53.0832 41.9509 48.9736 30.1328 38.8204 21.6125C28.6672 13.0923 16.3152 11.0965 11.2314 17.1546C6.1476 23.2128 10.2572 35.0309 20.4104 43.5511C30.5636 52.0713 42.9156 54.0672 47.9994 48.009Z" fill="#FFB200"/>
</g>
<g opacity="0.3">
<path d="M48.003 48.0023C51.9574 41.1532 45.8578 30.2284 34.3791 23.601C22.9004 16.9736 10.3894 17.1532 6.435 24.0023C2.48059 30.8513 8.58021 41.7762 20.0589 48.4036C31.5376 55.031 44.0486 54.8513 48.003 48.0023Z" fill="#FFA000"/>
</g>
<g opacity="0.3">
<path d="M48.0026 48.0004C50.7074 40.5685 42.8029 30.8689 30.3473 26.3358C17.8918 21.8026 5.60184 24.1525 2.89702 31.5844C0.192201 39.0164 8.09675 48.716 20.5523 53.2491C33.0079 57.7823 45.2978 55.4324 48.0026 48.0004Z" fill="#FF9300"/>
</g>
<g opacity="0.3">
<path d="M48.0015 48.0003C49.3745 40.2117 39.9057 32.0324 26.8523 29.7314C13.7989 27.4303 2.10408 31.8789 0.731104 39.6675C-0.641868 47.4561 8.82696 55.6354 21.8803 57.9364C34.9337 60.2375 46.6285 55.7889 48.0015 48.0003Z" fill="#FF8700"/>
</g>
<g opacity="0.3">
<path d="M24 62.3202C37.2548 62.3202 48 55.9088 48 48C48 40.0912 37.2548 33.6798 24 33.6798C10.7452 33.6798 0 40.0912 0 48C0 55.9088 10.7452 62.3202 24 62.3202Z" fill="#FF7900"/>
</g>
<g opacity="0.3">
<path d="M26.8481 66.2755C39.9015 63.9745 49.3703 55.7952 47.9974 48.0066C46.6244 40.218 34.9295 35.7694 21.8762 38.0704C8.82281 40.3715 -0.646018 48.5508 0.726954 56.3394C2.09993 64.128 13.7948 68.5766 26.8481 66.2755Z" fill="#FF5700"/>
</g>
<g opacity="0.3">
<path d="M30.3464 69.6712C42.8019 65.1381 50.7065 55.4385 48.0016 48.0065C45.2968 40.5746 33.0069 38.2247 20.5513 42.7578C8.09577 47.291 0.191224 56.9906 2.89604 64.4225C5.60086 71.8545 17.8908 74.2044 30.3464 69.6712Z" fill="#FF3B00"/>
</g>
<g opacity="0.3">
<path d="M34.3781 72.4031C45.8568 65.7757 51.9564 54.8509 48.002 48.0018C44.0476 41.1528 31.5366 40.9731 20.0579 47.6005C8.57924 54.2279 2.47961 65.1528 6.43403 72.0018C10.3884 78.8509 22.8994 79.0305 34.3781 72.4031Z" fill="#FF2600"/>
</g>
<g opacity="0.3">
<path d="M38.818 74.399C48.9712 65.8788 53.0807 54.0607 47.9969 48.0025C42.9132 41.9444 30.5611 43.9402 20.4079 52.4605C10.2547 60.9807 6.14516 72.7988 11.229 78.8569C16.3127 84.9151 28.6648 82.9192 38.818 74.399Z" fill="#F22540"/>
</g>
<g opacity="0.3">
<path d="M43.544 75.5924C52.0642 65.4392 54.0601 53.0871 48.0019 48.0033C41.9437 42.9195 30.1256 47.0291 21.6054 57.1823C13.0852 67.3355 11.0893 79.6875 17.1475 84.7713C23.2057 89.8551 35.0238 85.7456 43.544 75.5924Z" fill="#E5276F"/>
</g>
<g opacity="0.3">
<path d="M48.4054 75.9473C55.0328 64.4686 54.8531 51.9576 48.0041 48.0032C41.155 44.0487 30.2302 50.1484 23.6028 61.6271C16.9754 73.1057 17.155 85.6167 24.0041 89.5712C30.8531 93.5256 41.778 87.4259 48.4054 75.9473Z" fill="#D2278D"/>
</g>
<g opacity="0.3">
<path d="M53.2464 75.4484C57.7795 62.9929 55.4296 50.7029 47.9977 47.9981C40.5658 45.2933 30.8662 53.1979 26.333 65.6534C21.7998 78.109 24.1498 90.3989 31.5817 93.1037C39.0136 95.8085 48.7132 87.904 53.2464 75.4484Z" fill="#C82DB3"/>
</g>
<g opacity="0.3">
<path d="M57.9364 74.1264C60.2387 61.0731 55.7912 49.3776 48.0026 48.0038C40.214 46.63 32.0337 56.0982 29.7313 69.1516C27.4289 82.2049 31.8764 93.9004 39.665 95.2742C47.4536 96.648 55.634 87.1798 57.9364 74.1264Z" fill="#A92BBC"/>
</g>
<g opacity="0.3">
<path d="M48.0001 96C55.909 96 62.3203 85.2548 62.3203 72C62.3203 58.7452 55.909 48 48.0001 48C40.0913 48 33.6799 58.7452 33.6799 72C33.6799 85.2548 40.0913 96 48.0001 96Z" fill="#7524AF"/>
</g>
<g opacity="0.3">
<path d="M56.3343 95.2725C64.1229 93.8995 68.5714 82.2046 66.2704 69.1513C63.9694 56.0979 55.7901 46.6291 48.0015 48.002C40.2128 49.375 35.7643 61.0699 38.0653 74.1232C40.3664 87.1766 48.5456 96.6454 56.3343 95.2725Z" fill="#4D22B3"/>
</g>
<g opacity="0.3">
<path d="M64.4196 93.1049C71.8515 90.4001 74.2014 78.1101 69.6683 65.6546C65.1351 53.199 55.4355 45.2945 48.0036 47.9993C40.5716 50.7041 38.2217 62.994 42.7549 75.4496C47.288 87.9052 56.9876 95.8097 64.4196 93.1049Z" fill="#2122B7"/>
</g>
<g opacity="0.3">
<path d="M72.0043 89.5713C78.8534 85.6169 79.033 73.1059 72.4056 61.6272C65.7782 50.1485 54.8534 44.0489 48.0043 48.0033C41.1553 51.9577 40.9756 64.4687 47.603 75.9474C54.2304 87.4261 65.1553 93.5258 72.0043 89.5713Z" fill="#0229BA"/>
</g>
<g opacity="0.3">
<path d="M78.8559 84.7673C84.9141 79.6835 82.9182 67.3315 74.398 57.1782C65.8778 47.025 54.0597 42.9155 48.0015 47.9993C41.9433 53.0831 43.9392 65.4351 52.4594 75.5883C60.9796 85.7415 72.7977 89.8511 78.8559 84.7673Z" fill="#0040BA"/>
</g>
<g opacity="0.3">
<path d="M84.7709 78.8604C89.8547 72.8023 85.7451 60.9841 75.5919 52.4639C65.4387 43.9437 53.0867 41.9479 48.0029 48.006C42.9191 54.0642 47.0286 65.8823 57.1818 74.4025C67.3351 82.9227 79.6871 84.9186 84.7709 78.8604Z" fill="#005DBC"/>
</g>
<g opacity="0.3">
<path d="M89.5733 72.0019C93.5277 65.1528 87.4281 54.228 75.9494 47.6006C64.4707 40.9731 51.9597 41.1528 48.0053 48.0019C44.0509 54.8509 50.1505 65.7757 61.6292 72.4032C73.1079 79.0306 85.6189 78.8509 89.5733 72.0019Z" fill="#0074BF"/>
</g>
<g opacity="0.3">
<path d="M93.1091 64.4216C95.8139 56.9897 87.9093 47.2901 75.4538 42.7569C62.9982 38.2238 50.7083 40.5737 48.0035 48.0056C45.2986 55.4375 53.2032 65.1372 65.6588 69.6703C78.1143 74.2035 90.4042 71.8536 93.1091 64.4216Z" fill="#0087C3"/>
</g>
<g opacity="0.3">
<path d="M95.2786 56.3442C96.6523 48.5556 87.1841 40.3753 74.1308 38.0729C61.0774 35.7705 49.3819 40.218 48.0082 48.0066C46.6344 55.7952 56.1026 63.9756 69.156 66.278C82.2093 68.5803 93.9048 64.1328 95.2786 56.3442Z" fill="#009BCC"/>
</g>
<g opacity="0.3">
<path d="M72 62.3202C85.2548 62.3202 96 55.9088 96 48C96 40.0912 85.2548 33.6798 72 33.6798C58.7452 33.6798 48 40.0912 48 48C48 55.9088 58.7452 62.3202 72 62.3202Z" fill="#00AFCF"/>
</g>
<g opacity="0.3">
<path d="M74.1196 57.9426C87.173 55.6416 96.6418 47.4623 95.2688 39.6737C93.8959 31.8851 82.201 27.4365 69.1476 29.7375C56.0943 32.0386 46.6255 40.2179 47.9984 48.0065C49.3714 55.7951 61.0663 60.2437 74.1196 57.9426Z" fill="#00C6A0"/>
</g>
<g opacity="0.3">
<path d="M75.4496 53.2544C87.9052 48.7213 95.8097 39.0216 93.1049 31.5897C90.4001 24.1578 78.1102 21.8079 65.6546 26.341C53.199 30.8742 45.2945 40.5738 47.9993 48.0057C50.7041 55.4376 62.9941 57.7876 75.4496 53.2544Z" fill="#00BD4F"/>
</g>
<g opacity="0.3">
<path d="M75.9501 48.4025C87.4288 41.7751 93.5285 30.8502 89.5741 24.0012C85.6196 17.1521 73.1086 16.9725 61.6299 23.5999C50.1513 30.2273 44.0516 41.1521 48.006 48.0012C51.9605 54.8502 64.4715 55.0299 75.9501 48.4025Z" fill="#00B600"/>
</g>
<g opacity="0.3">
<path d="M75.5931 43.5439C85.7463 35.0237 89.8559 23.2056 84.7721 17.1475C79.6883 11.0893 67.3363 13.0852 57.1831 21.6054C47.0299 30.1256 42.9203 41.9437 48.0041 48.0019C53.0879 54.06 65.4399 52.0641 75.5931 43.5439Z" fill="#3BBE00"/>
</g>
<g opacity="0.3">
<path d="M74.3955 38.8207C82.9157 28.6675 84.9116 16.3155 78.8535 11.2317C72.7953 6.14789 60.9772 10.2575 52.457 20.4107C43.9368 30.5639 41.9409 42.9159 47.9991 47.9997C54.0572 53.0835 65.8753 48.9739 74.3955 38.8207Z" fill="#70C700"/>
</g>
<g opacity="0.3">
<path d="M72.4051 34.3771C79.0325 22.8984 78.8529 10.3874 72.0038 6.43298C65.1548 2.47857 54.23 8.5782 47.6025 20.0569C40.9751 31.5356 41.1548 44.0466 48.0038 48.001C54.8529 51.9554 65.7777 45.8558 72.4051 34.3771Z" fill="#9CCE00"/>
</g>
<g opacity="0.3">
<path d="M69.6675 30.3418C74.2007 17.8862 71.8508 5.59629 64.4188 2.89147C56.9869 0.186649 47.2873 8.0912 42.7541 20.5468C38.221 33.0023 40.5709 45.2923 48.0028 47.9971C55.4348 50.7019 65.1344 42.7974 69.6675 30.3418Z" fill="#BADF00"/>
</g>
<g opacity="0.3">
<path d="M66.2687 26.8482C68.5697 13.7948 64.1212 2.09999 56.3326 0.727017C48.5439 -0.645956 40.3647 8.82287 38.0636 21.8762C35.7626 34.9296 40.2111 46.6244 47.9998 47.9974C55.7884 49.3704 63.9676 39.9016 66.2687 26.8482Z" fill="#DCED00"/>
</g>
</svg>
