<svg width="11" height="12" viewBox="0 0 11 12" fill="none" xmlns="http://www.w3.org/2000/svg">
<path d="M4.35251 5.10168C4.44691 5.10168 4.53745 5.13918 4.6042 5.20593C4.67095 5.27269 4.70845 5.36322 4.70845 5.45762V8.30507C4.70845 8.39947 4.67095 8.49001 4.6042 8.55676C4.53745 8.62351 4.44691 8.66101 4.35251 8.66101C4.25812 8.66101 4.16758 8.62351 4.10083 8.55676C4.03408 8.49001 3.99658 8.39947 3.99658 8.30507V5.45762C3.99658 5.36322 4.03408 5.27269 4.10083 5.20593C4.16758 5.13918 4.25812 5.10168 4.35251 5.10168ZM6.84404 5.45762C6.84404 5.36322 6.80654 5.27269 6.73979 5.20593C6.67304 5.13918 6.58251 5.10168 6.48811 5.10168C6.39371 5.10168 6.30318 5.13918 6.23643 5.20593C6.16967 5.27269 6.13218 5.36322 6.13218 5.45762V8.30507C6.13218 8.39947 6.16967 8.49001 6.23643 8.55676C6.30318 8.62351 6.39371 8.66101 6.48811 8.66101C6.58251 8.66101 6.67304 8.62351 6.73979 8.55676C6.80654 8.49001 6.84404 8.39947 6.84404 8.30507V5.45762Z" fill="black"/>
<path fill-rule="evenodd" clip-rule="evenodd" d="M5.50612 0.118652H5.33456C5.04839 0.118652 4.81134 0.118652 4.61557 0.134313C4.41554 0.150686 4.23188 0.185568 4.0589 0.273839C3.79102 0.410334 3.57322 0.628128 3.43673 0.896008C3.34845 1.06899 3.31357 1.25265 3.2972 1.45269C3.28154 1.6456 3.28154 1.88194 3.28154 2.17167V2.2578H0.790014C0.695615 2.2578 0.605082 2.2953 0.538332 2.36206C0.471582 2.42881 0.434082 2.51934 0.434082 2.61374C0.434082 2.70814 0.471582 2.79867 0.538332 2.86542C0.605082 2.93217 0.695615 2.96967 0.790014 2.96967H1.17442L1.5994 8.06662C1.64425 8.60621 1.67984 9.03475 1.73608 9.37645C1.79303 9.72669 1.87561 10.0171 2.02795 10.2805C2.27995 10.7105 2.65439 11.0564 3.10286 11.27C3.37764 11.401 3.67449 11.4587 4.02829 11.4864C4.37496 11.5135 4.80422 11.5135 5.34523 11.5135H5.49473C6.03574 11.5135 6.46286 11.5135 6.81168 11.4864C7.16547 11.4587 7.46161 11.401 7.7371 11.27C8.18623 11.055 8.56064 10.7104 8.81201 10.2805C8.96578 10.0186 9.04693 9.7274 9.10388 9.37645C9.16083 9.03475 9.19571 8.60764 9.24127 8.06662L9.66625 2.96967H10.0507C10.1451 2.96967 10.2356 2.93217 10.3023 2.86542C10.3691 2.79867 10.4066 2.70814 10.4066 2.61374C10.4066 2.51934 10.3691 2.42881 10.3023 2.36206C10.2356 2.2953 10.1451 2.2578 10.0507 2.2578H7.55913V2.17238C7.55913 1.8855 7.55913 1.64845 7.54347 1.4534C7.5271 1.25265 7.49222 1.06899 7.40395 0.896008C7.26745 0.628128 7.04966 0.410334 6.78178 0.273839C6.60879 0.185568 6.42442 0.150686 6.2251 0.134313C6.03218 0.118652 5.79584 0.118652 5.50612 0.118652ZM1.88984 2.96611L2.30842 7.99187C2.35469 8.54997 2.38815 8.94577 2.4394 9.25899C2.48923 9.56652 2.55259 9.76086 2.64371 9.91675C2.82363 10.2237 3.09142 10.4697 3.41252 10.6229C3.57554 10.7012 3.77486 10.7475 4.08523 10.7724C4.39988 10.7973 4.7971 10.7973 5.35947 10.7973H5.47835C6.03859 10.7973 6.43937 10.7973 6.75259 10.7724C7.06296 10.7482 7.26229 10.7012 7.4253 10.6229C7.7464 10.4697 8.0142 10.2237 8.19412 9.91675C8.28523 9.76086 8.34859 9.56581 8.39913 9.25899C8.44968 8.9472 8.48313 8.54926 8.53012 7.99187L8.94869 2.96611H1.89412H1.88984ZM3.99696 2.25425H6.84442V2.18306C6.84442 1.87838 6.84442 1.67123 6.8309 1.51106C6.81808 1.35516 6.7953 1.27543 6.76683 1.21919C6.69858 1.08525 6.58968 0.976358 6.45574 0.90811C6.40022 0.879635 6.32049 0.856856 6.16388 0.844042C5.94012 0.831398 5.71597 0.826886 5.49188 0.830517H5.34951C5.04483 0.830517 4.83768 0.830517 4.67751 0.844042C4.52161 0.856856 4.44188 0.879635 4.38564 0.90811C4.2517 0.976358 4.1428 1.08525 4.07456 1.21919C4.04608 1.27472 4.0233 1.35445 4.01049 1.51106C3.99696 1.67123 3.99696 1.87838 3.99696 2.18306V2.25425Z" fill="black"/>
</svg>
