<svg width="18" height="18" viewBox="0 0 18 18" fill="none" xmlns="http://www.w3.org/2000/svg">
<path d="M11.811 2.21025C12.0923 1.92905 12.4738 1.77107 12.8715 1.77107C13.2692 1.77107 13.6507 1.92905 13.932 2.21025L15.7882 4.0665C15.9276 4.2058 16.0381 4.37118 16.1136 4.55321C16.189 4.73524 16.2278 4.93034 16.2278 5.12738C16.2278 5.32441 16.189 5.51951 16.1136 5.70154C16.0381 5.88357 15.9276 6.04896 15.7882 6.18825L6.8685 15.108L2.0835 15.915L2.89125 11.13L11.811 2.21025ZM11.6392 4.503L13.4955 6.35925L14.7277 5.127L12.8715 3.2715L11.6392 4.503ZM12.4342 7.4205L10.5787 5.56425L4.29075 11.8523L3.9135 14.085L6.14625 13.7085L12.4342 7.4205Z" fill="white"/>
</svg>
