<svg width="11" height="11" viewBox="0 0 11 11" fill="none" xmlns="http://www.w3.org/2000/svg">
<path d="M7.8148 0.692031C8.01504 0.49185 8.28659 0.379395 8.56973 0.379395C8.85287 0.379395 9.12442 0.49185 9.32466 0.692031L10.6461 2.01343C10.7453 2.11259 10.824 2.23032 10.8776 2.3599C10.9313 2.48948 10.959 2.62837 10.959 2.76863C10.959 2.90889 10.9313 3.04778 10.8776 3.17736C10.824 3.30694 10.7453 3.42467 10.6461 3.52383L4.29641 9.87348L0.890137 10.448L1.46515 7.04168L7.8148 0.692031ZM7.69253 2.32416L9.01393 3.64556L9.89113 2.76836L8.56973 1.4475L7.69253 2.32416ZM8.25847 4.40102L6.9376 3.07962L2.4614 7.55583L2.19285 9.14524L3.78226 8.87723L8.25847 4.40102Z" fill="black"/>
<path d="M10.5753 2.08414L10.5754 2.08415C10.6653 2.17403 10.7366 2.28073 10.7853 2.39818C10.8339 2.51562 10.859 2.6415 10.859 2.76863C10.859 2.89575 10.8339 3.02163 10.7853 3.13908C10.7366 3.25652 10.6653 3.36323 10.5754 3.4531L10.5753 3.45312L4.24828 9.78018L1.01214 10.326L1.55843 7.08982L7.8855 0.762752C8.06699 0.581318 8.31311 0.479395 8.56973 0.479395C8.82635 0.479395 9.07246 0.581315 9.25395 0.762742C9.25395 0.762745 9.25396 0.762749 9.25396 0.762752L10.5753 2.08414ZM7.62185 2.25343L7.55109 2.32414L7.62182 2.39487L8.94322 3.71627L9.01393 3.78698L9.08464 3.71627L9.96184 2.83907L10.0326 2.76835L9.96182 2.69764L8.64043 1.37677L8.56974 1.30611L8.49904 1.37676L7.62185 2.25343ZM8.32918 4.47173L8.39987 4.40104L8.32919 4.33033L7.00833 3.00893L6.93762 2.93819L6.86689 3.00891L2.39069 7.48512L2.36812 7.50769L2.3628 7.53917L2.09425 9.12858L2.07082 9.26723L2.20948 9.24385L3.79889 8.97583L3.83039 8.97052L3.85297 8.94794L8.32918 4.47173Z" stroke="#3B82F6" stroke-opacity="0.2" stroke-width="0.2"/>
</svg>
