<svg width="13" height="12" viewBox="0 0 13 12" fill="none" xmlns="http://www.w3.org/2000/svg">
<path d="M12.3294 0.125091C12.3898 0.176642 12.4319 0.246348 12.4494 0.323796C12.4669 0.401244 12.4589 0.482277 12.4265 0.55479C11.3008 3.07854 8.93667 6.56616 7.2061 8.38355C6.72046 8.89126 6.12241 9.27786 5.46008 9.51225C5.44684 9.67927 5.41593 9.9081 5.34236 10.1509C5.19446 10.6358 4.85159 11.2391 4.08563 11.4312C3.34388 11.6081 2.57506 11.6411 1.82088 11.5283C1.68083 11.5052 1.54263 11.472 1.40737 11.429C1.2826 11.3907 1.16624 11.329 1.0645 11.2472C0.997185 11.1906 0.94551 11.1176 0.914396 11.0353C0.875201 10.93 0.876249 10.814 0.917339 10.7094C0.987239 10.5291 1.14985 10.4298 1.25654 10.3768C1.54644 10.2318 1.7164 10.0435 1.89446 9.76904C1.96436 9.66308 2.02985 9.55051 2.10563 9.42175L2.19172 9.27606C2.30282 9.08844 2.43159 8.87874 2.59346 8.65211C2.98195 8.10837 3.47714 7.97151 3.87814 7.99285C3.97134 7.99874 4.05669 8.01051 4.1342 8.02817C4.17981 7.90161 4.23868 7.74857 4.30931 7.58081C4.50135 7.12536 4.79346 6.53673 5.18269 6.05847C6.78376 4.09392 9.72985 1.49218 11.8909 0.0956594C11.9574 0.0527186 12.036 0.0323889 12.115 0.0376913C12.194 0.0429937 12.2692 0.0736452 12.3294 0.125091Z" fill="white"/>
</svg>
