<svg width="20" height="20" viewBox="0 0 20 20" fill="none" xmlns="http://www.w3.org/2000/svg">
<path fill-rule="evenodd" clip-rule="evenodd" d="M17.8791 4.51333C17.9583 4.63351 17.9935 4.77732 17.979 4.92049C17.9644 5.06366 17.9008 5.19741 17.7991 5.29917L10.1382 12.9592C10.0599 13.0375 9.96209 13.0936 9.85491 13.1217L6.66408 13.955C6.5586 13.9825 6.44777 13.982 6.34257 13.9534C6.23738 13.9248 6.14148 13.8692 6.06441 13.7922C5.98733 13.7151 5.93175 13.6192 5.90319 13.514C5.87462 13.4088 5.87407 13.298 5.90158 13.1925L6.73491 10.0025C6.75983 9.90697 6.80566 9.81816 6.86908 9.7425L14.5582 2.05833C14.6754 1.94129 14.8343 1.87555 14.9999 1.87555C15.1655 1.87555 15.3244 1.94129 15.4416 2.05833L17.7991 4.415C17.8282 4.4457 17.8549 4.47857 17.8791 4.51333ZM16.4732 4.85667L14.9999 3.38417L7.90158 10.4825L7.38075 12.4767L9.37491 11.9558L16.4732 4.85667Z" fill="white"/>
<path d="M16.3677 14.3C16.5954 12.3533 16.6682 10.3916 16.5852 8.43334C16.5832 8.38718 16.5909 8.34113 16.6077 8.29809C16.6244 8.25506 16.65 8.21598 16.6827 8.18334L17.5027 7.36334C17.5251 7.3408 17.5535 7.32522 17.5846 7.31846C17.6156 7.3117 17.648 7.31404 17.6777 7.32522C17.7075 7.3364 17.7333 7.35593 17.7523 7.38147C17.7712 7.407 17.7823 7.43746 17.7843 7.46917C17.9383 9.79521 17.8797 12.1304 17.6093 14.4458C17.4127 16.1308 16.0593 17.4517 14.3818 17.6392C11.4696 17.9615 8.53073 17.9615 5.61851 17.6392C3.94184 17.4517 2.58767 16.1308 2.39101 14.4458C2.0461 11.492 2.0461 8.50802 2.39101 5.55417C2.58767 3.86917 3.94101 2.54834 5.61851 2.36084C7.82888 2.11671 10.0558 2.05734 12.276 2.18334C12.3078 2.18562 12.3382 2.19696 12.3638 2.21601C12.3893 2.23507 12.4088 2.26104 12.42 2.29085C12.4313 2.32067 12.4337 2.35307 12.4271 2.38423C12.4205 2.41539 12.4051 2.444 12.3827 2.46667L11.5552 3.29334C11.5228 3.32571 11.4842 3.35107 11.4416 3.36785C11.399 3.38462 11.3534 3.39245 11.3077 3.39084C9.45497 3.32738 7.6001 3.3984 5.75767 3.60334C5.21929 3.66293 4.71672 3.90227 4.33114 4.28271C3.94555 4.66315 3.69948 5.16247 3.63267 5.7C3.29839 8.55692 3.29839 11.4431 3.63267 14.3C3.69948 14.8375 3.94555 15.3369 4.33114 15.7173C4.71672 16.0977 5.21929 16.3371 5.75767 16.3967C8.55351 16.7092 11.4468 16.7092 14.2435 16.3967C14.7819 16.3371 15.2845 16.0977 15.67 15.7173C16.0556 15.3369 16.3009 14.8375 16.3677 14.3Z" fill="white"/>
</svg>
