<?xml version="1.0" encoding="utf-8"?>
<!-- Generator: Adobe Illustrator 24.2.3, SVG Export Plug-In . SVG Version: 6.00 Build 0)  -->
<svg version="1.1" id="Layer_1" xmlns="http://www.w3.org/2000/svg" xmlns:xlink="http://www.w3.org/1999/xlink" x="0px" y="0px"
	 viewBox="0 0 23 21" style="enable-background:new 0 0 23 21;" xml:space="preserve">
<style type="text/css">
	.st0{fill:#FFFFFF;filter:url(#Adobe_OpacityMaskFilter);}
	.st1{mask:url(#path-1-inside-1_14_194_2_);}
</style>
<defs>
	<filter id="Adobe_OpacityMaskFilter" filterUnits="userSpaceOnUse" x="0.6" y="1.3" width="22.1" height="19.2">
		<feColorMatrix  type="matrix" values="1 0 0 0 0  0 1 0 0 0  0 0 1 0 0  0 0 0 1 0"/>
	</filter>
</defs>
<mask maskUnits="userSpaceOnUse" x="0.6" y="1.3" width="22.1" height="19.2" id="path-1-inside-1_14_194_2_">
	<path class="st0" d="M3.9,1h9.8c0.7,0,1.2,0,1.6,0c0.4,0,0.9,0.1,1.2,0.4c0.5,0.4,0.8,1,0.8,1.6c0,0.4-0.2,0.8-0.4,1.2
		c-0.2,0.4-0.6,0.8-1,1.4l-3.7,4.8c-0.3,0.5-0.5,0.6-0.5,0.8c-0.1,0.2-0.1,0.3-0.2,0.5c0,0.2,0,0.4,0,1v6c0,0.3,0,0.6,0,0.8
		c0,0.2-0.1,0.5-0.3,0.8c-0.1,0.2-0.3,0.3-0.4,0.4c-0.2,0.1-0.4,0.2-0.6,0.2c-0.3,0-0.6-0.1-0.8-0.2c-0.2-0.1-0.4-0.3-0.7-0.4
		l-1.4-1l-0.1,0c-0.3-0.2-0.5-0.4-0.7-0.6c-0.2-0.2-0.3-0.5-0.4-0.7c-0.1-0.3-0.1-0.6-0.1-1v-4.2c0-0.6,0-0.8,0-1
		c0-0.2-0.1-0.3-0.2-0.5c-0.1-0.2-0.2-0.3-0.5-0.8L1.8,5.7l0,0l0,0c-0.3-0.4-0.7-0.9-1-1.4C0.5,3.9,0.3,3.5,0.3,3
		c0-0.6,0.3-1.2,0.8-1.6C1.4,1.2,1.9,1.1,2.3,1C2.7,1,3.3,1,3.9,1z M3.8,5.9l2.8,3.6l0,0.1c0.3,0.4,0.5,0.7,0.7,1
		c0.1,0.3,0.2,0.6,0.3,0.9c0.1,0.3,0.1,0.7,0.1,1.2v4.2c0,0.5,0,0.6,0,0.6c0,0.1,0.1,0.2,0.1,0.2c0,0.1,0.1,0.1,0.5,0.4L9.6,19
		c0.2,0.2,0.4,0.3,0.5,0.3c0-0.1,0-0.3,0-0.7v-6c0-0.5,0-0.8,0.1-1.2c0.1-0.3,0.2-0.6,0.3-0.9c0.1-0.3,0.4-0.6,0.7-1l0-0.1l2.8-3.6
		H3.8z M15,4.5c0.3-0.4,0.6-0.8,0.7-1c0.2-0.3,0.2-0.4,0.2-0.5c0-0.1,0-0.2-0.1-0.3c0-0.1-0.1-0.2-0.2-0.2c0,0-0.1-0.1-0.4-0.1
		c-0.3,0-0.8,0-1.5,0H4c-0.7,0-1.2,0-1.5,0C2.1,2.5,2,2.5,2,2.5C1.9,2.6,1.9,2.7,1.8,2.8c0,0.1-0.1,0.2-0.1,0.3c0,0,0,0.1,0.2,0.5
		c0.2,0.3,0.4,0.6,0.7,1H15z M17.3,8.8c0-0.2,0.1-0.4,0.2-0.5c0.1-0.1,0.3-0.2,0.5-0.2h4.3c0.2,0,0.4,0.1,0.5,0.2
		C22.9,8.4,23,8.6,23,8.8c0,0.2-0.1,0.4-0.2,0.5c-0.1,0.1-0.3,0.2-0.5,0.2H18c-0.2,0-0.4-0.1-0.5-0.2C17.4,9.1,17.3,9,17.3,8.8z
		 M15.2,12.3c0-0.2,0.1-0.4,0.2-0.5c0.1-0.1,0.3-0.2,0.5-0.2h6.4c0.2,0,0.4,0.1,0.5,0.2c0.1,0.1,0.2,0.3,0.2,0.5
		c0,0.2-0.1,0.4-0.2,0.5c-0.1,0.1-0.3,0.2-0.5,0.2h-6.4c-0.2,0-0.4-0.1-0.5-0.2C15.3,12.7,15.2,12.5,15.2,12.3z M14.5,15.9
		c0-0.2,0.1-0.4,0.2-0.5c0.1-0.1,0.3-0.2,0.5-0.2h7.1c0.2,0,0.4,0.1,0.5,0.2c0.1,0.1,0.2,0.3,0.2,0.5c0,0.2-0.1,0.4-0.2,0.5
		c-0.1,0.1-0.3,0.2-0.5,0.2h-7.1c-0.2,0-0.4-0.1-0.5-0.2C14.6,16.2,14.5,16,14.5,15.9z M14.5,19.4c0-0.2,0.1-0.4,0.2-0.5
		c0.1-0.1,0.3-0.2,0.5-0.2h3.5c0.2,0,0.4,0.1,0.5,0.2c0.1,0.1,0.2,0.3,0.2,0.5c0,0.2-0.1,0.4-0.2,0.5c-0.1,0.1-0.3,0.2-0.5,0.2h-3.5
		c-0.2,0-0.4-0.1-0.5-0.2C14.6,19.8,14.5,19.6,14.5,19.4z"/>
</mask>
<g class="st1">
	<path d="M19,19.1C19,19,18.9,19,18.8,19h-3.5c-0.1,0-0.2,0-0.3,0.1c-0.1,0.1-0.1,0.2-0.1,0.3c0,0.1,0,0.2,0.1,0.3
		c0.1,0.1,0.2,0.1,0.3,0.1h3.5c0.1,0,0.2,0,0.3-0.1c0.1-0.1,0.1-0.2,0.1-0.3C19.2,19.3,19.1,19.2,19,19.1z M22.6,15.6
		c-0.1-0.1-0.2-0.1-0.3-0.1h-7.1c-0.1,0-0.2,0-0.3,0.1c-0.1,0.1-0.1,0.2-0.1,0.3c0,0.1,0,0.2,0.1,0.3c0.1,0.1,0.2,0.1,0.3,0.1h7.1
		c0.1,0,0.2-0.1,0.3-0.1c0.1-0.1,0.1-0.2,0.1-0.3C22.7,15.8,22.7,15.6,22.6,15.6z M22.6,12c-0.1-0.1-0.2-0.1-0.3-0.1h-6.4
		c-0.1,0-0.2,0-0.3,0.1c-0.1,0.1-0.1,0.2-0.1,0.3c0,0.1,0,0.2,0.1,0.3c0.1,0.1,0.2,0.1,0.3,0.1h6.4c0.1,0,0.2,0,0.3-0.1
		c0.1-0.1,0.1-0.2,0.1-0.3C22.7,12.2,22.7,12.1,22.6,12z M22.6,8.5c-0.1-0.1-0.2-0.1-0.3-0.1H18c-0.1,0-0.2,0-0.3,0.1
		c-0.1,0.1-0.1,0.2-0.1,0.3c0,0.1,0,0.2,0.1,0.3c0.1,0.1,0.2,0.1,0.3,0.1h4.3c0.1,0,0.2,0,0.3-0.1c0.1-0.1,0.1-0.2,0.1-0.3
		C22.7,8.7,22.7,8.6,22.6,8.5z M16.4,1.7c-0.3-0.3-0.7-0.3-1.1-0.3c-0.4,0-1,0-1.6,0H3.9c-0.6,0-1.2,0-1.6,0c-0.4,0-0.8,0.1-1,0.3
		C0.9,2,0.6,2.5,0.6,3c0,0.4,0.2,0.8,0.4,1.1C1.3,4.5,1.6,5,2,5.4L2,5.5l3.6,4.8c0.3,0.5,0.5,0.6,0.6,0.8c0.1,0.2,0.2,0.4,0.2,0.6
		c0.1,0.2,0.1,0.4,0.1,1v4.2c0,0.3,0,0.6,0.1,0.9c0.1,0.2,0.2,0.4,0.3,0.6c0.2,0.2,0.4,0.4,0.7,0.5l1.5,1c0.2,0.2,0.4,0.3,0.6,0.4
		c0.2,0.1,0.4,0.2,0.6,0.2c0.1,0,0.3,0,0.4-0.1c0.1-0.1,0.3-0.2,0.3-0.3c0.1-0.2,0.2-0.4,0.2-0.6c0-0.2,0-0.5,0-0.8v-6
		c0-0.6,0-0.8,0-1c0-0.2,0.1-0.4,0.2-0.6c0.1-0.2,0.2-0.4,0.6-0.8l3.7-4.8c0.4-0.5,0.7-1,1-1.3C16.8,3.8,17,3.4,17,3
		C17,2.5,16.8,2,16.4,1.7z M6.3,9.8L3.2,5.6h11.3l-3.2,4.2c-0.3,0.4-0.5,0.6-0.6,0.9c-0.1,0.3-0.2,0.5-0.3,0.8
		c-0.1,0.3-0.1,0.6-0.1,1.1v6c0,0.3,0,0.5,0,0.7l0,0.5l-0.4-0.3c-0.1-0.1-0.3-0.2-0.5-0.4l-1.4-1C7.6,18,7.6,18,7.5,17.9
		c-0.1-0.1-0.1-0.2-0.2-0.3c0-0.1,0-0.2,0-0.7v-4.2c0-0.5,0-0.8-0.1-1.1C7.2,11.3,7.1,11,7,10.7C6.8,10.5,6.6,10.2,6.3,9.8L6.3,9.8z
		 M16,3.7c-0.2,0.3-0.4,0.6-0.8,1.1l-0.1,0.1H2.5L2.5,4.7C2.1,4.3,1.9,3.9,1.7,3.7C1.5,3.3,1.5,3.1,1.5,3c0-0.1,0-0.3,0.1-0.4
		s0.2-0.3,0.3-0.3c0.1-0.1,0.3-0.1,0.6-0.2c0.4,0,0.8,0,1.6,0h9.7c0.7,0,1.2,0,1.6,0c0.3,0,0.5,0.1,0.6,0.2c0.1,0.1,0.2,0.2,0.3,0.3
		s0.1,0.3,0.1,0.4C16.2,3.1,16.2,3.3,16,3.7z"/>
</g>
</svg>
