<svg width="12" height="12" viewBox="0 0 12 12" fill="none" xmlns="http://www.w3.org/2000/svg">
<path d="M3.75 1H2C1.73478 1 1.48043 1.10536 1.29289 1.29289C1.10536 1.48043 1 1.73478 1 2V3.75C1 3.88132 1.02587 4.01136 1.07612 4.13268C1.12638 4.25401 1.20003 4.36425 1.29289 4.45711C1.38575 4.54997 1.49599 4.62362 1.61732 4.67388C1.73864 4.72413 1.86868 4.75 2 4.75H3.75C3.88132 4.75 4.01136 4.72413 4.13268 4.67388C4.25401 4.62362 4.36425 4.54997 4.45711 4.45711C4.54997 4.36425 4.62362 4.25401 4.67388 4.13268C4.72413 4.01136 4.75 3.88132 4.75 3.75V2C4.75 1.73478 4.64464 1.48043 4.45711 1.29289C4.26957 1.10536 4.01522 1 3.75 1ZM3.75 7.25H2C1.73478 7.25 1.48043 7.35536 1.29289 7.54289C1.10536 7.73043 1 7.98478 1 8.25V10C1 10.2652 1.10536 10.5196 1.29289 10.7071C1.48043 10.8946 1.73478 11 2 11H3.75C4.01522 11 4.26957 10.8946 4.45711 10.7071C4.64464 10.5196 4.75 10.2652 4.75 10V8.25C4.75 7.98478 4.64464 7.73043 4.45711 7.54289C4.26957 7.35536 4.01522 7.25 3.75 7.25ZM10 1H8.25C7.98478 1 7.73043 1.10536 7.54289 1.29289C7.35536 1.48043 7.25 1.73478 7.25 2V3.75C7.25 4.01522 7.35536 4.26957 7.54289 4.45711C7.73043 4.64464 7.98478 4.75 8.25 4.75H10C10.2652 4.75 10.5196 4.64464 10.7071 4.45711C10.8946 4.26957 11 4.01522 11 3.75V2C11 1.73478 10.8946 1.48043 10.7071 1.29289C10.5196 1.10536 10.2652 1 10 1ZM10 7.25H8.25C7.98478 7.25 7.73043 7.35536 7.54289 7.54289C7.35536 7.73043 7.25 7.98478 7.25 8.25V10C7.25 10.2652 7.35536 10.5196 7.54289 10.7071C7.73043 10.8946 7.98478 11 8.25 11H10C10.2652 11 10.5196 10.8946 10.7071 10.7071C10.8946 10.5196 11 10.2652 11 10V8.25C11 7.98478 10.8946 7.73043 10.7071 7.54289C10.5196 7.35536 10.2652 7.25 10 7.25Z" stroke="black" stroke-miterlimit="10" stroke-linejoin="round"/>
</svg>
