<svg width="20" height="20" viewBox="0 0 20 20" fill="none" xmlns="http://www.w3.org/2000/svg">
<path fill-rule="evenodd" clip-rule="evenodd" d="M10 20C4.477 20 0 15.523 0 10C0 4.477 4.477 0 10 0C15.523 0 20 4.477 20 10C20 15.523 15.523 20 10 20ZM10 18.8C12.3339 18.8 14.5722 17.8729 16.2225 16.2225C17.8729 14.5722 18.8 12.3339 18.8 10C18.8 7.66609 17.8729 5.42778 16.2225 3.77746C14.5722 2.12714 12.3339 1.2 10 1.2C7.66609 1.2 5.42778 2.12714 3.77746 3.77746C2.12714 5.42778 1.2 7.66609 1.2 10C1.2 12.3339 2.12714 14.5722 3.77746 16.2225C5.42778 17.8729 7.66609 18.8 10 18.8ZM7 7.707C7.077 6.2 8.081 5 10.042 5C11.8 5 13 6.088 13 7.526C13 8.621 12.435 9.396 11.542 9.933C10.656 10.456 10.405 10.847 10.405 11.579V12.033H9.184V11.391C9.177 10.47 9.624 9.841 10.579 9.27C11.389 8.774 11.702 8.335 11.702 7.588C11.702 6.723 11.032 6.088 9.993 6.088C8.94 6.088 8.27 6.709 8.193 7.707H7ZM9.798 15.214C9.69318 15.2153 9.58915 15.1957 9.49204 15.1562C9.39492 15.1168 9.30668 15.0583 9.23251 14.9842C9.15834 14.9101 9.09974 14.822 9.06015 14.7249C9.02056 14.6278 9.00079 14.5238 9.002 14.419C9.002 13.965 9.352 13.623 9.798 13.623C10.251 13.623 10.593 13.965 10.593 14.419C10.595 14.524 10.5759 14.6283 10.5366 14.7256C10.4974 14.823 10.4389 14.9115 10.3647 14.9857C10.2905 15.0599 10.202 15.1184 10.1046 15.1576C10.0073 15.1969 9.90296 15.216 9.798 15.214Z" fill="white"/>
</svg>
