<svg width="19" height="20" viewBox="0 0 19 20" fill="none" xmlns="http://www.w3.org/2000/svg">
<path d="M14.9332 19.715H9.97747C9.81585 19.715 9.68506 19.584 9.68506 19.4226C9.68506 19.2611 9.81585 19.1301 9.97747 19.1301H14.9332C15.7825 19.1301 16.4736 18.4391 16.4736 17.5896V16.994C16.4736 16.8325 16.6044 16.7015 16.766 16.7015C16.9277 16.7015 17.0584 16.8325 17.0584 16.994V17.5896C17.0584 18.7616 16.1052 19.715 14.9332 19.715Z" fill="white" stroke="white" stroke-width="0.2"/>
<path d="M16.7658 12.2274C16.6042 12.2274 16.4734 12.0964 16.4734 11.935V8.33867C16.4734 4.61458 13.4438 1.58483 9.71968 1.58483C5.99559 1.58483 2.96569 4.61458 2.96569 8.33867V11.935C2.96569 12.0964 2.8349 12.2274 2.67327 12.2274C2.51165 12.2274 2.38086 12.0964 2.38086 11.935V8.33867C2.38086 4.29217 5.67318 1 9.71968 1C13.7662 1 17.0582 4.29217 17.0582 8.33867V11.935C17.0582 12.0964 16.9274 12.2274 16.7658 12.2274Z" fill="white" stroke="white" stroke-width="0.2"/>
<path d="M2.67343 17.2864C1.75076 17.2864 1 16.5356 1 15.6129V13.316C1 12.3933 1.75076 11.6425 2.67343 11.6425C3.59637 11.6425 4.34716 12.3933 4.34716 13.316V15.6129C4.34712 16.5356 3.59637 17.2864 2.67343 17.2864ZM2.67343 12.2274C2.07316 12.2274 1.58483 12.7157 1.58483 13.316V15.6129C1.58483 16.2132 2.07316 16.7015 2.67343 16.7015C3.27369 16.7015 3.76229 16.2132 3.76229 15.6129V13.316C3.76229 12.7157 3.27369 12.2274 2.67343 12.2274Z" fill="white" stroke="white" stroke-width="0.2"/>
<path d="M16.7662 17.2864C15.8435 17.2864 15.0928 16.5356 15.0928 15.6129V13.316C15.0928 12.3933 15.8435 11.6425 16.7662 11.6425C17.6889 11.6425 18.4396 12.3933 18.4396 13.316V15.6129C18.4396 16.5356 17.6889 17.2864 16.7662 17.2864ZM16.7662 12.2274C16.1659 12.2274 15.6776 12.7157 15.6776 13.316V15.6129C15.6776 16.2132 16.1659 16.7015 16.7662 16.7015C17.3665 16.7015 17.8548 16.2132 17.8548 15.6129V13.316C17.8548 12.7157 17.3665 12.2274 16.7662 12.2274Z" fill="white" stroke="white" stroke-width="0.2"/>
<path d="M9.72158 17.619C9.40631 17.619 9.11701 17.4614 8.9474 17.1972L8.07699 15.8496C6.67397 15.205 5.77246 13.8038 5.77246 12.2552C5.77246 9.70521 7.70205 8.45299 9.49486 8.36859C11.3939 8.27962 13.4237 9.45519 13.6516 11.874L13.6519 11.8741C13.8101 13.5628 12.8931 15.1487 11.3631 15.8498L10.4952 17.1977C10.3261 17.4612 10.0369 17.619 9.72188 17.619C9.72158 17.619 9.72158 17.619 9.72158 17.619ZM9.70015 8.94862C9.64048 8.94862 9.58134 8.95004 9.52224 8.95292C7.94704 9.02703 6.35729 10.0769 6.35729 12.2552C6.35729 13.6007 7.15574 14.8152 8.39141 15.3496C8.44451 15.3726 8.48963 15.4107 8.52104 15.4594L9.43915 16.8807C9.50197 16.9785 9.60476 17.0342 9.72158 17.0342C9.83839 17.0342 9.94088 16.9785 10.0032 16.8816L10.9187 15.4597C10.9501 15.4109 10.9955 15.3725 11.0489 15.3495C12.3948 14.7691 13.2067 13.3944 13.0693 11.9287C12.8742 9.86 11.2202 8.94862 9.70015 8.94862Z" fill="white" stroke="white" stroke-width="0.2"/>
<path d="M10.051 11.7345H9.38909C9.22747 11.7345 9.09668 11.6035 9.09668 11.4421C9.09668 11.2806 9.22747 11.1497 9.38909 11.1497H10.051C10.2127 11.1497 10.3434 11.2806 10.3434 11.4421C10.3434 11.6035 10.2127 11.7345 10.051 11.7345Z" fill="white" stroke="white" stroke-width="0.2"/>
<path d="M10.813 13.0124H8.6264C8.46477 13.0124 8.33398 12.8814 8.33398 12.72C8.33398 12.5585 8.46477 12.4276 8.6264 12.4276H10.813C10.9746 12.4276 11.1054 12.5585 11.1054 12.72C11.1055 12.8814 10.9747 13.0124 10.813 13.0124Z" fill="white" stroke="white" stroke-width="0.2"/>
</svg>
