<svg width="16" height="16" viewBox="0 0 16 16" fill="none" xmlns="http://www.w3.org/2000/svg">
<path d="M12.2669 15.9332H3.73356C1.73356 15.9332 0.0668945 14.2666 0.0668945 12.2666V6.7999C0.0668945 5.7999 0.666895 4.53323 1.46689 3.93323L5.46689 0.799901C6.66689 -0.133432 8.60023 -0.200099 9.80023 0.666568L14.4002 3.86657C15.2669 4.46657 16.0002 5.7999 16.0002 6.86657V12.2666C15.9336 14.3332 14.3336 15.9332 12.2669 15.9332ZM6.13356 1.66657L2.13356 4.7999C1.60023 5.1999 1.13356 6.13323 1.13356 6.7999V12.2666C1.13356 13.6666 2.26689 14.8666 3.66689 14.8666H12.2669C13.6669 14.8666 14.8002 13.7332 14.8002 12.3332V6.93323C14.8002 6.1999 14.2669 5.26657 13.7336 4.86657L9.13356 1.66657C8.33356 0.999901 6.93356 0.999901 6.13356 1.66657Z" fill="white"/>
</svg>
