<svg width="14" height="14" viewBox="0 0 14 14" fill="none" xmlns="http://www.w3.org/2000/svg">
<path d="M12.0418 14H1.95815C1.43882 14 0.940754 13.7937 0.573529 13.4265C0.206305 13.0592 0 12.5612 0 12.0418V1.95815C0 1.43882 0.206305 0.940754 0.573529 0.573529C0.940754 0.206305 1.43882 0 1.95815 0H12.0418C12.5612 0 13.0592 0.206305 13.4265 0.573529C13.7937 0.940754 14 1.43882 14 1.95815V12.0418C14 12.5612 13.7937 13.0592 13.4265 13.4265C13.0592 13.7937 12.5612 14 12.0418 14ZM1.95815 0.783261C1.64655 0.783261 1.34771 0.907043 1.12738 1.12738C0.907043 1.34771 0.78326 1.64655 0.78326 1.95815V12.0418C0.78326 12.3534 0.907043 12.6523 1.12738 12.8726C1.34771 13.093 1.64655 13.2167 1.95815 13.2167H12.0418C12.3534 13.2167 12.6523 13.093 12.8726 12.8726C13.093 12.6523 13.2167 12.3534 13.2167 12.0418V1.95815C13.2167 1.64655 13.093 1.34771 12.8726 1.12738C12.6523 0.907043 12.3534 0.783261 12.0418 0.783261H1.95815Z" fill="black"/>
<path d="M2.41924 3.84924C2.30835 3.84722 2.20238 3.80267 2.12285 3.72465C2.04415 3.64518 1.99993 3.53741 1.99993 3.42504C1.99993 3.31268 2.04415 3.20491 2.12285 3.12544C2.20153 3.04622 2.30811 3.00172 2.41924 3.00169H3.26392C3.37469 3.00349 3.48064 3.04773 3.56031 3.12544C3.59942 3.16479 3.63046 3.21155 3.65164 3.26304C3.67282 3.31452 3.68372 3.36972 3.68374 3.42547C3.68374 3.53786 3.63951 3.64565 3.56077 3.72512C3.48204 3.8046 3.37526 3.84924 3.26392 3.84924H2.41924ZM2.41924 7.42335C2.30847 7.42155 2.20252 7.37732 2.12285 7.29961C2.08375 7.26024 2.05273 7.21348 2.03157 7.16199C2.01041 7.11051 1.99951 7.05532 1.99951 6.99958C1.99951 6.94384 2.01041 6.88864 2.03157 6.83716C2.05273 6.78567 2.08375 6.73891 2.12285 6.69954C2.20252 6.62183 2.30847 6.5776 2.41924 6.5758H3.26392C3.37469 6.5776 3.48064 6.62183 3.56031 6.69954C3.59941 6.73891 3.63042 6.78567 3.65159 6.83716C3.67275 6.88864 3.68365 6.94384 3.68365 6.99958C3.68365 7.05532 3.67275 7.11051 3.65159 7.16199C3.63042 7.21348 3.59941 7.26024 3.56031 7.29961C3.48064 7.37732 3.37469 7.42155 3.26392 7.42335H2.41924ZM2.41924 11C2.30835 10.998 2.20238 10.9534 2.12285 10.8754C2.04415 10.7959 1.99993 10.6882 1.99993 10.5758C1.99993 10.4634 2.04415 10.3557 2.12285 10.2762C2.20252 10.1985 2.30847 10.1542 2.41924 10.1525H3.26392C3.37469 10.1542 3.48064 10.1985 3.56031 10.2762C3.59942 10.3156 3.63046 10.3623 3.65164 10.4138C3.67282 10.4653 3.68372 10.5205 3.68374 10.5762C3.68374 10.6886 3.63951 10.7964 3.56077 10.8759C3.48204 10.9554 3.37526 11 3.26392 11H2.41924ZM5.78619 3.84755C5.67485 3.84755 5.56806 3.8029 5.48933 3.72343C5.4106 3.64395 5.36637 3.53617 5.36637 3.42377C5.36637 3.31138 5.4106 3.20359 5.48933 3.12412C5.56806 3.04465 5.67485 3 5.78619 3H11.5797C11.691 3 11.7978 3.04465 11.8766 3.12412C11.9553 3.20359 11.9995 3.31138 11.9995 3.42377C11.9995 3.53617 11.9553 3.64395 11.8766 3.72343C11.7978 3.8029 11.691 3.84755 11.5797 3.84755H5.78619ZM5.78619 7.42335C5.67485 7.42335 5.56806 7.3787 5.48933 7.29923C5.4106 7.21976 5.36637 7.11197 5.36637 6.99958C5.36637 6.88718 5.4106 6.7794 5.48933 6.69992C5.56806 6.62045 5.67485 6.5758 5.78619 6.5758H11.5797C11.691 6.5758 11.7978 6.62045 11.8766 6.69992C11.9553 6.7794 11.9995 6.88718 11.9995 6.99958C11.9995 7.11197 11.9553 7.21976 11.8766 7.29923C11.7978 7.3787 11.691 7.42335 11.5797 7.42335H5.78619ZM5.78619 10.9983C5.67485 10.9983 5.56806 10.9537 5.48933 10.8742C5.4106 10.7947 5.36637 10.6869 5.36637 10.5745C5.36637 10.4621 5.4106 10.3544 5.48933 10.2749C5.56806 10.1954 5.67485 10.1508 5.78619 10.1508H11.5797C11.691 10.1508 11.7978 10.1954 11.8766 10.2749C11.9553 10.3544 11.9995 10.4621 11.9995 10.5745C11.9995 10.6869 11.9553 10.7947 11.8766 10.8742C11.7978 10.9537 11.691 10.9983 11.5797 10.9983H5.78619Z" fill="black"/>
</svg>
