<svg width="9" height="16" viewBox="0 0 9 16" fill="none" xmlns="http://www.w3.org/2000/svg">
<path d="M4.3269 15.4909C1.899 15.4909 0 14.61 0 13.4905C0 12.6613 1.01809 11.9633 2.63671 11.6472V11.6492C2.77591 11.6233 2.90913 11.7128 2.93697 11.852C2.96282 11.9892 2.87135 12.1204 2.73414 12.1463C1.42574 12.3948 0.509047 12.9456 0.509047 13.4905C0.509047 14.1983 2.07595 14.9818 4.3269 14.9818C6.57786 14.9818 8.14476 14.1983 8.14476 13.4905C8.14476 12.9814 7.33547 12.4724 6.10857 12.192C5.97136 12.1602 5.88586 12.025 5.91568 11.8878C5.9296 11.8201 5.96937 11.7625 6.02704 11.7267C6.0847 11.6909 6.1543 11.679 6.21992 11.6949C7.74706 12.025 8.63194 12.713 8.63194 13.4924C8.65381 14.6159 6.7548 15.4909 4.3269 15.4909Z" fill="#9CA3AF"/>
<path d="M4.32751 13.5163C3.97953 13.5163 3.64945 13.3592 3.43072 13.0888C2.22967 11.6014 0.193482 8.61471 0.0205078 5.27032V4.83285C0.0224967 3.57815 0.569312 2.38902 1.51583 1.56777C2.46236 0.746525 3.71706 0.376702 4.95786 0.551661C6.53871 0.792268 7.85902 1.87798 8.39988 3.38125C8.6206 3.98773 8.70213 4.63397 8.6385 5.2743C8.4655 8.61293 6.42934 11.6018 5.22829 13.0892C5.00956 13.3616 4.67748 13.5183 4.32751 13.5163ZM4.32751 1.0146C3.40486 1.01062 2.51402 1.34667 1.82202 1.95517C0.992838 2.68097 0.517592 3.72889 0.515607 4.83245C0.507653 4.96369 0.507653 5.09692 0.515607 5.22816C0.67866 8.43953 2.6532 11.3367 3.81449 12.7666L3.8125 12.7686C3.93777 12.9217 4.12469 13.0092 4.32155 13.0092C4.52039 13.0092 4.70731 12.9217 4.83059 12.7686C5.99183 11.329 7.96643 8.44172 8.12947 5.2444C8.19111 4.67768 8.11953 4.105 7.92068 3.57009C7.44146 2.23781 6.26826 1.27739 4.8664 1.07057C4.68942 1.03875 4.50846 1.02057 4.32751 1.0146Z" fill="#9CA3AF"/>
<path d="M5.69677 6.53267H2.95667C2.81748 6.53267 2.70215 6.41734 2.70215 6.27814V4.43483C2.70215 4.36524 2.72999 4.29962 2.7797 4.25189L4.14776 2.9077C4.24718 2.81027 4.40626 2.81027 4.50568 2.9077L5.85384 4.23601C5.90356 4.28572 5.92941 4.35134 5.92941 4.41895V6.27814C5.93139 6.41137 5.82801 6.52074 5.69677 6.53267ZM3.21318 6.02362H5.44225V4.52631L4.32672 3.44657L3.2112 4.52631L3.21318 6.02362Z" fill="#9CA3AF"/>
</svg>
