<svg width="34" height="31" viewBox="0 0 34 31" fill="none" xmlns="http://www.w3.org/2000/svg">
<path d="M33.4331 3.78928C32.9848 3.18624 32.3628 2.79617 31.6371 2.72426L25.2486 1.80168L12.9188 0.0270973C11.4337 -0.185908 10.0524 0.879104 9.81002 2.43932L9.70635 3.14888L6.21795 3.25538C4.73291 3.32592 3.59388 4.56799 3.59388 6.05767L2.24753 6.30664C0.762485 6.55561 -0.20421 7.97471 0.0367832 9.53493L3.28288 28.6943C3.49022 30.0774 4.62923 31 5.97696 31C6.11563 31 6.28797 31 6.46029 30.964L24.3845 27.7357L25.9045 27.6998C26.3529 27.6638 26.8026 27.5227 27.1473 27.3097L28.2526 27.4522C28.3913 27.4881 28.5286 27.4881 28.6673 27.4881C29.2193 27.4881 29.7726 27.3111 30.256 26.9556C30.843 26.495 31.2577 25.8201 31.3614 25.0745L33.9854 5.84437C34.0541 5.13619 33.8818 4.39204 33.4334 3.78899L33.4331 3.78928ZM12.5038 0.879104C12.6074 0.879104 12.6761 0.879104 12.7798 0.915065L24.695 2.61773L23.5546 10.885V10.9209V10.9569L21.5512 25.6459L9.63599 23.9432C9.15266 23.8727 8.70297 23.6237 8.39328 23.1977C8.08227 22.7717 7.97861 22.2751 8.0136 21.7786L10.6377 2.54841C10.8114 1.55392 11.5707 0.879104 12.5038 0.879104ZM6.21767 4.10878L9.56744 4.00227L7.14938 21.6001C7.04571 22.3456 7.25305 23.0898 7.66773 23.6928C8.11607 24.2959 8.7381 24.6859 9.46377 24.7579L23.9344 26.8506L6.97835 27.3831C5.94166 27.4191 5.07864 26.603 5.04496 25.538L4.45796 6.09501C4.42295 5.02998 5.18231 4.17931 6.21767 4.10878ZM6.28768 30.1148C5.25098 30.2918 4.28428 29.6182 4.11195 28.5532L0.865851 9.39383C0.693517 8.3288 1.34918 7.33569 2.38591 7.15865L3.59494 6.94564L4.14697 25.6086C4.21563 27.1342 5.42466 28.3043 6.9097 28.3043H6.97837L18.3066 27.9489L6.28768 30.1148ZM30.4966 24.9709C30.4279 25.5035 30.1506 25.9641 29.7372 26.2476C29.3226 26.5671 28.8392 26.6736 28.3559 26.6031L22.3807 25.7511L24.3491 11.488L32.1889 12.6236L30.4966 24.9709ZM33.122 5.73971L32.2927 11.7358L24.4528 10.6003L25.5232 2.72323L31.4984 3.57665C31.9817 3.6472 32.4314 3.89616 32.7411 4.32219C33.0534 4.74681 33.1907 5.24317 33.122 5.73971Z" fill="white"/>
</svg>
