<svg width="16" height="19" viewBox="0 0 16 19" fill="none" xmlns="http://www.w3.org/2000/svg">
<path fill-rule="evenodd" clip-rule="evenodd" d="M2.9999 1.6C2.2267 1.6 1.5999 2.2268 1.5999 3V16C1.5999 16.7732 2.2267 17.4 2.9999 17.4H12.9999C13.7731 17.4 14.3999 16.7732 14.3999 16V3C14.3999 2.2268 13.7731 1.6 12.9999 1.6H2.9999ZM0.399902 3C0.399902 1.56406 1.56396 0.400002 2.9999 0.400002H12.9999C14.4358 0.400002 15.5999 1.56406 15.5999 3V16C15.5999 17.4359 14.4358 18.6 12.9999 18.6H2.9999C1.56396 18.6 0.399902 17.4359 0.399902 16V3Z" fill="white"/>
<path fill-rule="evenodd" clip-rule="evenodd" d="M4.3999 6C4.3999 5.66863 4.66853 5.4 4.9999 5.4H10.9999C11.3313 5.4 11.5999 5.66863 11.5999 6C11.5999 6.33137 11.3313 6.6 10.9999 6.6H4.9999C4.66853 6.6 4.3999 6.33137 4.3999 6ZM4.3999 10C4.3999 9.66863 4.66853 9.4 4.9999 9.4H10.9999C11.3313 9.4 11.5999 9.66863 11.5999 10C11.5999 10.3314 11.3313 10.6 10.9999 10.6H4.9999C4.66853 10.6 4.3999 10.3314 4.3999 10ZM4.3999 14C4.3999 13.6686 4.66853 13.4 4.9999 13.4H8.9999C9.33127 13.4 9.5999 13.6686 9.5999 14C9.5999 14.3314 9.33127 14.6 8.9999 14.6H4.9999C4.66853 14.6 4.3999 14.3314 4.3999 14Z" fill="white"/>
</svg>
