<svg width="16" height="16" viewBox="0 0 16 16" fill="none" xmlns="http://www.w3.org/2000/svg">
<g clip-path="url(#clip0_608_977)">
<path d="M3.5157 6.6009C2.9417 6.6009 2.51121 7.10314 2.51121 7.60538C2.51121 8.17937 3.01345 8.60987 3.5157 8.60987C4.08969 8.60987 4.52018 8.10762 4.52018 7.60538C4.52018 7.03139 4.01794 6.6009 3.5157 6.6009ZM5.95516 3.30045C5.38117 3.30045 4.95067 3.80269 4.95067 4.30493C4.95067 4.87892 5.45291 5.30942 5.95516 5.30942C6.4574 5.30942 6.95964 4.87892 6.95964 4.30493C6.95964 3.80269 6.4574 3.30045 5.95516 3.30045ZM10.0448 3.30045C9.5426 3.30045 9.04036 3.80269 9.04036 4.30493C9.04036 4.87892 9.5426 5.30942 10.0448 5.30942C10.6188 5.30942 11.0493 4.80718 11.0493 4.30493C11.0493 3.80269 10.6188 3.30045 10.0448 3.30045ZM12.5561 6.6009C12.0538 6.6009 11.5516 7.10314 11.5516 7.60538C11.5516 8.17937 12.0538 8.60987 12.5561 8.60987C13.13 8.60987 13.5605 8.10762 13.5605 7.60538C13.5605 7.03139 13.0583 6.6009 12.5561 6.6009ZM12.5561 6.6009C12.0538 6.6009 11.5516 7.10314 11.5516 7.60538C11.5516 8.17937 12.0538 8.60987 12.5561 8.60987C13.13 8.60987 13.5605 8.10762 13.5605 7.60538C13.5605 7.03139 13.0583 6.6009 12.5561 6.6009ZM10.0448 3.30045C9.5426 3.30045 9.04036 3.80269 9.04036 4.30493C9.04036 4.87892 9.5426 5.30942 10.0448 5.30942C10.6188 5.30942 11.0493 4.80718 11.0493 4.30493C11.0493 3.80269 10.6188 3.30045 10.0448 3.30045ZM5.95516 3.30045C5.38117 3.30045 4.95067 3.80269 4.95067 4.30493C4.95067 4.87892 5.45291 5.30942 5.95516 5.30942C6.4574 5.30942 6.95964 4.87892 6.95964 4.30493C6.95964 3.80269 6.4574 3.30045 5.95516 3.30045ZM3.5157 6.6009C2.9417 6.6009 2.51121 7.10314 2.51121 7.60538C2.51121 8.17937 3.01345 8.60987 3.5157 8.60987C4.08969 8.60987 4.52018 8.10762 4.52018 7.60538C4.52018 7.03139 4.01794 6.6009 3.5157 6.6009ZM3.5157 6.6009C2.9417 6.6009 2.51121 7.10314 2.51121 7.60538C2.51121 8.17937 3.01345 8.60987 3.5157 8.60987C4.08969 8.60987 4.52018 8.10762 4.52018 7.60538C4.52018 7.03139 4.01794 6.6009 3.5157 6.6009ZM5.95516 3.30045C5.38117 3.30045 4.95067 3.80269 4.95067 4.30493C4.95067 4.87892 5.45291 5.30942 5.95516 5.30942C6.4574 5.30942 6.95964 4.87892 6.95964 4.30493C6.95964 3.80269 6.4574 3.30045 5.95516 3.30045ZM10.0448 3.30045C9.5426 3.30045 9.04036 3.80269 9.04036 4.30493C9.04036 4.87892 9.5426 5.30942 10.0448 5.30942C10.6188 5.30942 11.0493 4.80718 11.0493 4.30493C11.0493 3.80269 10.6188 3.30045 10.0448 3.30045ZM12.5561 6.6009C12.0538 6.6009 11.5516 7.10314 11.5516 7.60538C11.5516 8.17937 12.0538 8.60987 12.5561 8.60987C13.13 8.60987 13.5605 8.10762 13.5605 7.60538C13.5605 7.03139 13.0583 6.6009 12.5561 6.6009ZM12.5561 6.6009C12.0538 6.6009 11.5516 7.10314 11.5516 7.60538C11.5516 8.17937 12.0538 8.60987 12.5561 8.60987C13.13 8.60987 13.5605 8.10762 13.5605 7.60538C13.5605 7.03139 13.0583 6.6009 12.5561 6.6009ZM10.0448 3.30045C9.5426 3.30045 9.04036 3.80269 9.04036 4.30493C9.04036 4.87892 9.5426 5.30942 10.0448 5.30942C10.6188 5.30942 11.0493 4.80718 11.0493 4.30493C11.0493 3.80269 10.6188 3.30045 10.0448 3.30045ZM5.95516 3.30045C5.38117 3.30045 4.95067 3.80269 4.95067 4.30493C4.95067 4.87892 5.45291 5.30942 5.95516 5.30942C6.4574 5.30942 6.95964 4.87892 6.95964 4.30493C6.95964 3.80269 6.4574 3.30045 5.95516 3.30045ZM3.5157 6.6009C2.9417 6.6009 2.51121 7.10314 2.51121 7.60538C2.51121 8.17937 3.01345 8.60987 3.5157 8.60987C4.08969 8.60987 4.52018 8.10762 4.52018 7.60538C4.52018 7.03139 4.01794 6.6009 3.5157 6.6009ZM3.5157 6.6009C2.9417 6.6009 2.51121 7.10314 2.51121 7.60538C2.51121 8.17937 3.01345 8.60987 3.5157 8.60987C4.08969 8.60987 4.52018 8.10762 4.52018 7.60538C4.52018 7.03139 4.01794 6.6009 3.5157 6.6009ZM5.95516 3.30045C5.38117 3.30045 4.95067 3.80269 4.95067 4.30493C4.95067 4.87892 5.45291 5.30942 5.95516 5.30942C6.4574 5.30942 6.95964 4.87892 6.95964 4.30493C6.95964 3.80269 6.4574 3.30045 5.95516 3.30045ZM10.0448 3.30045C9.5426 3.30045 9.04036 3.80269 9.04036 4.30493C9.04036 4.87892 9.5426 5.30942 10.0448 5.30942C10.6188 5.30942 11.0493 4.80718 11.0493 4.30493C11.0493 3.80269 10.6188 3.30045 10.0448 3.30045ZM12.5561 6.6009C12.0538 6.6009 11.5516 7.10314 11.5516 7.60538C11.5516 8.17937 12.0538 8.60987 12.5561 8.60987C13.13 8.60987 13.5605 8.10762 13.5605 7.60538C13.5605 7.03139 13.0583 6.6009 12.5561 6.6009ZM12.5561 6.6009C12.0538 6.6009 11.5516 7.10314 11.5516 7.60538C11.5516 8.17937 12.0538 8.60987 12.5561 8.60987C13.13 8.60987 13.5605 8.10762 13.5605 7.60538C13.5605 7.03139 13.0583 6.6009 12.5561 6.6009ZM10.0448 3.30045C9.5426 3.30045 9.04036 3.80269 9.04036 4.30493C9.04036 4.87892 9.5426 5.30942 10.0448 5.30942C10.6188 5.30942 11.0493 4.80718 11.0493 4.30493C11.0493 3.80269 10.6188 3.30045 10.0448 3.30045ZM5.95516 3.30045C5.38117 3.30045 4.95067 3.80269 4.95067 4.30493C4.95067 4.87892 5.45291 5.30942 5.95516 5.30942C6.4574 5.30942 6.95964 4.87892 6.95964 4.30493C6.95964 3.80269 6.4574 3.30045 5.95516 3.30045ZM3.5157 6.6009C2.9417 6.6009 2.51121 7.10314 2.51121 7.60538C2.51121 8.17937 3.01345 8.60987 3.5157 8.60987C4.08969 8.60987 4.52018 8.10762 4.52018 7.60538C4.52018 7.03139 4.01794 6.6009 3.5157 6.6009ZM3.5157 6.6009C2.9417 6.6009 2.51121 7.10314 2.51121 7.60538C2.51121 8.17937 3.01345 8.60987 3.5157 8.60987C4.08969 8.60987 4.52018 8.10762 4.52018 7.60538C4.52018 7.03139 4.01794 6.6009 3.5157 6.6009ZM5.95516 3.30045C5.38117 3.30045 4.95067 3.80269 4.95067 4.30493C4.95067 4.87892 5.45291 5.30942 5.95516 5.30942C6.4574 5.30942 6.95964 4.87892 6.95964 4.30493C6.95964 3.80269 6.4574 3.30045 5.95516 3.30045ZM10.0448 3.30045C9.5426 3.30045 9.04036 3.80269 9.04036 4.30493C9.04036 4.87892 9.5426 5.30942 10.0448 5.30942C10.6188 5.30942 11.0493 4.80718 11.0493 4.30493C11.0493 3.80269 10.6188 3.30045 10.0448 3.30045ZM12.5561 6.6009C12.0538 6.6009 11.5516 7.10314 11.5516 7.60538C11.5516 8.17937 12.0538 8.60987 12.5561 8.60987C13.13 8.60987 13.5605 8.10762 13.5605 7.60538C13.5605 7.03139 13.0583 6.6009 12.5561 6.6009ZM12.5561 6.6009C12.0538 6.6009 11.5516 7.10314 11.5516 7.60538C11.5516 8.17937 12.0538 8.60987 12.5561 8.60987C13.13 8.60987 13.5605 8.10762 13.5605 7.60538C13.5605 7.03139 13.0583 6.6009 12.5561 6.6009ZM10.0448 3.30045C9.5426 3.30045 9.04036 3.80269 9.04036 4.30493C9.04036 4.87892 9.5426 5.30942 10.0448 5.30942C10.6188 5.30942 11.0493 4.80718 11.0493 4.30493C11.0493 3.80269 10.6188 3.30045 10.0448 3.30045ZM5.95516 3.30045C5.38117 3.30045 4.95067 3.80269 4.95067 4.30493C4.95067 4.87892 5.45291 5.30942 5.95516 5.30942C6.4574 5.30942 6.95964 4.87892 6.95964 4.30493C6.95964 3.80269 6.4574 3.30045 5.95516 3.30045ZM3.5157 6.6009C2.9417 6.6009 2.51121 7.10314 2.51121 7.60538C2.51121 8.17937 3.01345 8.60987 3.5157 8.60987C4.08969 8.60987 4.52018 8.10762 4.52018 7.60538C4.52018 7.03139 4.01794 6.6009 3.5157 6.6009ZM8.03587 0C5.88341 0 3.87444 0.860987 2.36771 2.36771C0.860987 3.87444 0 5.88341 0 8.03587C0 10.1883 0.860987 12.1973 2.36771 13.704C3.0852 14.4215 4.01794 14.9955 4.95067 15.426C5.95516 15.8565 6.95964 16 8.03587 16C8.53812 16 9.04036 15.7848 9.32735 15.426C9.61435 15.0673 9.8296 14.6368 9.75785 14.1345C9.75785 13.6323 9.61435 13.2018 9.32735 12.8431L9.2556 12.7713V12.6996C9.2556 12.6996 9.2556 12.6996 9.2556 12.6278C9.2556 12.5561 9.18386 12.4843 9.18386 12.4126C9.18386 12.1973 9.25561 12.0538 9.3991 11.9821C9.5426 11.8386 9.6861 11.7668 9.8296 11.7668H11.3363C12.6278 11.7668 13.7758 11.2646 14.7085 10.4036C15.5695 9.5426 16.0717 8.32287 16.0717 7.10314C16 3.2287 12.4126 0 8.03587 0ZM13.7758 9.6861C13.13 10.3318 12.1973 10.6906 11.2646 10.6906H9.8296C8.82511 10.6906 7.96413 11.4798 7.96413 12.5561C7.96413 12.9865 8.10762 13.3453 8.39462 13.704L8.46637 13.7758V13.9193C8.46637 13.991 8.53812 14.0628 8.53812 14.2063C8.53812 14.4215 8.46637 14.565 8.32287 14.6368C8.17937 14.7803 8.03587 14.852 7.89238 14.852C6.09865 14.852 4.37668 14.1345 3.0852 12.8431C1.79372 11.5516 1.07623 9.8296 1.07623 8.03587C1.07623 6.24215 1.79372 4.52018 3.0852 3.2287C4.37668 1.93722 6.09865 1.21973 7.89238 1.21973C11.6233 1.21973 14.7085 3.87444 14.7085 7.17489C14.852 8.10762 14.4933 9.04036 13.7758 9.6861ZM12.5561 6.6009C12.0538 6.6009 11.5516 7.10314 11.5516 7.60538C11.5516 8.17937 12.0538 8.60987 12.5561 8.60987C13.13 8.60987 13.5605 8.10762 13.5605 7.60538C13.5605 7.03139 13.0583 6.6009 12.5561 6.6009ZM10.0448 3.30045C9.5426 3.30045 9.04036 3.80269 9.04036 4.30493C9.04036 4.87892 9.5426 5.30942 10.0448 5.30942C10.6188 5.30942 11.0493 4.80718 11.0493 4.30493C11.0493 3.80269 10.6188 3.30045 10.0448 3.30045ZM5.95516 3.30045C5.38117 3.30045 4.95067 3.80269 4.95067 4.30493C4.95067 4.87892 5.45291 5.30942 5.95516 5.30942C6.4574 5.30942 6.95964 4.87892 6.95964 4.30493C6.95964 3.80269 6.4574 3.30045 5.95516 3.30045ZM3.5157 6.6009C2.9417 6.6009 2.51121 7.10314 2.51121 7.60538C2.51121 8.17937 3.01345 8.60987 3.5157 8.60987C4.08969 8.60987 4.52018 8.10762 4.52018 7.60538C4.52018 7.03139 4.01794 6.6009 3.5157 6.6009ZM3.5157 6.6009C2.9417 6.6009 2.51121 7.10314 2.51121 7.60538C2.51121 8.17937 3.01345 8.60987 3.5157 8.60987C4.08969 8.60987 4.52018 8.10762 4.52018 7.60538C4.52018 7.03139 4.01794 6.6009 3.5157 6.6009ZM5.95516 3.30045C5.38117 3.30045 4.95067 3.80269 4.95067 4.30493C4.95067 4.87892 5.45291 5.30942 5.95516 5.30942C6.4574 5.30942 6.95964 4.87892 6.95964 4.30493C6.95964 3.80269 6.4574 3.30045 5.95516 3.30045ZM10.0448 3.30045C9.5426 3.30045 9.04036 3.80269 9.04036 4.30493C9.04036 4.87892 9.5426 5.30942 10.0448 5.30942C10.6188 5.30942 11.0493 4.80718 11.0493 4.30493C11.0493 3.80269 10.6188 3.30045 10.0448 3.30045ZM12.5561 6.6009C12.0538 6.6009 11.5516 7.10314 11.5516 7.60538C11.5516 8.17937 12.0538 8.60987 12.5561 8.60987C13.13 8.60987 13.5605 8.10762 13.5605 7.60538C13.5605 7.03139 13.0583 6.6009 12.5561 6.6009ZM12.5561 6.6009C12.0538 6.6009 11.5516 7.10314 11.5516 7.60538C11.5516 8.17937 12.0538 8.60987 12.5561 8.60987C13.13 8.60987 13.5605 8.10762 13.5605 7.60538C13.5605 7.03139 13.0583 6.6009 12.5561 6.6009ZM10.0448 3.30045C9.5426 3.30045 9.04036 3.80269 9.04036 4.30493C9.04036 4.87892 9.5426 5.30942 10.0448 5.30942C10.6188 5.30942 11.0493 4.80718 11.0493 4.30493C11.0493 3.80269 10.6188 3.30045 10.0448 3.30045ZM5.95516 3.30045C5.38117 3.30045 4.95067 3.80269 4.95067 4.30493C4.95067 4.87892 5.45291 5.30942 5.95516 5.30942C6.4574 5.30942 6.95964 4.87892 6.95964 4.30493C6.95964 3.80269 6.4574 3.30045 5.95516 3.30045ZM3.5157 6.6009C2.9417 6.6009 2.51121 7.10314 2.51121 7.60538C2.51121 8.17937 3.01345 8.60987 3.5157 8.60987C4.08969 8.60987 4.52018 8.10762 4.52018 7.60538C4.52018 7.03139 4.01794 6.6009 3.5157 6.6009ZM3.5157 6.6009C2.9417 6.6009 2.51121 7.10314 2.51121 7.60538C2.51121 8.17937 3.01345 8.60987 3.5157 8.60987C4.08969 8.60987 4.52018 8.10762 4.52018 7.60538C4.52018 7.03139 4.01794 6.6009 3.5157 6.6009ZM5.95516 3.30045C5.38117 3.30045 4.95067 3.80269 4.95067 4.30493C4.95067 4.87892 5.45291 5.30942 5.95516 5.30942C6.4574 5.30942 6.95964 4.87892 6.95964 4.30493C6.95964 3.80269 6.4574 3.30045 5.95516 3.30045ZM10.0448 3.30045C9.5426 3.30045 9.04036 3.80269 9.04036 4.30493C9.04036 4.87892 9.5426 5.30942 10.0448 5.30942C10.6188 5.30942 11.0493 4.80718 11.0493 4.30493C11.0493 3.80269 10.6188 3.30045 10.0448 3.30045ZM12.5561 6.6009C12.0538 6.6009 11.5516 7.10314 11.5516 7.60538C11.5516 8.17937 12.0538 8.60987 12.5561 8.60987C13.13 8.60987 13.5605 8.10762 13.5605 7.60538C13.5605 7.03139 13.0583 6.6009 12.5561 6.6009ZM12.5561 6.6009C12.0538 6.6009 11.5516 7.10314 11.5516 7.60538C11.5516 8.17937 12.0538 8.60987 12.5561 8.60987C13.13 8.60987 13.5605 8.10762 13.5605 7.60538C13.5605 7.03139 13.0583 6.6009 12.5561 6.6009ZM10.0448 3.30045C9.5426 3.30045 9.04036 3.80269 9.04036 4.30493C9.04036 4.87892 9.5426 5.30942 10.0448 5.30942C10.6188 5.30942 11.0493 4.80718 11.0493 4.30493C11.0493 3.80269 10.6188 3.30045 10.0448 3.30045ZM5.95516 3.30045C5.38117 3.30045 4.95067 3.80269 4.95067 4.30493C4.95067 4.87892 5.45291 5.30942 5.95516 5.30942C6.4574 5.30942 6.95964 4.87892 6.95964 4.30493C6.95964 3.80269 6.4574 3.30045 5.95516 3.30045ZM3.5157 6.6009C2.9417 6.6009 2.51121 7.10314 2.51121 7.60538C2.51121 8.17937 3.01345 8.60987 3.5157 8.60987C4.08969 8.60987 4.52018 8.10762 4.52018 7.60538C4.52018 7.03139 4.01794 6.6009 3.5157 6.6009ZM3.5157 6.6009C2.9417 6.6009 2.51121 7.10314 2.51121 7.60538C2.51121 8.17937 3.01345 8.60987 3.5157 8.60987C4.08969 8.60987 4.52018 8.10762 4.52018 7.60538C4.52018 7.03139 4.01794 6.6009 3.5157 6.6009ZM5.95516 3.30045C5.38117 3.30045 4.95067 3.80269 4.95067 4.30493C4.95067 4.87892 5.45291 5.30942 5.95516 5.30942C6.4574 5.30942 6.95964 4.87892 6.95964 4.30493C6.95964 3.80269 6.4574 3.30045 5.95516 3.30045ZM10.0448 3.30045C9.5426 3.30045 9.04036 3.80269 9.04036 4.30493C9.04036 4.87892 9.5426 5.30942 10.0448 5.30942C10.6188 5.30942 11.0493 4.80718 11.0493 4.30493C11.0493 3.80269 10.6188 3.30045 10.0448 3.30045ZM12.5561 6.6009C12.0538 6.6009 11.5516 7.10314 11.5516 7.60538C11.5516 8.17937 12.0538 8.60987 12.5561 8.60987C13.13 8.60987 13.5605 8.10762 13.5605 7.60538C13.5605 7.03139 13.0583 6.6009 12.5561 6.6009ZM12.5561 6.6009C12.0538 6.6009 11.5516 7.10314 11.5516 7.60538C11.5516 8.17937 12.0538 8.60987 12.5561 8.60987C13.13 8.60987 13.5605 8.10762 13.5605 7.60538C13.5605 7.03139 13.0583 6.6009 12.5561 6.6009ZM10.0448 3.30045C9.5426 3.30045 9.04036 3.80269 9.04036 4.30493C9.04036 4.87892 9.5426 5.30942 10.0448 5.30942C10.6188 5.30942 11.0493 4.80718 11.0493 4.30493C11.0493 3.80269 10.6188 3.30045 10.0448 3.30045ZM5.95516 3.30045C5.38117 3.30045 4.95067 3.80269 4.95067 4.30493C4.95067 4.87892 5.45291 5.30942 5.95516 5.30942C6.4574 5.30942 6.95964 4.87892 6.95964 4.30493C6.95964 3.80269 6.4574 3.30045 5.95516 3.30045ZM3.5157 6.6009C2.9417 6.6009 2.51121 7.10314 2.51121 7.60538C2.51121 8.17937 3.01345 8.60987 3.5157 8.60987C4.08969 8.60987 4.52018 8.10762 4.52018 7.60538C4.52018 7.03139 4.01794 6.6009 3.5157 6.6009ZM3.5157 6.6009C2.9417 6.6009 2.51121 7.10314 2.51121 7.60538C2.51121 8.17937 3.01345 8.60987 3.5157 8.60987C4.08969 8.60987 4.52018 8.10762 4.52018 7.60538C4.52018 7.03139 4.01794 6.6009 3.5157 6.6009ZM5.95516 3.30045C5.38117 3.30045 4.95067 3.80269 4.95067 4.30493C4.95067 4.87892 5.45291 5.30942 5.95516 5.30942C6.4574 5.30942 6.95964 4.87892 6.95964 4.30493C6.95964 3.80269 6.4574 3.30045 5.95516 3.30045ZM10.0448 3.30045C9.5426 3.30045 9.04036 3.80269 9.04036 4.30493C9.04036 4.87892 9.5426 5.30942 10.0448 5.30942C10.6188 5.30942 11.0493 4.80718 11.0493 4.30493C11.0493 3.80269 10.6188 3.30045 10.0448 3.30045ZM12.5561 6.6009C12.0538 6.6009 11.5516 7.10314 11.5516 7.60538C11.5516 8.17937 12.0538 8.60987 12.5561 8.60987C13.13 8.60987 13.5605 8.10762 13.5605 7.60538C13.5605 7.03139 13.0583 6.6009 12.5561 6.6009ZM3.5157 6.6009C2.9417 6.6009 2.51121 7.10314 2.51121 7.60538C2.51121 8.17937 3.01345 8.60987 3.5157 8.60987C4.08969 8.60987 4.52018 8.10762 4.52018 7.60538C4.52018 7.03139 4.01794 6.6009 3.5157 6.6009ZM5.95516 3.30045C5.38117 3.30045 4.95067 3.80269 4.95067 4.30493C4.95067 4.87892 5.45291 5.30942 5.95516 5.30942C6.4574 5.30942 6.95964 4.87892 6.95964 4.30493C6.95964 3.80269 6.4574 3.30045 5.95516 3.30045ZM10.0448 3.30045C9.5426 3.30045 9.04036 3.80269 9.04036 4.30493C9.04036 4.87892 9.5426 5.30942 10.0448 5.30942C10.6188 5.30942 11.0493 4.80718 11.0493 4.30493C11.0493 3.80269 10.6188 3.30045 10.0448 3.30045ZM12.5561 6.6009C12.0538 6.6009 11.5516 7.10314 11.5516 7.60538C11.5516 8.17937 12.0538 8.60987 12.5561 8.60987C13.13 8.60987 13.5605 8.10762 13.5605 7.60538C13.5605 7.03139 13.0583 6.6009 12.5561 6.6009Z" fill="white"/>
</g>
<defs>
<clipPath id="clip0_608_977">
<rect width="16" height="16" fill="white"/>
</clipPath>
</defs>
</svg>
