<svg width="15" height="15" viewBox="0 0 15 15" fill="none" xmlns="http://www.w3.org/2000/svg">
<path fill-rule="evenodd" clip-rule="evenodd" d="M4.5875 1C4.79079 1 4.99512 1.1721 5.02089 1.43459L5.02096 1.43536C5.09519 2.17946 5.25814 2.91161 5.50607 3.61627L4.38393 4.7384C4.23392 4.88842 4.19491 5.11679 4.28662 5.3081C5.3888 7.60725 7.24282 9.46127 9.54197 10.5635C9.73328 10.6552 9.96165 10.6162 10.1117 10.4661L11.2339 9.34391C11.9386 9.59158 12.6708 9.75427 13.4149 9.82824L13.4643 9.33069L13.4145 9.8282C13.6774 9.85454 13.8501 10.0597 13.8501 10.2626V11.1501C13.8501 12.8814 12.4559 14.158 10.9591 13.7772C8.57669 13.1662 6.40218 11.9262 4.66301 10.1871C2.92384 8.44789 1.68391 6.27338 1.07288 3.89094C0.692054 2.39419 1.96865 1 3.69999 1H4.5875ZM6.01602 1.3361C5.9456 0.622651 5.36373 0 4.5875 0H3.69999C1.50865 0 -0.482507 1.83441 0.103848 4.13787L0.104065 4.13872C0.759547 6.69498 2.08988 9.02814 3.9559 10.8942C5.82193 12.7602 8.15509 14.0905 10.7114 14.746L10.7122 14.7462C13.0157 15.3326 14.8501 13.3414 14.8501 11.1501V10.2626C14.8501 9.4856 14.2257 8.90446 13.5142 8.83318L13.5138 8.83314C12.7513 8.75735 12.0029 8.57728 11.2894 8.29797C11.1044 8.22555 10.8941 8.26954 10.7536 8.41002L9.6595 9.50409C7.81518 8.54032 6.30975 7.03489 5.34598 5.19057L6.44005 4.0965C6.58058 3.95597 6.62454 3.74556 6.55203 3.56052C6.27244 2.84706 6.09209 2.0986 6.01602 1.3361Z" fill="#9CA3AF"/>
</svg>
