<svg width="13" height="11" viewBox="0 0 13 11" fill="none" xmlns="http://www.w3.org/2000/svg">
<path d="M10.2976 2.90596L10.2977 3.15589H10.5476H10.8797C11.6829 3.15589 12.3466 3.8196 12.3467 4.62276C12.3467 4.62278 12.3467 4.6228 12.3467 4.62281L12.3461 7.26809V7.26814C12.3461 8.07133 11.6829 8.73507 10.8792 8.73507H10.5471H10.2971V8.98507V10.3699C10.2971 10.3844 10.2846 10.3969 10.2701 10.3969H3.5536C3.53912 10.3969 3.52663 10.3844 3.52663 10.3699V8.98507V8.73507H3.27663H2.59828C1.7951 8.73507 1.13135 8.07182 1.13135 7.26814V4.62281C1.13135 3.81963 1.7946 3.15589 2.59828 3.15589H3.27663H3.52663V2.90589V1.18896C3.52663 1.17448 3.53912 1.16199 3.5536 1.16199H10.2701C10.2846 1.16199 10.2971 1.17448 10.2971 1.18896V1.18903L10.2976 2.90596ZM3.83061 1.21592H3.58061V1.46592V2.89191V3.14189L3.83059 3.14191L9.99314 3.14245L10.2432 3.14247V2.89245V1.46592V1.21592H9.99316H3.83061ZM9.99316 10.3295H10.2432V10.0795V7.73941V7.48941H9.99316H3.83061H3.58061V7.73941V10.0795V10.3295H3.83061H9.99316ZM10.8657 8.6672C11.5553 8.6672 12.1369 8.1619 12.2563 7.50395L12.2929 7.50392L12.2928 7.25409L12.2923 4.62294C12.2923 4.62292 12.2923 4.62291 12.2923 4.62289C12.2923 3.84822 11.6546 3.20989 10.8793 3.20989H2.59775C1.82306 3.20989 1.1847 3.84754 1.1847 4.62294V4.62299L1.18524 7.2547C1.18524 7.25471 1.18524 7.25473 1.18524 7.25475C1.18527 8.02942 1.82291 8.66775 2.59829 8.66775H3.27664H3.52664V8.41775V7.72532V7.47532H3.27664H2.62588C2.6114 7.47532 2.59891 7.46283 2.59891 7.44835C2.59891 7.43387 2.6114 7.42139 2.62588 7.42139H11.1427C11.1571 7.42139 11.1696 7.43388 11.1696 7.44835C11.1696 7.46281 11.1572 7.47528 11.1427 7.47532C11.1427 7.47532 11.1427 7.47532 11.1427 7.47532L10.5338 7.47478L10.2836 7.47456V7.72478V8.4172V8.6672H10.5336H10.8657Z" fill="white" stroke="black" stroke-width="0.5"/>
<path d="M5.11868 4.7678L5.11773 4.77848V4.78954C5.11773 4.80402 5.10524 4.81651 5.09076 4.81651H2.6256C2.61112 4.81651 2.59863 4.80402 2.59863 4.78954C2.59863 4.77506 2.61112 4.76257 2.6256 4.76257H5.1042C5.11188 4.76257 5.11653 4.76558 5.1185 4.76762C5.11857 4.76768 5.11862 4.76774 5.11868 4.7678Z" fill="white" stroke="black" stroke-width="0.5"/>
</svg>
