<svg width="38" height="31" viewBox="0 0 38 31" fill="none" xmlns="http://www.w3.org/2000/svg">
<path d="M32.0593 6.24362H31.0193L31.0176 0.867289C31.0176 0.389586 30.628 0 30.1503 0H9.11851C8.64081 0 8.25122 0.389603 8.25122 0.867289V6.24362H6.12706C3.17793 6.24362 0.750732 8.67272 0.750732 11.6199V19.9034C0.750732 22.8526 3.17984 25.2797 6.12706 25.2797H8.25122V29.6162C8.25122 30.0939 8.64083 30.4835 9.11851 30.4835H30.1503C30.628 30.4835 31.0176 30.0939 31.0176 29.6162V25.2797H32.0576C35.0067 25.2797 37.4339 22.8506 37.4339 19.9034L37.4356 11.6199C37.4356 8.6725 35.0065 6.24362 32.0593 6.24362ZM9.98594 1.73458H29.2831V6.20155L9.98594 6.19986V1.73458ZM29.2831 28.7068H9.98594V21.3791H29.2831V28.7068ZM35.6573 19.8596C35.6573 21.8551 34.0091 23.5015 32.0153 23.5015H30.9753V21.3333L32.8826 21.335C33.3603 21.335 33.7499 20.9454 33.7499 20.4677C33.7499 19.99 33.3603 19.6004 32.8826 19.6004H6.21349C5.73578 19.6004 5.3462 19.99 5.3462 20.4677C5.3462 20.9454 5.7358 21.335 6.21349 21.335H8.25127V23.5032H6.1271C4.13165 23.5032 2.48518 21.855 2.48518 19.8613L2.48349 11.6203C2.48349 9.62488 4.13169 7.97841 6.12541 7.97841H32.0578C34.0532 7.97841 35.6997 9.62661 35.6997 11.6203L35.7014 19.8596L35.6573 19.8596Z" fill="white"/>
<path d="M30.7693 6.24369L30.7693 6.49362H31.0193H32.0593C34.8685 6.49362 37.1856 8.81058 37.1856 11.6199L37.1839 19.9034C37.1839 22.7126 34.8686 25.0297 32.0576 25.0297H31.0176H30.7676V25.2797V29.6162C30.7676 29.9558 30.4899 30.2335 30.1503 30.2335H9.11851C8.77889 30.2335 8.50122 29.9558 8.50122 29.6162V25.2797V25.0297H8.25122H6.12706C3.31785 25.0297 1.00073 22.7144 1.00073 19.9034V11.6199C1.00073 8.81073 3.31606 6.49362 6.12706 6.49362H8.25122H8.50122V6.24362V0.867289C8.50122 0.527671 8.77888 0.25 9.11851 0.25H30.1503C30.4899 0.25 30.7676 0.52766 30.7676 0.867289V0.867368L30.7693 6.24369ZM9.98594 1.48458H9.73594V1.73458V6.19986V6.44984L9.98591 6.44986L29.2831 6.45155L29.5331 6.45157V6.20155V1.73458V1.48458H29.2831H9.98594ZM29.2831 28.9568H29.5331V28.7068V21.3791V21.1291H29.2831H9.98594H9.73594V21.3791V28.7068V28.9568H9.98594H29.2831ZM35.8992 20.1094L35.9515 20.1094L35.9514 19.8595L35.9497 11.6203C35.9497 9.48862 34.1914 7.72841 32.0578 7.72841H6.12541C3.99369 7.72841 2.23349 9.48673 2.23349 11.6203V11.6204L2.23518 19.8613C2.23518 19.8613 2.23518 19.8614 2.23518 19.8614C2.23521 21.9931 3.99351 23.7532 6.1271 23.7532H8.25127H8.50127V23.5032V21.335V21.085H8.25127H6.21349C5.87387 21.085 5.5962 20.8074 5.5962 20.4677C5.5962 20.1281 5.87386 19.8504 6.21349 19.8504H32.8826C33.2222 19.8504 33.4999 20.1281 33.4999 20.4677C33.4999 20.8073 33.2224 21.0849 32.8829 21.085C32.8828 21.085 32.8828 21.085 32.8828 21.085C32.8828 21.085 32.8827 21.085 32.8826 21.085L30.9755 21.0833L30.7253 21.0831V21.3333V23.5015V23.7515H30.9753H32.0153C34.0633 23.7515 35.7683 22.1287 35.8992 20.1094Z" stroke="#A78BFA" stroke-opacity="0.5" stroke-width="0.5"/>
<path d="M13.9744 11.2747H6.21299C5.73529 11.2747 5.3457 11.6643 5.3457 12.142C5.3457 12.6197 5.73531 13.0093 6.21299 13.0093H13.9323C14.41 13.0093 14.7996 12.6197 14.7996 12.142C14.8419 11.6643 14.452 11.2747 13.9744 11.2747Z" fill="white"/>
<path d="M14.5506 12.1199L14.5496 12.131V12.142C14.5496 12.4816 14.2719 12.7593 13.9323 12.7593H6.21299C5.87337 12.7593 5.5957 12.4817 5.5957 12.142C5.5957 11.8024 5.87336 11.5247 6.21299 11.5247H13.9744C14.3189 11.5247 14.5788 11.8017 14.5506 12.1199Z" stroke="#A78BFA" stroke-opacity="0.5" stroke-width="0.5"/>
</svg>
