<svg width="17" height="17" viewBox="0 0 17 17" fill="none" xmlns="http://www.w3.org/2000/svg">
<path fill-rule="evenodd" clip-rule="evenodd" d="M8.5 4.26287C8.91421 4.26287 9.25 4.59865 9.25 5.01287V8.18934L11.2098 10.1491C11.5027 10.442 11.5027 10.9169 11.2098 11.2098C10.9169 11.5027 10.442 11.5027 10.1491 11.2098L7.96967 9.03033C7.82902 8.88968 7.75 8.69891 7.75 8.5V5.01287C7.75 4.59865 8.08579 4.26287 8.5 4.26287Z" fill="white"/>
<path d="M1.8203 4.02862L1.16646 4.03124C1.16715 4.20359 1.23586 4.3687 1.35765 4.49066C1.47944 4.61261 1.64446 4.68154 1.81681 4.68246L1.8203 4.02862ZM4.03637 4.69292C4.12223 4.69332 4.20734 4.67681 4.28682 4.64432C4.3663 4.61183 4.4386 4.56401 4.4996 4.50358C4.5606 4.44314 4.60909 4.37129 4.64232 4.29212C4.67555 4.21294 4.69286 4.128 4.69326 4.04214C4.69366 3.95627 4.67715 3.87117 4.64466 3.79169C4.61217 3.71221 4.56434 3.63991 4.50391 3.57891C4.44348 3.51791 4.37163 3.46941 4.29245 3.43619C4.21328 3.40296 4.12834 3.38565 4.04247 3.38525L4.03637 4.69292ZM2.4628 1.80558C2.46235 1.71972 2.44498 1.63478 2.4117 1.55563C2.37842 1.47648 2.32987 1.40466 2.26883 1.34427C2.2078 1.28388 2.13546 1.2361 2.05596 1.20366C1.97645 1.17123 1.89134 1.15477 1.80548 1.15523C1.71962 1.15569 1.63468 1.17305 1.55553 1.20633C1.47638 1.23961 1.40456 1.28816 1.34417 1.3492C1.28378 1.41024 1.236 1.48257 1.20357 1.56207C1.17113 1.64158 1.15467 1.72669 1.15513 1.81255L2.4628 1.80558ZM1.37482 7.44078C1.38735 7.35533 1.38282 7.26824 1.3615 7.18455C1.34018 7.10085 1.3025 7.02221 1.25061 6.95317C1.19873 6.88412 1.13369 6.82604 1.05923 6.78227C0.984775 6.7385 0.902386 6.70992 0.816822 6.69818C0.731259 6.68643 0.644216 6.69175 0.560721 6.71383C0.477226 6.73592 0.398932 6.77432 0.330363 6.82683C0.261794 6.87934 0.204308 6.94492 0.161224 7.01977C0.11814 7.09462 0.0903131 7.17727 0.0793494 7.26294L1.37482 7.44078ZM14.4821 2.51782C11.1519 -0.812385 5.77035 -0.847257 2.46193 2.46203L3.38602 3.38612C6.17573 0.597287 10.729 0.613851 13.558 3.44191L14.4821 2.51782ZM2.51773 14.4822C5.84794 17.8124 11.2295 17.8473 14.5379 14.538L13.6138 13.6139C10.8241 16.4027 6.27075 16.3861 3.44182 13.5581L2.51773 14.4822ZM14.5379 14.538C17.8463 11.2296 17.8123 5.84803 14.4821 2.51782L13.558 3.44191C16.386 6.27085 16.4026 10.8242 13.6138 13.6139L14.5379 14.538ZM2.46193 2.46203L1.35738 3.56571L2.28234 4.4898L3.38602 3.38612L2.46193 2.46203ZM1.81681 4.68246L4.03637 4.69292L4.04247 3.38525L1.82379 3.37479L1.81681 4.68246ZM2.47414 4.02514L2.4628 1.80558L1.15513 1.81255L1.16646 4.03124L2.47414 4.02514ZM0.0784775 7.26207C-0.100774 8.57199 0.0261259 9.90564 0.44921 11.1583C0.872295 12.4109 1.58004 13.5483 2.51685 14.4813L3.44094 13.5572C2.64683 12.7668 2.04687 11.803 1.68821 10.7416C1.32955 9.68013 1.22198 8.54996 1.37395 7.43991L0.0784775 7.26207Z" fill="white"/>
</svg>
