<svg width="20" height="18" viewBox="0 0 20 18" fill="none" xmlns="http://www.w3.org/2000/svg">
<path fill-rule="evenodd" clip-rule="evenodd" d="M9.9998 0.38826L12.5907 0.429366C13.0613 0.43713 13.4564 0.443648 13.7834 0.480298C14.1318 0.519358 14.4484 0.596428 14.7509 0.771606C15.0523 0.946159 15.2773 1.18112 15.4858 1.46347C15.6856 1.73417 15.8933 2.08134 16.1417 2.49669L16.1455 2.50314L17.4586 4.69399L18.7008 6.92625L18.7144 6.95074C18.9449 7.36556 19.1383 7.7134 19.2709 8.01711C19.4111 8.33848 19.5025 8.65093 19.5025 9C19.5025 9.3491 19.4111 9.6616 19.2707 9.98309C19.1375 10.2878 18.9431 10.6369 18.7111 11.0535L18.6999 11.0736L17.4587 13.3058L16.1465 15.4967L16.1289 15.5262C15.8864 15.931 15.6828 16.2707 15.4873 16.5363C15.2794 16.8186 15.0548 17.0544 14.7527 17.2293L14.7513 17.2301C14.4488 17.4042 14.1326 17.4809 13.7843 17.5198C13.4574 17.5564 13.0627 17.5629 12.5926 17.5706L12.5553 17.5713L9.99979 17.6117L7.44653 17.5713L7.40889 17.5706C6.9383 17.5629 6.54322 17.5564 6.21622 17.5197C5.86774 17.4806 5.55123 17.4036 5.24871 17.2284C4.94727 17.0538 4.72231 16.8189 4.51383 16.5365C4.31396 16.2658 4.10633 15.9187 3.85792 15.5033L3.85406 15.4969L2.54096 13.3059L1.30076 11.0748L1.29171 11.0586C1.05863 10.64 0.863407 10.2894 0.729785 9.98338C0.589342 9.6617 0.498047 9.34903 0.498047 9C0.498047 8.6509 0.589382 8.3384 0.729858 8.01692C0.863012 7.71218 1.05738 7.36314 1.28936 6.94657L2.54088 4.69424L3.87073 2.47379C4.11324 2.069 4.31676 1.72928 4.51231 1.46367C4.72017 1.18136 4.94479 0.945617 5.24688 0.770689L5.24825 0.7699C5.55081 0.59576 5.86703 0.519062 6.2153 0.480158C6.54214 0.443649 6.93684 0.437131 7.40702 0.429367L9.9998 0.38826ZM9.99979 1.58841L7.46415 1.62859C7.46409 1.62859 7.4642 1.62859 7.46415 1.62859C6.95445 1.63703 6.61416 1.64307 6.34852 1.67274C6.09621 1.70093 5.95736 1.74647 5.84753 1.80955C5.73826 1.87296 5.62936 1.97045 5.47865 2.17514C5.32006 2.39055 5.14462 2.68244 4.88254 3.11987C4.88252 3.1199 4.88256 3.11984 4.88254 3.11987L3.58038 5.2941L2.34944 7.50942C2.10152 7.95464 1.93636 8.25276 1.82947 8.4974C1.72771 8.73027 1.69805 8.87335 1.69805 9C1.69805 9.12673 1.72775 9.27009 1.82954 9.50323C1.93642 9.74804 2.10133 10.0459 2.34917 10.491L3.58031 12.7058L4.88336 14.88C5.14462 15.3168 5.32061 15.609 5.4792 15.8237C5.63028 16.0284 5.7399 16.1262 5.85005 16.1899C5.95911 16.2531 6.09727 16.2989 6.34989 16.3272C6.61538 16.3569 6.95558 16.363 7.46578 16.3714C7.46571 16.3714 7.46584 16.3714 7.46578 16.3714L9.9998 16.4116L12.5354 16.3714C13.0452 16.363 13.3854 16.3569 13.6511 16.3273C13.9034 16.2991 14.0422 16.2535 14.1521 16.1904C14.2613 16.127 14.3702 16.0295 14.5209 15.8249C14.6795 15.6094 14.855 15.3175 15.1171 14.88L16.4193 12.7058L17.6512 10.4904C17.8991 10.0452 18.0641 9.74725 18.171 9.50261C18.2728 9.26974 18.3025 9.12665 18.3025 9C18.3025 8.87332 18.2728 8.73019 18.1711 8.49721C18.0642 8.25245 17.8995 7.95479 17.652 7.50948L16.4194 5.29433L15.1162 3.12003C14.855 2.6832 14.679 2.39104 14.5204 2.17626C14.3693 1.97164 14.2597 1.87384 14.1495 1.81006C14.0405 1.74691 13.9023 1.70115 13.6497 1.67283C13.3843 1.64308 13.0441 1.63703 12.534 1.62859L9.99979 1.58841Z" fill="white"/>
<path fill-rule="evenodd" clip-rule="evenodd" d="M9.9999 6.85C8.81249 6.85 7.8499 7.81259 7.8499 9C7.8499 10.1874 8.81249 11.15 9.9999 11.15C11.1873 11.15 12.1499 10.1874 12.1499 9C12.1499 7.81259 11.1873 6.85 9.9999 6.85ZM6.6499 9C6.6499 7.14985 8.14975 5.65 9.9999 5.65C11.8501 5.65 13.3499 7.14985 13.3499 9C13.3499 10.8502 11.8501 12.35 9.9999 12.35C8.14975 12.35 6.6499 10.8502 6.6499 9Z" fill="white"/>
</svg>
