<svg width="17" height="18" viewBox="0 0 17 18" fill="none" xmlns="http://www.w3.org/2000/svg">
<path d="M11.8584 4.54694C11.6563 4.34561 11.3827 4.23256 11.0974 4.23256C10.8122 4.23256 10.5386 4.34561 10.3365 4.54694L7.34483 7.5384L5.84527 6.03885C5.6432 5.83745 5.36953 5.72437 5.08423 5.72437C4.79893 5.72437 4.52526 5.83745 4.32318 6.03885C4.12178 6.24093 4.0087 6.5146 4.0087 6.7999C4.0087 7.0852 4.12178 7.35887 4.32318 7.56095L6.65856 9.89613C6.84068 10.0778 7.08741 10.1798 7.34463 10.1798C7.60186 10.1798 7.84859 10.0778 8.0307 9.89613L11.8584 6.06884C12.0597 5.86677 12.1728 5.59314 12.1728 5.30789C12.1728 5.02264 12.0597 4.74901 11.8584 4.54694ZM11.5118 5.72306L7.68453 9.54976C7.59433 9.63966 7.47217 9.69014 7.34483 9.69014C7.21748 9.69014 7.09533 9.63966 7.00513 9.54976L4.66974 7.21438C4.56028 7.10421 4.49884 6.95521 4.49884 6.7999C4.49884 6.64459 4.56028 6.49559 4.66974 6.38541C4.77976 6.27566 4.92882 6.21402 5.08423 6.21402C5.23963 6.21402 5.38869 6.27566 5.49871 6.38541L7.17155 8.05825C7.21753 8.10417 7.27985 8.12996 7.34483 8.12996C7.40981 8.12996 7.47213 8.10417 7.51811 8.05825L10.6829 4.89331C10.7933 4.78591 10.9416 4.72631 11.0957 4.7274C11.2498 4.7285 11.3972 4.7902 11.5062 4.89916C11.6151 5.00812 11.6768 5.15558 11.6778 5.30966C11.6789 5.46373 11.6193 5.61203 11.5118 5.72247V5.72306ZM8.28416 1.43395C7.14248 1.43395 6.02645 1.77249 5.07718 2.40677C4.12792 3.04105 3.38806 3.94258 2.95116 4.99734C2.51426 6.05211 2.39995 7.21275 2.62267 8.33248C2.8454 9.45222 3.39517 10.4808 4.20246 11.288C5.00974 12.0953 6.03828 12.6451 7.15802 12.8678C8.27775 13.0906 9.43839 12.9762 10.4932 12.5393C11.5479 12.1024 12.4494 11.3626 13.0837 10.4133C13.718 9.46405 14.0566 8.34802 14.0566 7.20635C14.0548 5.67594 13.4461 4.2087 12.364 3.12654C11.2818 2.04437 9.81456 1.43566 8.28416 1.43395ZM8.28416 12.4895C7.23944 12.4895 6.21818 12.1797 5.34952 11.5993C4.48086 11.0189 3.80381 10.194 3.40398 9.22878C3.00415 8.2636 2.89949 7.20154 3.10325 6.17688C3.30701 5.15223 3.81002 4.211 4.5487 3.47222C5.28737 2.73344 6.22852 2.23029 7.25314 2.02638C8.27776 1.82247 9.33984 1.92697 10.3051 2.32665C11.2703 2.72634 12.0954 3.40327 12.6759 4.27184C13.2564 5.14042 13.5663 6.16163 13.5665 7.20635C13.5649 8.6068 13.0078 9.94943 12.0175 10.9397C11.0273 11.9299 9.68461 12.4869 8.28416 12.4885V12.4895ZM16.5366 15.2614L14.2289 11.2659C14.9686 10.184 15.399 8.92076 15.4738 7.61229C15.5486 6.30381 15.2649 4.99974 14.6532 3.84061C14.0416 2.68147 13.1252 1.71123 12.0029 1.03445C10.8805 0.357665 9.59476 0 8.28416 0C6.97355 0 5.68779 0.357665 4.56544 1.03445C3.4431 1.71123 2.52672 2.68147 1.91508 3.84061C1.30344 4.99974 1.01972 6.30381 1.09451 7.61229C1.16929 8.92076 1.59974 10.184 2.33946 11.2659L0.0326948 15.2614C0.00852988 15.3034 -0.00266095 15.3516 0.000534179 15.3999C0.00372931 15.4482 0.0211672 15.4945 0.0506481 15.533C0.080129 15.5714 0.120332 15.6003 0.166186 15.6159C0.21204 15.6315 0.26149 15.6332 0.308299 15.6207L2.82794 14.9454L3.50323 17.465C3.51571 17.5119 3.54183 17.554 3.57827 17.5859C3.6147 17.6179 3.65981 17.6383 3.70787 17.6446C3.71847 17.646 3.72914 17.6467 3.73982 17.6468C3.78284 17.6467 3.8251 17.6354 3.86236 17.6139C3.89962 17.5924 3.93057 17.5615 3.95211 17.5242L5.97112 14.0267C7.47133 14.5345 9.09698 14.5345 10.5972 14.0267L12.6162 17.5242C12.6377 17.5615 12.6686 17.5925 12.7059 17.614C12.7432 17.6355 12.7855 17.6468 12.8285 17.6468C12.8392 17.6467 12.8498 17.646 12.8604 17.6446C12.9085 17.6383 12.9536 17.6179 12.99 17.5859C13.0265 17.554 13.0526 17.5119 13.0651 17.465L13.7404 14.9454L16.26 15.6207C16.3069 15.6334 16.3565 15.6319 16.4025 15.6164C16.4485 15.6009 16.4889 15.5721 16.5186 15.5336C16.5482 15.4951 16.5657 15.4487 16.5689 15.4002C16.5721 15.3518 16.5609 15.3035 16.5366 15.2614ZM3.82333 16.767L3.23801 14.582C3.22115 14.5192 3.18008 14.4657 3.12381 14.4333C3.06754 14.4008 3.00068 14.3919 2.93791 14.4087L0.752872 14.9942L2.65838 11.6952C3.41303 12.6404 4.39252 13.3814 5.50734 13.8504L3.82333 16.767ZM1.57282 7.20635C1.57278 5.87896 1.96636 4.58137 2.70379 3.47768C3.44122 2.37398 4.48937 1.51374 5.7157 1.00574C6.94204 0.497749 8.29147 0.364814 9.59335 0.623751C10.8952 0.882687 12.0911 1.52186 13.0297 2.46045C13.9683 3.39904 14.6075 4.59488 14.8665 5.89676C15.1255 7.19864 14.9926 8.54807 14.4846 9.77442C13.9767 11.0008 13.1165 12.0489 12.0128 12.7864C10.9091 13.5239 9.61154 13.9175 8.28416 13.9175C6.50485 13.9155 4.79901 13.2077 3.54083 11.9496C2.28266 10.6915 1.5749 8.98565 1.57282 7.20635ZM13.6304 14.4087C13.5676 14.3919 13.5008 14.4008 13.4445 14.4333C13.3882 14.4657 13.3472 14.5192 13.3303 14.582L12.745 16.767L11.061 13.8504C12.1758 13.3814 13.1553 12.6404 13.9099 11.6952L15.8147 14.9942L13.6304 14.4087Z" fill="white"/>
</svg>
