<svg width="402" height="874" viewBox="0 0 402 874" fill="none" xmlns="http://www.w3.org/2000/svg">
<mask id="mask0_52_103" style="mask-type:alpha" maskUnits="userSpaceOnUse" x="0" y="0" width="402" height="874">
<rect width="402" height="874" fill="white"/>
</mask>
<g mask="url(#mask0_52_103)">
<g opacity="0.2">
<path d="M125.166 72.5789C126.646 80.9817 127.336 93.3456 116.034 96.6808C129.363 99.445 129.336 105.733 134.163 113.055C132.631 106.117 135.135 95.015 143.721 91.2067C130.457 88.2569 127.71 81.3383 125.166 72.5789Z" fill="#A78BFA"/>
<path d="M259.08 473.86C260.298 480.826 260.893 491.075 251.511 493.825C262.553 496.125 262.535 501.321 266.525 507.402C265.239 501.648 267.322 492.457 274.452 489.3C263.464 486.859 261.197 481.114 259.08 473.86Z" fill="#A78BFA"/>
<path d="M120.281 404.396C121.499 411.363 122.094 421.612 112.712 424.361C123.754 426.662 123.736 431.858 127.725 437.939C126.44 432.184 128.523 422.994 135.653 419.836C124.665 417.396 122.378 411.655 120.281 404.396Z" fill="#A78BFA"/>
<path d="M328.315 665.885C330.842 665.311 332.425 662.799 331.852 660.274C331.279 657.749 328.766 656.168 326.239 656.741C323.712 657.315 322.129 659.827 322.702 662.352C323.275 664.877 325.788 666.458 328.315 665.885Z" fill="#A78BFA"/>
<path d="M344.194 14.5592C346.721 13.9856 348.304 11.4737 347.731 8.94876C347.158 6.42385 344.645 4.84207 342.118 5.41574C339.591 5.98941 338.008 8.50131 338.581 11.0262C339.154 13.5511 341.667 15.1329 344.194 14.5592Z" fill="#A78BFA"/>
<path d="M58.9459 187.651C61.4726 187.077 63.0561 184.565 62.4829 182.041C61.9096 179.516 59.3966 177.934 56.8699 178.508C54.3432 179.081 52.7596 181.593 53.3329 184.118C53.9062 186.643 56.4192 188.225 58.9459 187.651Z" fill="#A78BFA"/>
<path d="M161.18 585.1C163.706 584.526 165.29 582.014 164.717 579.489C164.143 576.964 161.63 575.382 159.104 575.956C156.577 576.53 154.994 579.042 155.567 581.567C156.14 584.092 158.653 585.673 161.18 585.1Z" fill="#A78BFA"/>
<path d="M149.675 258.692L146.957 240.976L156.709 255.77L165.38 241.131L162.229 257.764L180.831 254.844L165.357 265.323L181.263 277.843L162.353 272.906L166.778 292.114L155.379 276.562L148.248 292.24L149.51 272.468C149.51 272.468 131.009 277.245 131.394 276.303C135.836 273.265 142.244 268.434 146.686 265.396C140.93 260.293 136.939 257.31 132.339 253.248C138.772 255.12 145.185 256.998 149.675 258.692Z" fill="#A78BFA"/>
</g>
<mask id="mask1_52_103" style="mask-type:alpha" maskUnits="userSpaceOnUse" x="76" y="777" width="278" height="97">
<rect x="76" y="777" width="278" height="97" fill="#D9D9D9"/>
</mask>
<g mask="url(#mask1_52_103)">
<mask id="mask2_52_103" style="mask-type:luminance" maskUnits="userSpaceOnUse" x="54" y="739" width="328" height="231">
<path d="M382 739H54V970H382V739Z" fill="white"/>
</mask>
<g mask="url(#mask2_52_103)">
<path d="M96.05 893.53C107.86 894.87 118.54 901.89 124.01 911.92C127.7 918.68 129.11 926.61 133.4 933C138.33 940.34 146.72 944.98 155.62 947.03C164.52 949.07 173.95 948.73 183.2 947.65C208.07 944.76 233.1 936.28 252.55 920.23C272.01 904.18 285.17 879.9 283.69 855.93C282.37 834.66 269.57 815.33 251.46 803.98C233.36 792.63 210.46 788.92 188.42 791.83C166.38 794.73 145.2 803.95 126.63 816.5C108.98 828.44 92.78 844.57 87.53 864.52C84.76 875.05 84.63 892.23 96.05 893.53Z" fill="white"/>
<path d="M151.45 857.83C154.54 860.75 158.57 862.93 162.98 863.07C167.4 863.21 172.15 860.98 174.19 857.07C175.68 854.21 175.66 850.76 177.57 848.13C179.8 845.07 183.96 844.03 186.92 841.6C191.56 837.78 192.23 830.29 188.3 826.18C187.29 825.12 186.01 824.25 185.36 822.95C184.28 820.78 185.21 818.15 185.76 815.72C186.45 812.67 186.47 809.4 185.06 806.7C183.66 804 180.61 802.04 177.43 802.47C174.27 802.9 171.74 805.49 170.22 808.26C168.7 811.03 167.91 814.1 166.46 816.9C163.78 822.11 159.06 826.06 154.69 830.11C150.32 834.16 146.02 838.74 144.63 844.35C143.25 849.98 145.97 856.7 151.45 857.83Z" fill="#80A3FF"/>
<path d="M101.83 866.73C99.12 870.4 101.19 875.57 104.67 878.22C108.15 880.87 112.68 881.91 116.63 883.88C121.01 886.06 124.66 889.36 128.93 891.72C133.21 894.07 138.61 895.41 143.27 893.33C147.83 891.29 150.6 886.22 150.46 881.46C150.31 876.7 147.6 872.38 143.87 869.44C141.7 867.73 139.17 866.42 137.23 864.47C132.59 859.8 131.59 851.79 125.52 848.97C120.65 846.71 114.34 849.06 110.52 853.11C106.72 857.16 104.93 862.54 101.83 866.73Z" fill="#F3CD51"/>
<path d="M197.64 841.85C203.83 840.23 208.84 835.93 210.46 830.84C211.35 828.03 211.27 825.08 211.86 822.22C212.45 819.36 213.93 816.39 216.98 814.86C220.13 813.29 224.53 813.45 226.97 811.2C228.03 810.22 228.59 808.87 229.9 808.11C231.96 806.93 234.79 807.73 237.01 808.68C242.78 811.13 248.06 814.33 252.58 818.11C254.54 819.75 256.48 821.82 256.05 824.09C255.6 826.45 252.82 827.97 250.85 829.75C245.46 834.63 245.9 842.08 242.22 847.91C237.75 855 226.64 858.86 217.25 856.58C213.05 855.56 209.22 853.48 204.85 853.17C201.29 852.91 197.27 853.76 194.43 852.02C192.17 850.64 191.59 848 192.27 845.76C192.97 843.53 194.8 842.59 197.64 841.85Z" fill="#61B493"/>
<path d="M226.83 885.63C224.42 879.34 227.79 872.14 234.09 868.75C239.19 866.01 243.94 862.64 248.19 858.74C252.75 854.55 257.72 849.32 264.03 850.5C267.26 851.1 269.82 853.35 271.12 856.25C274.38 863.52 270.48 871.69 266.96 878.19C264.95 881.89 262.73 885.49 260.41 889.03C259.24 890.81 257.93 892.52 256.16 893.73C252.51 896.22 247.74 896.03 243.47 895.41C238.59 894.7 233.59 893.47 230.01 890.31C228.66 889.11 227.58 887.58 226.83 885.63Z" fill="#AAE08D"/>
<path d="M305.35 1013.74C308.08 980.4 313.92 887.41 312.89 854.07C312.86 853.04 312.81 851.96 312.29 851.07C311.76 850.18 310.59 849.54 310.05 850.23C309.44 846.78 308.78 843.22 306.7 840.36C304.62 837.5 300.7 835.54 297.16 836.68C293.08 838 285.27 838.97 284.4 842.95C281.94 854.18 287.84 869.24 286.83 880.64C284.29 909.36 266.24 967.45 258.61 995.46C268.99 1006.63 291.76 1020.2 305.35 1013.74Z" fill="#E3637A"/>
<path d="M283.47 835.4C273.21 834.37 262.78 834.58 252.51 836.03C250.3 836.34 247.88 836.83 246.52 838.52C245.03 840.37 245.43 843.14 246.98 844.88C248.53 846.62 250.97 847.46 253.38 847.75C255.79 848.04 258.24 847.84 260.68 847.86C266.42 847.91 272.11 849.21 277.19 851.63C279.72 852.83 282.17 854.34 284.98 854.72C287.8 855.11 291.17 853.95 292.09 851.38C292.83 849.31 291.79 847.13 290.78 845.2C289.51 842.78 288.23 840.36 283.47 835.4Z" fill="#E3637A"/>
<path d="M251.21 846.74C249.42 846.38 247.4 846.7 246.01 847.87C244.62 849.03 244.04 851.09 244.93 852.59C245.76 854.01 247.55 854.61 249.2 855.11C260.25 858.44 271.29 861.76 282.34 865.09C284.39 865.71 286.53 866.33 288.69 866.05C290.84 865.76 293.01 864.27 293.24 862.23C293.43 860.54 292.31 859.02 291.15 857.75C282.41 848.21 268.12 850.19 251.21 846.74Z" fill="#E3637A"/>
<path d="M290.67 867.7C280.89 861.57 268.69 860.04 256.95 858.66C253.67 858.28 250.14 857.93 247.2 859.44C245.86 862.14 247.44 865.41 249.93 867.16C252.41 868.91 255.57 869.53 258.6 870.23C266.95 872.18 275.08 875.12 283.66 875.89C285.36 876.04 287.1 876.1 288.75 875.65C290.4 875.2 291.96 874.16 292.61 872.66C293.26 871.16 292.86 869.07 290.67 867.7Z" fill="#E3637A"/>
<path d="M212.8 804.86C207.03 801.26 198.9 799.29 191.73 800.43C190.11 802.02 189.24 804.27 189.63 806.59C191.94 808.73 193.86 810.39 196.53 812.11C198.59 813.43 201.98 814.56 206.02 815.76C206.92 811.97 209.87 808.65 212.8 804.86Z" fill="#F5BDB5"/>
<path d="M191.49 800.37C195.96 799.46 200.69 799.8 204.91 801.33C205.31 801.48 205.76 801.69 205.84 802.09C205.93 802.54 205.48 802.96 205.01 803.06C204.54 803.16 204.05 803.04 203.57 802.98C203.09 802.91 202.56 802.91 202.18 803.2C201.56 803.66 201.69 804.62 202.18 805.2C202.66 805.78 203.39 806.12 203.95 806.63C204.51 807.14 204.92 807.96 204.53 808.61C204.13 809.29 203.13 809.4 202.35 809.19C201.57 808.98 200.88 808.54 200.08 808.41C199.28 808.28 198.28 808.62 198.13 809.38C197.99 810.06 198.61 810.65 199.26 810.95C199.91 811.25 200.65 811.41 201.18 811.87C201.71 812.33 201.86 813.28 201.23 813.64C200.82 813.88 200.29 813.75 199.84 813.6C198.37 813.11 196.94 812.51 195.57 811.8C194.06 811.02 192.6 810.11 191.48 808.88C190.36 807.65 188.82 806.79 188.84 805.15C188.85 803.48 190.3 800.61 191.49 800.37Z" fill="#80A3FF"/>
<path d="M230.58 815.24C230.58 815.24 212.45 804.74 212.23 804.51C207.98 806.55 205.14 811.03 205.28 815.48C205.28 815.48 227.95 824.15 228.28 824.13C227.4 820.84 228.49 817.28 230.58 815.24Z" fill="#272525"/>
<path d="M230.58 815.13C275.07 836.81 319.56 858.48 364.06 880.16C365.55 880.89 367.25 881.92 367.21 883.52C367.17 884.99 365.54 886.08 363.99 886.16C362.44 886.24 360.98 885.59 359.6 884.95C339.47 875.66 319.34 866.38 299.21 857.09C276.68 846.7 254.15 836.3 231.62 825.91C229.96 825.15 228.27 824.36 227 823.1C225.73 821.84 224.96 819.99 225.5 818.3C226.05 816.6 228.23 815.38 230.58 815.13Z" fill="#F3CD51"/>
<path d="M290.83 854.05C284.75 856.68 278.52 856.16 276.08 853.71C273.74 851.36 269.64 845.94 267.87 843.14C266.1 840.35 262.46 834.18 258.98 834.41C255.44 834.65 252.63 837.83 252.09 841.14C251.55 844.45 252.85 847.77 254.66 850.61C256.47 853.45 258.79 855.96 260.6 858.79C265.06 865.74 266.25 874.21 270.23 881.43C273.42 887.21 278.31 892.01 281.51 897.78C284.08 902.41 285.51 907.61 285.67 912.88C285.69 913.6 285.69 914.35 286.02 915C286.34 915.65 287.09 916.17 287.84 916.01C288.5 915.87 288.93 915.29 289.29 914.75C295.57 905.42 300.19 894.92 301.2 883.99C302.21 873.09 300.33 863.57 290.83 854.05Z" fill="#E3637A"/>
<path d="M303.78 838.31C302.05 836.9 300.32 835.48 298.59 834.06C290.45 827.36 280.76 822.86 270.44 821.3C266.73 820.74 263 820.27 259.28 819.81C257.95 819.64 256.6 819.48 255.28 819.73C253.96 819.98 252.66 820.72 252.13 821.89C251.19 823.97 253.01 826.19 254.95 827.45C262.43 832.26 273.17 831.41 279.98 837.03C281.76 838.5 283.23 840.38 285.38 841.32C287.67 842.32 290.42 842.09 292.81 841.21C295.2 840.33 297.31 838.88 303.78 838.31Z" fill="#E3637A"/>
<path d="M266.26 871.66C264.75 867.62 262.01 861.67 260.22 857.68C258.48 854.53 256.66 850.88 255.16 847.43C254.06 844.85 252.65 841.98 253.3 839.05C253.47 838.11 253.82 837.12 254.56 836.49C252.24 839.82 254.37 843.87 255.95 847.07C257.6 850.5 259.3 853.9 261.09 857.26C263.05 861.95 265.04 866.69 266.26 871.66Z" fill="black"/>
<path d="M259.37 834.42C266.22 835.92 267.14 844.19 272.07 848.1C273.62 849.53 275.38 850.72 277.1 851.94C273.19 850.22 269.45 847.61 267.29 843.82C265.25 840.13 263.51 836.08 259.37 834.42Z" fill="black"/>
<path d="M271.75 848.81C277.26 852.44 283.75 853.44 290.24 853.62C283.91 854.9 276.37 853.6 271.75 848.81Z" fill="black"/>
<path d="M256.78 849.16C254.79 849.41 252.91 848.37 251.18 847.54C250.61 847.25 250.06 846.95 249.45 846.66C250.12 846.53 250.82 846.65 251.45 846.81C253.38 847.29 255 848.3 256.78 849.16Z" fill="black"/>
<path d="M307.73 839.97C294.61 829.12 278.75 821.74 262.15 818.77C260.01 818.39 257.76 818.08 255.71 818.79C253.66 819.5 251.89 821.52 252.17 823.72C252.46 825.97 254.6 827.42 256.53 828.56C273.95 838.84 276.06 833.78 293.48 844.06C294.6 844.72 303.85 849.98 305.09 849.64C307.21 849.06 313.26 856.28 312.89 854.07C311.97 848.66 311.81 843.34 307.73 839.97Z" fill="#E3637A"/>
<path d="M265.14 820.46C262.31 820.02 259.47 819.87 256.63 820.12C254.81 820.13 253.66 821.79 255.74 822.75C258.37 823.46 261.36 823.84 264.05 824.52L263.79 824.59C264.99 823.61 265.62 822 265.14 820.46ZM265.14 820.46C265.92 821.92 265.45 824.28 263.97 825.11C261.04 824.65 258.26 824.46 255.37 823.67C252.44 822.4 253.58 819.17 256.58 819.25C259.47 819.16 262.4 819.54 265.14 820.46Z" fill="black"/>
<path d="M264.37 845.44C263.38 843.73 262.29 842.1 261.12 840.55C260.19 839.41 258.68 837.09 257.15 838.23C255.9 839.65 257.19 841.66 257.72 843.19C258.47 844.97 259.36 846.7 260.39 848.36L259.91 848.32C261.2 847.11 262.69 846.03 264.37 845.44ZM264.37 845.44C262.82 846.29 261.53 847.49 260.35 848.76C260.22 848.91 259.98 848.88 259.87 848.72C258.68 847.13 257.66 845.4 256.84 843.58C256.1 841.72 254.72 839.33 256.5 837.52C259.88 834.81 263.38 843.08 264.37 845.44Z" fill="black"/>
</g>
</g>
</g>
</svg>
