<svg width="386" height="346" viewBox="0 0 386 346" fill="none" xmlns="http://www.w3.org/2000/svg">
<path d="M384.62 114.124C383.155 111.091 380.502 109.349 377.498 108.471C379.936 107.015 380.409 101.478 380.164 99.1745C379.757 87.8899 370.169 78.4348 359.358 76.3812C358.479 76.3329 355.778 75.7544 354.477 76.2203C354.317 72.9576 353.773 69.7126 352.702 66.555C350.728 60.8881 347.189 55.0231 341.267 52.9211C339.397 52.3426 337.389 51.9343 335.437 52.2701C334.752 52.3287 333.631 52.6589 332.69 52.6747C332.102 51.1512 331.215 49.758 329.906 48.5954C324.883 44.7337 318.19 45.8684 312.435 47.1296C309.004 47.7825 305.706 48.9014 302.539 50.3216C302.573 49.0846 302.337 47.6709 302.241 47.045C300.264 38.9887 293.706 33.0288 285.306 32.7414C285.221 32.7265 285.147 32.6744 285.067 32.6382C284.28 28.1004 279.866 24.514 275.197 23.8564C272.107 23.3151 268.959 23.849 265.934 24.5307C262.057 25.4794 258.127 26.3965 254.481 28.0436C253.792 28.5328 251.296 29.4285 250.239 30.4265C244.837 22.3627 235.809 16.4029 225.854 17.8296C220.111 18.3114 214.736 23.8853 215.384 29.5866C210.679 24.1373 203.041 25.0776 198.635 30.791C192.046 37.5387 190.103 47.1324 187.935 55.9866C186.754 61.0593 186.098 66.2574 185.902 71.4798C185.092 71.2705 184.051 71.2807 183.464 71.1673C183.288 71.1514 183.117 71.184 182.942 71.1766C181.718 65.877 180.202 60.6435 177.67 55.8174C171.731 44.7486 162.646 35.1391 151.261 29.6433C143.781 26.3388 135.662 24.9604 127.821 22.8073C123.372 21.7136 119.274 19.6228 114.969 18.1123C111.402 16.7684 107.836 15.2858 104.755 13.0053C100.538 10.0551 98.5962 5.00949 95.2917 1.26224C92.6186 -0.220292 93.4622 4.03942 93.5394 5.56102C93.8249 10.3369 94.356 15.0896 95.061 19.8264C96.3315 30.4832 99.3942 40.8591 100.071 51.5967C100.919 59.5191 100.268 67.5028 100.441 75.4753C100.46 83.46 101.724 91.3702 103.989 99.0266C105.629 105.1 107.878 111.036 111.056 116.49C111.371 117.046 111.735 117.567 112.07 118.109C108.974 117.011 102.436 116.462 101.005 116.177C80.7389 112.669 60.188 119.447 43.3882 130.669C33.2206 137.733 22.8336 147.011 9.76147 146.926C9.01835 146.988 7.58976 146.753 6.04863 146.514C3.49094 146.122 0.62539 145.728 0.0868796 146.718C-0.517666 148.648 2.18977 149.772 3.35701 150.9C6.16489 153.057 9.02672 155.144 12.0532 156.986C19.0668 161.161 26.792 163.879 34.1721 167.3C37.1418 168.718 40.1413 170.585 42.6683 172.819C48.4617 178.811 53.3753 183.746 59.4114 187.576C59.2952 188.225 59.1947 188.875 58.9882 189.515C58.2591 193.095 55.387 195.702 54.5267 199.231C53.2748 204.681 57.2611 210.669 62.17 212.872C59.2617 215.683 57.5875 219.806 54.1909 222.224C49.0355 225.749 42.2079 227.092 38.4039 232.476C30.2946 242.558 34.1702 255.104 42.6292 263.553C47.0601 268.372 53.3939 271.035 59.7137 272.345C58.3195 278.075 58.6674 284.748 63.7539 288.252C67.0082 290.235 70.8364 291.079 74.0219 293.194C80.2031 297.576 85.418 304.328 93.3906 305.433C94.1998 305.538 94.9894 305.587 95.7669 305.587C100.88 305.587 105.421 303.407 109.356 300.174C108.813 302.187 109.668 304.735 110.775 306.421C113.553 310.895 118.782 313.02 123.846 313.538C129.583 314.086 134.11 309.366 139.824 309.189C143.843 309.261 148.034 309.266 151.345 306.632C157.569 301.967 159.536 293.241 158.918 285.815C158.817 285.31 158.677 283.99 158.405 282.749C160.337 283.677 162.406 284.382 164.738 284.625C165.506 284.721 166.263 284.767 167.01 284.767C178.978 284.766 188.063 272.865 189.133 261.494C189.277 259.478 188.984 257.525 188.59 255.586C193.743 255.584 198.71 253.705 203.07 250.978C205.322 250.384 207.483 249.542 209.466 248.347C208.903 249.291 208.392 250.263 207.812 251.197C207.785 251.406 207.689 251.602 207.527 251.732C207.439 251.853 207.364 251.983 207.283 252.109C207.281 252.108 207.279 252.103 207.275 252.102C207.134 252.324 206.998 252.551 206.853 252.769C206.822 252.816 206.788 252.863 206.758 252.91C206.645 253.077 206.533 253.245 206.409 253.411C203.898 257.309 201.233 261.114 198.425 264.823C192.775 272.86 186.998 280.867 180.855 288.555C178.66 291.31 176.504 294.097 174.357 296.893C173.871 296.654 173.315 297.265 172.856 297.471C155.919 306.285 144.981 315.472 139.538 334.446C138.307 337.989 136.529 341.281 134.727 344.556C134.552 344.856 134.34 345.43 134.835 345.523C141.287 342.523 147.203 338.098 152.84 333.726C163.989 324.255 170.878 311.013 175.84 297.469C178.818 293.641 181.798 289.82 184.818 286.054C190.049 279.588 194.712 272.728 199.535 265.954C200.193 265.074 200.821 264.171 201.466 263.281C200.517 269.941 199.7 276.872 199.56 283.776C198.077 294.441 195.467 305.923 199.925 316.136C202.067 320.923 205.965 324.469 209.611 328.098C212.377 330.93 215.074 333.924 217.349 337.188C219.262 339.612 219.921 342.896 221.808 345.268C223.215 345.887 223.108 341.207 223.438 340.215C224.449 333.976 224.698 327.584 223.229 321.397C222.416 317.465 221.151 313.634 219.09 310.17C216.245 305.133 212.064 301.039 208.839 296.259C205.181 290.662 202.449 284.192 201.605 277.502C201.942 272.772 202.481 268.068 203.03 263.485C203.139 262.524 203.214 261.584 203.384 260.624C204.484 259.053 205.549 257.456 206.602 255.851C206.671 257.166 206.816 258.369 207.004 259.516C207.202 268.266 207.604 276.029 216.721 280.272C220.796 282.06 224.256 284.814 227.643 287.633C228.684 287.656 227.59 285.334 227.55 284.659C226.864 281.767 226.028 278.886 224.557 276.286C222.602 272.705 220.343 269.207 217.313 266.437C214.643 263.749 211.053 262.038 208.697 259.057C208.565 258.856 208.442 258.642 208.313 258.436C208.103 257.05 207.963 255.533 207.882 253.892C210.031 250.531 212.065 247.099 213.979 243.6C214.792 243.787 215.604 243.985 216.424 244.114C217.475 244.159 218.763 244.054 220.045 243.921C221.057 244.33 221.994 244.975 222.876 245.751C222.872 250.565 223.532 255.44 224.5 260.082C229.226 277.01 241.92 290.243 254.683 301.72C261.334 307.523 267.254 314.699 275.574 318.142C297.989 327.736 322.8 319.475 342.469 336.956C342.874 337.164 343.205 337.257 343.471 337.257C345.504 337.257 343.791 331.857 343.848 330.328C343.278 325.548 343.71 320.661 343.783 315.839C346.224 289.761 349.632 267.605 337.442 244.628C341.098 243.937 344.665 242.843 347.995 241.14C358.063 236.486 365.833 220.715 363.224 209.94C362.055 203.948 357.753 199.306 353.441 195.259C352.752 194.765 350.525 192.608 348.719 191.547C352.801 188.532 355.29 183.766 354.696 179.427C355.003 179.611 355.341 179.753 355.697 179.798C361.254 180.153 368.383 174.233 370.224 169.153C370.739 167.552 370.973 165.806 370.63 164.119C370.228 161.962 368.773 160.315 368.268 158.177C367.887 156.65 368.474 155.075 368.769 153.579C369.615 150.752 368.744 147.977 366.961 145.868C368.697 144.706 370.418 143.515 372.036 142.195C379.101 135.812 389.008 124.192 384.62 114.124ZM166.085 315.892C158.332 328.866 147.839 337.035 135.156 344.802C138.921 338.644 141.151 331.786 144.155 325.27C149.78 314.269 159.73 306.384 170.306 300.414C171.213 299.868 172.091 299.279 172.977 298.699C162.173 312.836 151.673 327.226 139.299 340.047C152.383 327.694 163.51 313.332 174.61 299.051C171.861 304.712 169.413 310.533 166.085 315.892ZM205.833 293.415C208.341 298.408 212.162 302.532 215.673 306.822C224.025 317.384 224.722 331.767 221.978 344.509C220.51 341.875 219.702 338.85 217.954 336.351C215.11 332.02 211.573 328.205 207.944 324.527C197.999 315.596 198.445 303.917 199.766 292.109C200.391 300.477 202.386 308.609 206.824 315.925C211.112 323.513 218.175 329.219 220.497 337.843C219.084 329.891 212.677 323.985 208.8 317.114C201.766 305.821 200.729 292.672 201.475 279.622C202.116 284.364 203.798 289.201 205.833 293.415ZM208.987 259.899C211.75 263.392 215.652 265.613 218.6 268.953C223.092 274.049 226.144 280.256 227.46 286.933C216.365 276.43 209.522 279.654 208.098 263.861C210.634 270.993 216.141 274.944 223.527 281.306C215.405 273.056 210.111 269.175 208.405 258.949C208.6 259.271 208.782 259.61 208.987 259.899ZM313.096 48.7358C318.483 47.5918 325.064 46.3995 329.52 50.5467C333.075 54.6353 333.277 62.938 332.351 68.0897C333.352 63.5686 334.429 57.7863 332.84 53.136C333.57 53.2597 334.397 53.2327 335.025 53.3108C337.181 53.349 339.294 53.921 341.278 54.758C346.625 57.0711 349.645 62.6292 351.398 67.9343C353.864 75.6362 353.094 83.9697 350.711 91.6242C348.886 97.4008 346.107 102.988 342.265 107.822C341.629 108.625 340.861 109.445 340.148 110.252C332.959 106.724 324.397 107.29 317.015 110.077C304.305 114.656 294.157 123.753 283.435 131.641C282.894 132.01 282.328 132.325 281.785 132.686C283.176 131.003 284.035 129.116 283.171 127.26C282.555 126.285 281.388 125.727 280.244 125.781C276.311 126.051 273.072 128.589 270.03 130.865C272.525 127.637 279.288 118.379 270.854 118.506C266.236 119.997 262.731 123.901 259.796 127.614C261.464 124.135 263.403 120.657 264.222 116.863C264.984 116.053 265.748 115.24 266.492 114.444C271.937 108.605 277.279 102.439 280.654 95.1296C284.228 88.328 285.633 80.6558 285.606 73.0107C285.56 70.6204 285.312 68.2227 284.635 65.917C285.304 65.6064 285.807 64.5498 286.381 64.1108C293.44 56.5289 302.82 50.6518 313.096 48.7358ZM325.406 142.933C325.392 142.941 325.4 142.957 325.413 142.957L325.417 142.956C327.893 142.06 330.465 141.295 333.005 140.446C336.3 139.906 339.046 141.035 337.237 145.723C335.744 148.811 332.649 150.921 329.841 152.773C323.227 156.789 315.881 159.747 308.324 161.554C306.811 161.922 305.28 162.251 303.74 162.49C303.708 162.494 303.695 162.529 303.666 162.536C302.329 161.903 300.962 161.351 299.581 160.851C309.322 158.367 319.214 154.782 326.932 148.324C317.871 152.757 308.86 157.564 299.278 160.75C294.056 158.912 288.585 158.257 283.248 160.623C282.597 159.014 281.419 157.812 280.016 156.875C280.822 156.428 281.57 155.55 281.99 154.93C283.809 151.745 279.88 151.626 277.738 152.095C280.156 151.376 286.639 148.69 283.122 145.652C280.515 144.551 277.372 145.436 274.711 146.03C278.053 144.227 281.993 143.06 284.52 140.079C285.513 138.985 286.319 136.843 284.748 135.889C283.028 135.297 281.172 135.717 279.391 136.24C282.914 134.038 286.36 131.714 289.61 129.124C299.393 121.464 309.614 113.456 321.882 110.309C327.847 108.791 334.356 108.996 339.899 111.9C346.939 115.49 350.468 123.481 345.742 130.444C341.528 137.819 332.647 139.737 325.406 142.933ZM269.421 187.556C268.901 187.514 268.439 187.437 267.932 187.388C280.453 187.882 297.359 182.24 307.429 175.195C308.084 174.703 308.725 174.146 309.304 173.585C308.1 174.505 306.7 175.499 305.31 176.288C292.177 183.11 277.226 186.764 262.415 186.644C251.208 184.687 243.109 180.26 233.528 172.229C233.801 172.056 234.07 171.843 234.337 171.619C243.216 166.542 251.22 159.692 261.152 156.729C265.379 155.689 269.872 154.694 274.228 155.859C282.116 157.742 284.799 162.805 281.753 170.363C281.61 170.9 281.202 171.662 281.195 172.072C282.478 168.733 284.52 165.089 283.503 161.41C291.451 158.672 299.888 162.343 306.896 166.075C308.986 167.26 311.184 168.436 313.178 169.815C313.671 170.213 314.302 170.668 314.328 171.36C312.442 176.012 307.444 178.791 303.18 181.162C292.813 186.315 280.967 188.326 269.421 187.556ZM189.224 200.061C186.843 200.906 184.391 201.547 181.892 201.999C181.91 197.163 179.991 192.504 175.896 189.601C181.159 191.883 186.823 193.137 192.571 193.512C192.448 193.708 192.302 193.887 192.182 194.084C190.936 195.972 190.006 197.993 189.224 200.061ZM168.878 216.039C170.887 214.442 172.347 212.143 173.424 209.751C177.489 201.486 168.165 195.738 162.115 192.119C158.373 189.629 155.504 186.045 153.686 181.927C151.616 177.592 149.625 172.191 146.552 168.079C149.11 170.819 151.242 174.118 153.905 176.673C158.634 181.541 165.286 183.813 170.67 187.849C173.563 190.029 177.048 192.136 178.754 195.494C181.366 201.056 180.326 208.509 175.48 212.595C173.477 214.339 171.24 215.382 168.878 216.039ZM138.798 229.709C140.417 227.858 138.998 225.888 135.735 226.745C135.755 226.735 135.775 226.724 135.794 226.715C138.965 225.658 142.461 224.413 145.382 226.007C145.686 226.207 145.675 226.615 145.466 226.916C143.714 228.72 141.286 229.302 138.798 229.709ZM131.506 251.59C131.387 251.836 131.128 252.113 130.824 252.14L130.82 252.137C129.052 251.884 127.984 247.858 127.477 245.601C128.078 244.424 128.088 242.59 127.984 241.472C128.898 243.948 130.207 245.301 131.286 245.661C131.875 247.625 132.151 249.63 131.506 251.59ZM133.137 244.261C133.241 243.321 133.006 241.972 132.206 240.183C133.183 240.969 134.024 241.357 134.759 241.551C136.677 243.586 138.295 246.033 138.451 248.714C138.427 248.933 138.296 249.122 138.066 249.133C137.565 249.114 137.103 248.768 136.702 248.464C135.35 247.239 134.227 245.761 133.137 244.261ZM130.76 237.991C129.708 238.173 130.824 239.147 131.045 239.621C131.863 241.082 132.283 242.894 132.008 244.581C131.922 244.661 131.83 244.731 131.723 244.774C131.455 244.795 131.111 244.56 130.91 244.4C129.486 243.179 128.746 241.27 128.238 239.492C128.146 239.183 128.128 238.771 127.837 238.569C126.577 238.138 127.377 240.487 127.213 241.145C127.075 242.537 127.274 244.859 125.735 245.542C123.775 245.017 123.756 241.115 123.569 239.431C123.453 238.859 123.865 237.603 122.971 237.613C122.798 237.647 122.658 237.774 122.622 237.946C122.502 238.709 122.347 239.487 122.132 240.235C121.674 241.473 121.151 243.194 119.717 243.622L119.716 243.63C117.876 242.762 118.732 239.526 119.146 237.949C119.192 237.388 120.315 235.76 119.162 235.819C118.831 235.927 118.757 236.37 118.68 236.663C118.268 238.267 117.494 240.556 115.638 240.838C115.229 240.873 114.932 240.434 114.85 240.06C114.457 237.961 116.232 236.161 116.697 234.487C116.325 233.622 115.775 234.548 115.435 234.908C114.297 235.859 112.403 237.089 110.967 236.093C110.568 235.831 110.618 235.415 110.877 235.06C111.939 233.841 113.822 233.627 115.345 233.442C115.557 233.392 115.734 233.246 115.749 233.011C115.78 232.71 115.511 232.504 115.226 232.505C113.951 232.171 112.662 231.726 111.497 231.084C111.262 230.939 111.022 230.754 110.95 230.472C110.956 228.949 115.249 229.971 116.221 230.21C116.808 230.387 118.085 230.987 118.052 229.905C118.021 229.744 117.91 229.591 117.758 229.52C116.606 228.84 115.466 228.045 114.592 227.014C112.971 224.907 113.564 223.795 116.158 224.914C117.458 225.497 118.65 226.426 119.643 227.453C119.913 227.813 120.532 228.098 120.76 227.541C120.821 227.348 120.79 227.152 120.659 226.998C119.67 226.209 118.661 225.454 117.948 224.379C116.51 222.606 116.571 220.055 119.094 222.486C120.152 223.585 120.937 224.965 121.827 226.204C121.943 226.298 122.108 226.364 122.281 226.301C123.149 225.825 121.963 225.033 121.727 224.503C120.947 222.901 119.983 221.204 120.101 219.365C120.305 217.784 120.966 218.422 121.536 219.406C122.402 221.103 123.074 222.906 123.787 224.676C123.887 224.892 124.161 224.98 124.373 224.88C124.558 224.792 124.677 224.553 124.596 224.349C124.115 223.283 123.571 222.234 123.507 221.043C123.397 220.232 123.058 215.519 124.526 216.135C126.456 218.152 126.308 221.274 126.815 223.888C126.779 224.401 127.131 225.261 127.731 224.745C128.127 222.117 127.981 218.918 130.298 217.025C131.641 215.988 131.808 217.026 131.789 218.244C131.713 220.642 130.836 223.006 129.823 225.193C129.669 225.414 129.489 225.79 129.802 225.954C129.929 226.016 130.099 226.001 130.191 225.884C130.662 225.018 131.371 224.299 132.058 223.596C132.76 223.035 134.945 220.746 135.74 221.625C136.417 224.091 132.189 227.654 130.664 229.46C130.396 230.095 131.116 230.176 131.504 229.829C132.981 229.007 134.495 228.222 136.199 227.951C137.149 227.843 139.091 227.72 137.92 229.165C136.708 230.382 134.883 230.829 133.249 231.177C132.782 231.191 132.12 231.43 132.309 232.016C132.532 232.53 133.226 232.544 133.696 232.706C134.608 233.023 135.521 233.385 136.366 233.863C136.788 234.166 138.31 235.28 137.342 235.67C136.075 235.98 134.695 235.7 133.412 235.367C132.755 235.276 131.229 234.118 131.147 235.363C131.23 235.734 131.629 235.87 131.948 235.971C133.298 236.595 134.575 237.56 135.553 238.709C135.898 239.168 136.715 240.812 135.563 240.68C133.695 240.368 132.395 238.783 130.76 237.991ZM115.823 229.111C115.061 229.071 114.238 228.956 113.425 228.921C112.936 228.755 112.435 228.634 111.946 228.448C109.485 227.307 106.37 226.549 104.779 224.204C104.421 222.979 106.697 223.049 107.471 222.975C109.547 223.046 111.591 223.554 113.56 224.246C112.558 225.096 113.57 227.488 115.823 229.111ZM113.774 232.92C113.312 233.061 112.757 233.223 112.212 233.428C111.908 233.454 111.603 233.472 111.3 233.516C110.087 233.519 103.613 233.034 104.398 231.139C106.196 229.985 108.358 229.605 110.541 229.65C109.24 231.502 112.476 232.397 113.774 232.92ZM112.376 237.301C110.881 237.785 109.357 238.163 107.78 238.279C104.549 237.975 105.693 236.82 107.749 235.66C108.561 235.164 109.433 234.878 110.325 234.657C110.059 235.015 109.905 235.444 109.951 235.977C110.386 237.121 111.355 237.42 112.376 237.301ZM114.383 236.592C114.378 236.595 114.371 236.597 114.366 236.599C114.374 236.594 114.381 236.589 114.39 236.583C114.387 236.587 114.385 236.59 114.383 236.592ZM114.079 240.687C114.36 241.424 114.878 241.714 115.453 241.728C114.988 242.124 114.533 242.534 114.013 242.862C112.912 243.501 109.541 246.301 108.501 245.065C108.593 242.28 111.49 239.8 114.2 237.929C113.906 238.837 113.745 239.777 114.079 240.687ZM117.888 241.608C118.033 244.134 119.362 244.996 120.652 244.252C119.448 246.847 117.37 250.599 115.835 250.251C115.708 250.185 115.596 249.989 115.535 249.851C114.957 247.717 115.974 245.514 116.871 243.596C117.185 242.921 117.533 242.263 117.888 241.608ZM122.287 244.99C122.294 244.832 122.306 244.675 122.314 244.517C122.31 244.509 122.31 244.501 122.31 244.493C122.237 244.224 122.276 243.939 122.291 243.661C122.31 243.353 122.333 243.041 122.352 242.733C122.356 242.722 122.356 242.706 122.356 242.695C122.352 242.629 122.352 242.563 122.348 242.498L122.346 242.496C122.345 242.443 122.344 242.39 122.34 242.337C122.337 242.27 122.334 242.203 122.333 242.136C122.321 242.123 122.303 242.116 122.291 242.105C122.467 241.674 122.634 241.218 122.747 240.675C123.088 242.732 123.082 245.623 125.245 246.643C125.416 246.684 125.546 246.658 125.698 246.665C125.59 248.416 125.338 250.143 124.582 251.712C124.424 251.819 124.201 251.769 124.032 251.696C121.859 250.305 122.098 247.262 122.287 244.99ZM117.93 221.058C116.481 220.706 115.698 222.08 117.117 224.395C115.707 223.374 114.255 222.413 112.752 221.512C110.733 219.363 109.234 216.92 110.176 214.893C112.562 214.329 115.527 218.059 117.93 221.058ZM123.701 208.156C125.322 209.381 125.403 211.761 125.931 213.621C126.164 214.815 126.374 216.025 126.552 217.241C125.421 214.962 123.582 214.372 122.881 216.223C122.013 212.511 121.482 208.316 123.701 208.156ZM136.083 220.657C134.797 219.783 132.55 222.043 131.583 223.076C132.155 221.502 132.998 219.452 132.782 217.675C133.524 216.705 134.352 215.809 135.458 215.157C136.42 214.672 137.719 213.716 138.839 214.182C139.758 215.882 137.488 218.805 136.083 220.657ZM131.654 215.771C129.775 215.211 128.317 217.615 127.706 219.497C127.688 219.253 127.666 219.01 127.648 218.768C128.028 215.14 128.89 211.134 131.918 209.196C133.223 210.243 132.63 212.993 131.654 215.771ZM117.789 210.618C120.149 212.99 121.507 216.139 122.738 219.263C122.778 219.646 122.767 219.954 122.85 220.395C120.374 215.582 118.825 218.648 119.939 222.006C118.456 219.663 116.909 217.361 116.064 214.678C115.636 213.253 114.92 211.451 115.713 210.033C116.388 209.505 117.215 210.16 117.789 210.618ZM133.268 227.773C133.352 227.676 133.452 227.572 133.54 227.472C133.554 227.489 133.575 227.489 133.591 227.503C133.574 227.508 133.561 227.484 133.545 227.498C133.465 227.573 133.406 227.668 133.327 227.747C133.305 227.759 133.29 227.76 133.268 227.773ZM134.794 236.697C135.915 236.915 136.713 236.858 137.361 236.699C139.478 237.311 141.547 238.051 143.308 239.453C143.72 239.846 144.321 240.266 144.318 240.89C144.26 241.117 144.017 241.218 143.817 241.295C141.788 241.723 139.647 241.222 137.674 240.674C137.483 240.618 137.3 240.545 137.113 240.482C137.26 239.486 136.618 238.052 134.794 236.697ZM134.951 231.777C135.325 231.68 135.566 231.536 135.89 231.42C139.499 231.125 143.499 230.857 146.537 233.038C147.111 233.484 147.168 234.162 146.556 234.632C144.268 235.871 141.426 235.794 138.795 235.553C139.163 234.211 137.693 232.263 134.951 231.777ZM136.759 221.862C137.785 221.009 138.869 220.242 140.137 219.76C143.614 218.816 141.986 221.859 140.372 223.03C138.57 224.441 136.447 225.482 134.386 226.533C135.615 225.179 136.813 223.675 136.759 221.862ZM142.744 219.13C141.753 218.346 139.63 218.589 138.023 219.875C143.281 211.945 136.942 211.55 132.596 216.889C132.563 216.794 132.534 216.698 132.493 216.606C136.625 204.992 128.493 205.529 127.379 216.004C127.273 214.958 127.171 213.912 126.955 212.878C126.211 208.301 124.385 206.652 123.003 207.143C121.226 197.142 122.213 186.328 127.27 177.372C127.601 176.732 128.083 176.029 128.364 175.413C121.605 184.223 120.361 196.558 122.937 207.171C121.575 207.729 120.679 210.394 121.76 214.411C120.865 212.39 119.85 210.97 118.868 210.039C113.217 199.889 108.172 188.815 111.505 178.182C114.91 166.863 129.499 160.515 140.487 163.705C141.259 163.999 141.978 164.365 142.659 164.782C148.459 169.843 150.531 179.215 154.444 185.576C156.831 189.84 160.451 193.245 164.619 195.744C170.893 199.68 175.122 204.367 170.992 211.869C170.013 214.093 168.211 215.691 166.037 216.653C160.149 217.558 153.699 216.722 147.931 217.821C147.228 217.927 145.179 218.427 142.744 219.13ZM108.542 153.365C108.318 153.207 107.98 153.226 107.799 153.438C106.076 155.485 104.283 157.473 102.365 159.342C97.668 164.011 92.5749 168.229 87.5098 172.482C83.836 170.488 79.899 169.206 75.6597 169.285C84.3773 164.193 94.4937 158.885 99.5319 149.835C99.5979 149.714 99.5709 149.606 99.5672 149.494C105.979 150.292 112.27 151.786 118.333 154.176C114.157 159.49 108.738 163.612 103.702 168.063C107.896 164.913 112.398 161.783 116.338 158.206C116.827 157.614 119.157 155.681 119.368 154.577C119.947 154.816 120.541 154.996 121.116 155.254C121.607 155.494 122.069 155.79 122.555 156.041C115.619 165.112 106.763 172.614 97.6866 179.5C94.5169 177.032 91.1649 174.478 87.5712 172.518C93.4501 168.306 99.6407 164.124 104.7 158.825C105.27 158.063 109.689 153.94 108.542 153.365ZM116.449 165.448C119.128 162.765 121.907 160.046 123.69 156.66C126.31 158.075 128.855 159.623 131.309 161.325C125.361 162.076 119.58 164.802 115.242 168.8C110.935 173.091 108.567 179.346 108.687 185.404C108.728 186.979 108.912 188.511 109.155 190.027C106.399 185.938 102.498 182.873 98.3721 180.029C98.1861 179.885 97.9926 179.736 97.8056 179.59C104.457 175.599 110.994 171.076 116.449 165.448ZM144.826 159.505C143.835 156.16 142.425 152.877 140.534 149.931C143.319 151.943 146.267 153.686 149.396 155.091C152.085 160.176 155.598 164.938 159.315 169.025C160.507 173.108 161.327 177.312 163.191 181.156C160.991 179.856 158.812 178.522 156.782 176.968C152.628 173.522 149.798 168.275 145.678 164.798C145.523 163.015 145.306 161.232 144.826 159.505ZM113.515 117.256C113.211 116.762 112.947 116.251 112.659 115.75C120.255 120.914 128.559 125.466 137.946 125.889C139.51 126.096 148.847 126.037 150.097 124.26C150.575 124.88 151.089 125.469 151.647 126.025C151.182 126.118 150.729 126.262 150.296 126.476C146.969 127.905 145.064 131.228 144.598 134.724C144.582 134.725 144.567 134.711 144.55 134.714C141.207 135.632 137.763 135.777 134.282 135.377C131.479 135.109 128.652 134.624 126.005 133.625C125.455 132.976 124.89 132.335 124.346 131.682C120.701 127.035 116.711 122.298 113.515 117.256ZM133.179 136.232C134.459 136.718 141.711 137.384 144.4 136.368C144.328 138.598 144.552 140.85 144.992 143.096C142.716 143.56 140.417 144.062 138.089 143.657C139.799 144.118 141.842 144.196 143.678 144.288C144.051 144.239 144.687 144.302 145.219 144.233C145.915 147.254 147.031 150.25 148.428 153.166C146.097 151.817 143.789 150.403 141.834 148.996C135.859 144.733 130.845 139.325 126.101 133.74C128.329 134.795 130.778 135.658 133.179 136.232ZM181.766 183.308C183.34 185.904 184.663 188.732 186.637 191.077C183.735 190.587 180.846 189.974 178.001 189.228C177.994 189.158 178.001 189.088 177.948 189.018C176.614 187.227 175.329 185.398 174.073 183.553C173.07 182.099 172.219 180.542 171.395 178.974C174.661 180.796 178.165 182.183 181.766 183.308ZM171.169 178.834C172.681 182.342 174.471 185.869 176.826 188.917C175.788 188.627 174.769 188.305 173.752 187.967C170.719 185.606 167.422 183.635 164.105 181.696C164.323 181.555 164.424 181.275 164.323 181.03C164.027 180.302 163.711 179.578 163.403 178.854C162.109 175.776 160.974 172.636 159.768 169.523C161.137 171.002 162.526 172.397 163.909 173.67C166.147 175.678 168.591 177.377 171.169 178.834ZM193.678 191.888C192.691 191.878 191.697 191.84 190.674 191.716C189.687 191.575 188.692 191.404 187.699 191.244C187.692 191.158 187.768 191.077 187.713 191.006C187.262 190.417 186.766 189.89 186.279 189.334C184.581 187.541 183.169 185.186 181.782 183.311C186.963 184.928 192.358 185.958 197.652 186.62C197.661 186.621 197.669 186.619 197.678 186.62C197.481 186.898 197.291 187.161 197.095 187.344C195.912 188.825 194.768 190.337 193.678 191.888ZM197.241 171.553C198.976 168.404 195.491 167.893 193.326 166.964C187.712 164.847 183.789 148.621 183.025 142.929C182.42 138.258 184.117 133.672 185.437 129.248C185.917 127.352 185.902 125.46 186.415 123.555C188.726 117.845 195.148 125.918 197.885 127.788C198.429 128.232 198.988 128.634 199.525 129.066C200.152 132.625 201.757 136.043 203.264 139.287C205.999 144.868 209.802 149.845 213.573 154.762C218.635 161.303 224.461 167.349 231.26 172.112C231.553 172.356 231.826 172.47 232.092 172.534C232.21 172.726 232.367 172.896 232.543 173.046C238.674 188.292 248.575 210.568 221.19 198.836C216.032 196.294 211.257 193.365 206.455 190.115C200.52 186.181 192.943 179.278 197.241 171.553ZM209.136 125.427C208.621 127.114 209.361 128.911 209.752 130.561C210.172 131.981 210.784 133.711 211.552 134.858C210.661 132.956 208.304 126.307 210.806 125.122C216.869 124.477 223.364 130.254 226.988 134.704C231.78 140.835 235.637 147.813 238.291 155.151C240.424 163.175 239.342 166.223 232.405 170.806C221.692 163.533 213.648 153.054 206.685 142.265C203.994 137.321 201.145 131.838 200.993 126.015C201.516 121.381 206.874 123.078 209.136 125.427ZM205.636 114.386C204.952 108.029 204.95 101.59 205.489 95.2058C206.259 88.009 207.491 77.7894 215.58 75.3089C216.181 75.2335 216.922 75.1926 217.421 75.6251C217.548 75.7469 217.617 75.9311 217.691 76.1078C217.03 78.9882 217.083 82.05 216.914 84.9872C217.4 80.8046 217.681 76.2213 220.262 72.6284C223.906 67.6079 231.161 65.8119 236.618 68.9184C236.615 68.9332 236.609 68.9472 236.607 68.9621C236.611 68.9481 236.619 68.9351 236.623 68.9211C236.724 68.9788 236.834 69.0086 236.934 69.069C244.614 73.1399 247.537 81.6519 247.992 89.9435C248.569 96.6754 248.146 103.374 247.375 110.087C247.114 112.39 246.76 114.682 246.384 116.97C245.639 118.191 244.899 119.603 244.188 121.217C244.558 118.31 244.777 111.566 240.105 113.167C236.558 116.225 235.384 121.279 234.482 125.7C234.529 123.047 232.638 118.051 229.364 120.597C226.291 123.966 226.615 129.13 227.901 133.302C225.246 130.12 222.507 127.549 220.011 126.186C217.172 124.672 212.374 121.957 209.58 124.69C208.715 123.74 207.697 122.924 206.642 122.329C206.708 122.193 206.788 122.061 206.763 121.881C206.259 119.402 205.842 116.916 205.636 114.386ZM266.98 48.9023C270.377 53.3183 270.447 59.7832 268.866 64.9293C269.989 62.5269 270.855 59.7813 271.055 57.0283C272.631 55.9606 275.538 57.3064 277.013 58.4644C282.489 62.3427 284.284 68.3473 283.888 74.8485C283.78 82.6741 281.711 90.3081 277.779 97.1209C274.355 103.322 269.641 108.725 264.8 113.863C264.566 114.115 264.323 114.372 264.085 114.626C263.811 114.094 263.352 113.686 262.695 113.61C258.528 113.891 255.354 120.408 253.486 123.686C256.804 111.568 253.026 108.847 248.471 114.086C248.841 111.615 249.192 109.14 249.405 106.647C250.622 93.1402 250.89 73.9091 237.26 67.4107C239.9 60.5273 244.5 54.3274 249.967 49.2994C250.632 48.6493 251.477 48.002 252.085 47.3891C244.388 51.4367 239.209 59.0047 237.04 67.3009C236.206 66.9159 235.312 66.5876 234.373 66.3011C234.373 66.2965 234.38 66.2955 234.381 66.2909C234.721 65.0046 235.088 63.7137 235.54 62.4655C238.103 55.8434 241.522 49.1106 247.811 45.302C253.838 41.1353 262.529 43.4019 266.98 48.9023ZM278.798 156.157C277.359 155.41 275.783 154.878 274.285 154.5C273.61 154.304 272.931 154.171 272.251 154.075C275.131 153.186 278.126 152.038 280.981 153.241C280.738 154.377 279.675 155.22 278.909 156.045C278.864 156.073 278.836 156.12 278.798 156.157ZM270.517 153.916C268.251 153.835 265.973 154.191 263.726 154.689C265.42 153.474 266.902 151.893 267.152 149.783C268.527 149.204 269.9 148.62 271.334 148.173C274.765 147.083 278.416 145.824 282.033 146.829C284.687 148.158 272.459 153.053 271.241 153.654C271.017 153.763 270.765 153.837 270.517 153.916ZM228.54 134.069C228.135 130.239 228.281 122.509 231.29 121.584C231.251 121.571 231.229 121.568 231.19 121.553C231.208 121.56 231.224 121.564 231.244 121.569C231.259 121.572 231.274 121.576 231.29 121.576C234.021 123.122 232.9 134.317 232.602 139.726C231.312 137.725 229.945 135.816 228.54 134.069ZM252.115 122.307C251.264 125.947 250.237 129.546 249.089 133.104C248.978 133.164 248.86 133.217 248.755 133.279C245.465 135.191 243.384 138.593 241.368 141.714C242.018 139.4 242.958 136.813 242.142 134.438C242.038 134.178 241.904 133.967 241.754 133.793C242.684 129.769 243.269 125.638 244.836 121.829C249.2 112.728 255.705 107.274 252.115 122.307ZM240.78 130.942C240.633 131.691 240.468 132.437 240.306 133.183C239.286 133.196 238.165 133.863 237.605 134.778C235.704 137.323 235.212 140.714 235.074 143.843C234.478 142.772 233.849 141.716 233.198 140.673C233.229 140.335 233.255 140.033 233.299 139.908C234.785 131.562 234.107 120.15 240.848 114.069C245.183 113.876 241.084 128.203 240.78 130.942ZM237.911 137.193C241.417 132.001 240.962 137.042 240.124 140.066C239.522 143.066 238.295 145.917 237.618 148.895C236.91 147.324 236.122 145.736 235.255 144.157C235.765 141.734 236.712 139.361 237.911 137.193ZM246.963 135.937C248.274 134.725 249.895 133.574 251.75 133.395C253.826 133.707 250.973 138.549 250.387 139.599C247.553 144.298 243.99 148.674 240.335 152.783C240.249 152.958 239.89 153.325 239.518 153.731C239.134 152.573 238.685 151.383 238.173 150.169C239.899 144.802 243.101 140.023 246.963 135.937ZM242.458 151.72C245.575 148.266 249.266 145.459 253.296 143.096C255.243 142.204 257.462 140.889 259.698 141.341C260.038 142.328 259.191 143.372 258.769 144.24C254.657 151.158 247.243 155.154 241.334 160.367C241.236 160.485 241.092 160.589 240.942 160.693C240.885 158.891 240.496 156.822 239.809 154.582C240.682 153.62 241.547 152.649 242.458 151.72ZM240.97 161.689C241.065 161.64 241.155 161.579 241.222 161.51C242.704 160.376 244.148 159.334 245.677 158.206C250.711 154.689 259.086 148.588 265.396 149.321C265.272 151.467 263.561 153.379 262.16 154.91C262.11 154.959 262.057 155.03 262.003 155.094C261.128 155.314 260.257 155.54 259.399 155.766C254.555 157.304 249.997 159.716 245.665 162.351C243.619 163.699 241.629 165.137 239.625 166.552C240.508 165.1 241.009 163.456 240.97 161.689ZM266.764 148.204C264.925 145.952 258.206 148.933 256.276 149.953C256.947 149.251 257.518 148.604 258.047 147.981C258.542 148.647 259.734 147.613 260.315 147.291C263.55 145.377 266.724 143.374 269.951 141.444C272.308 139.969 274.765 138.783 277.419 137.913C279.676 137.084 287.133 135.382 282.63 139.735C280.666 141.521 278.158 142.481 275.802 143.64C272.797 145.173 269.755 146.642 266.764 148.204ZM275.882 135.81C270.567 139.43 264.728 142.506 259.431 146.213C261.279 143.647 261.751 141.883 261.253 140.876C261.61 140.52 261.97 140.167 262.317 139.801C265.287 136.477 268.399 133.303 272.069 130.742C282.052 123.289 286.335 128.339 275.882 135.81ZM259.902 139.909C257.403 139.33 252.324 141.316 248.02 145.283C248.853 144.069 249.738 142.842 250.586 141.591C250.753 141.952 251.293 142.115 251.587 141.767C255.547 135.593 259.098 129.004 264.543 123.939C266.346 122.294 268.391 120.549 270.782 119.821C274.734 119.297 273.44 122.899 272.08 124.97C268.726 130.466 264.421 135.321 259.902 139.909ZM253.312 136.159C253.451 135.703 253.646 135.269 253.731 134.793C253.897 132.465 252.502 132.054 250.953 132.394C251.235 131.56 251.517 130.726 251.768 129.879C253.678 125.173 256.062 120.327 259.632 116.596C267.902 109.301 257.564 128.389 256.448 130.296C255.396 132.246 254.363 134.207 253.312 136.159ZM253.575 30.4785C255.786 29.2257 258.18 28.3468 260.62 27.6586C265.757 26.3072 271.231 24.3819 276.544 25.8654C281.001 27.2577 285.161 31.3175 284.957 36.2431C285.287 35.0154 285.264 33.8342 285.075 32.6968C285.308 32.8465 285.511 33.0409 285.756 33.146C293.561 35.3233 301.694 42.403 300.519 51.2126C300.515 51.2219 300.522 51.2321 300.518 51.2414C294.236 54.4102 288.606 58.9275 283.914 64.1471C282.399 60.983 279.993 58.0895 276.912 56.4498C275.016 55.4202 272.511 55.2147 271.075 56.394C271.154 54.0633 270.752 51.7446 269.539 49.6426C266.627 44.597 260.713 41.3557 254.881 41.3762C254.445 39.4491 253.978 37.5154 253.142 35.7204C252.585 34.4276 251.932 33.1571 251.198 31.9257C251.987 31.4412 252.759 30.925 253.575 30.4785ZM190.424 52.6523C192.089 46.0935 193.86 39.2696 198.181 33.8612C208.688 20.3482 216.531 31.0924 221.058 42.5732C219.575 38.6613 218.639 34.1412 216.224 30.5371C216.054 30.2925 215.846 30.1298 215.665 29.9056C215.736 26.7889 218.04 23.1068 220.881 21.3555C229.561 16.268 240.354 21.1704 246.461 28.1403C248.87 31.2068 250.906 34.5829 252.237 38.2688C252.575 39.3347 252.793 40.4312 253.017 41.525C251.833 41.6766 250.661 41.9212 249.538 42.3751C242.449 45.4843 237.977 52.1296 235.034 59.0326C234.024 61.1988 233.207 63.4532 232.596 65.7645C232.59 65.7877 232.608 65.8082 232.604 65.8314C227.264 65.0362 221.522 67.8776 218.946 72.6116C218.377 73.6468 218.008 74.7369 217.734 75.852C217.621 75.5758 217.483 75.3014 217.227 75.1545C214.848 74.1128 212.217 75.666 210.517 77.3076C201.535 86.5013 202.842 109.24 204.887 121.598C203.974 121.334 203.074 121.252 202.265 121.491C200.597 118.934 198.884 116.541 197.347 113.817C194.805 109.232 192.9 104.31 191.241 99.3419C186.534 84.2608 186.162 67.9102 190.424 52.6523ZM185.29 73.2748C185.459 73.3334 185.643 73.3808 185.827 73.4087C185.573 90.7824 190.698 108.306 200.815 122.406C200.136 123.071 199.579 124.04 199.26 125.481C199.233 126.213 199.349 126.931 199.42 127.653C198.268 126.184 196.918 124.832 195.605 123.565C189.977 117.972 184.456 118.111 184.056 127.058C181.52 137.084 179.739 140.354 182.985 150.971C185.056 157.334 187.002 167.266 194.423 169.131C196.754 169.696 195.932 170.105 195.178 171.849C194.041 174.572 193.848 177.763 195.017 180.507C195.749 182.1 196.694 183.534 197.779 184.855C197.707 184.852 197.634 184.84 197.565 184.841C196.256 184.787 194.98 184.51 193.602 184.244C187.683 183.03 181.757 181.906 176.182 179.461C167.103 175.621 159.979 168.331 154.531 160.236C150.25 153.694 146.429 146.563 146.149 138.555C145.767 134.019 147.406 128.253 151.878 126.266C154.056 128.364 156.728 130.031 159.4 131.464C149.325 124.463 145.062 113.718 149.667 101.931C153.984 89.5957 160.837 81.8259 172.483 75.8111C176.464 73.9426 180.806 72.2489 185.29 73.2748ZM181.192 71.2073C178.351 71.4519 175.614 72.4991 173.002 73.6291C172.087 74.083 171.174 74.5592 170.27 75.0549C171.092 73.5975 171.781 72.0638 172.393 70.5125C174.334 65.8324 175.197 60.8221 175.537 55.8053C178.106 60.6426 180.034 65.8082 181.192 71.2073ZM137.678 27.0057C137.984 27.0736 138.27 27.1647 138.573 27.2354C138.561 27.3405 138.558 27.4484 138.551 27.5516C138.11 35.5958 136.006 43.454 133.899 51.2033C133.425 52.8477 132.909 54.4809 132.408 56.1178C132.308 56.4452 132.469 56.8033 132.8 56.9149C133.119 57.0265 133.487 56.8479 133.598 56.5214C134.165 54.9264 134.676 53.3173 135.119 51.6841C137.258 43.7451 138.76 35.5353 138.601 27.2893C138.601 27.2828 138.601 27.2605 138.601 27.2428C144.286 28.5756 149.472 30.5353 154.206 33.2455C154.207 33.2706 154.21 33.2957 154.211 33.3208C153.531 45.0909 149.514 56.4452 145.168 67.3233C144.161 69.7591 143.015 72.1931 141.943 74.7006C141.788 75.015 141.916 75.4177 142.236 75.5711C142.546 75.7283 142.948 75.5963 143.103 75.2782C145.182 71.2231 146.933 67.0191 148.414 62.711C151.675 53.5406 154.409 43.9999 154.307 34.1877C154.281 33.8938 154.28 33.5571 154.237 33.2622C157.553 35.1642 160.641 37.4596 163.537 40.141C163.507 40.6619 163.47 41.1985 163.398 41.6989C160.385 57.3966 154.557 72.594 147.612 86.9608C146.246 89.5994 144.8 92.1924 143.344 94.7827C143.007 95.7871 141.036 97.5952 142.358 98.4258C142.742 98.6211 143.215 98.4909 143.464 98.1328C144.286 96.8753 144.949 95.5174 145.675 94.2004C147.123 91.5823 148.553 88.9558 149.861 86.2623C153.427 78.8506 156.381 71.1487 158.935 63.3351C161.11 56.3968 163.179 49.3348 163.572 42.0328C163.61 41.418 163.591 40.8005 163.585 40.1838C164.913 41.4171 166.2 42.7387 167.446 44.1496C166.885 47.5109 165.935 50.9364 164.541 54.1191C164.257 54.7841 163.964 55.4695 163.664 56.1475C163.587 56.3205 163.644 56.5289 163.818 56.6135C163.984 56.6972 164.202 56.6303 164.284 56.4601C166.187 52.6551 167.136 48.4531 167.513 44.225C167.924 44.6909 168.351 45.1206 168.752 45.6071C171.339 48.6484 173.481 52.0004 175.362 55.4909C174.349 61.1606 172.629 67.0145 170.496 72.4303C170.141 73.2887 169.702 74.2049 169.273 75.0531C169.184 75.2317 169.254 75.4288 169.397 75.5591C163.573 78.8655 158.135 83.0889 154.422 88.673C151.463 93.4396 148.641 98.8331 147.205 104.427C138.582 95.576 131.58 85.2699 125.673 74.3406C126.084 74.4169 126.28 73.8654 126.489 73.5826C128.765 69.8066 130.594 65.6185 131.877 61.4852C130.256 65.4045 128.368 69.163 126.038 72.7242C125.897 73.0413 125.477 73.4776 125.405 73.8607C121.924 67.3735 118.833 60.6789 116.013 53.9368C116.212 53.9424 116.41 53.8847 116.524 53.7126C117.136 52.7212 117.641 51.806 118.238 50.755C121.977 43.6521 123.83 35.7279 124.743 27.7971C124.733 27.7795 124.803 27.573 124.743 27.6158C124.662 27.9553 124.608 28.3012 124.543 28.6407C123.318 34.8322 121.487 40.8842 118.839 46.6301C118.007 48.4949 117.037 50.2983 116.066 52.0952C115.957 52.3417 115.737 52.643 115.591 52.9407C115.344 52.3445 115.08 51.7502 114.837 51.154C114.406 50.0491 113.974 48.9442 113.541 47.8402C113.612 47.8997 113.626 47.9778 113.736 48.0234C114.884 48.2829 115.018 46.6525 115.434 45.9131C117.292 41.6729 118.113 37.0811 118.608 32.5024C118.891 28.836 119.376 25.0283 118.624 21.402C124.826 23.742 131.134 25.7361 137.678 27.0057ZM102.117 71.476C104.897 73.6952 107.259 76.3989 110.134 78.5074C114.953 82.0249 120.569 84.4608 126.545 85.0541C127.395 85.0197 129.794 85.8196 130.007 84.6812C130.008 84.6756 130.003 84.6709 130.003 84.6654C132.776 89.033 135.779 93.2118 138.995 97.2092C138.842 97.2064 138.69 97.2083 138.553 97.2055C132.088 97.0911 125.876 95.7667 119.936 93.0955C113.808 90.2783 108.233 86.2177 102.474 82.6778C102.155 78.9538 102.094 75.2168 102.117 71.476ZM102.05 55.517C106.796 60.1022 112.144 64.5647 118.879 65.5478C119.127 65.5757 119.295 65.4659 119.419 65.3143C122.502 71.8295 125.897 78.126 129.67 84.1222C129.618 84.0934 129.583 84.0376 129.522 84.0264C126.692 83.5948 123.81 83.1326 121.022 82.3895C116.527 81.0297 112.3 78.6283 108.466 75.9227C106.532 74.669 103.789 72.4498 102.118 71.3663C102.155 66.0816 102.313 60.7905 102.05 55.517ZM112.547 18.9987C113.018 19.1921 113.493 19.3679 113.964 19.5595C113.812 22.3479 112.97 25.2218 112.037 27.9134C111.986 28.0678 112.067 28.2408 112.225 28.2947C112.375 28.345 112.557 28.264 112.603 28.1059C113.371 25.3408 114.118 22.4446 113.969 19.5614C115.51 20.1854 117.053 20.8077 118.605 21.3945C119.07 25.2106 118.344 29.2685 117.633 33.0837C116.905 36.9481 115.969 40.7567 114.397 44.3989C114.225 44.8267 114.045 45.2378 113.82 45.7391C113.66 46.1428 113.343 46.6776 113.271 47.1528C111.507 42.668 109.749 38.1805 108.001 33.6873C108.162 33.665 108.313 33.5878 108.364 33.4231C109.752 29.0937 110.171 24.5363 110.668 20.0506C110.025 23.4546 109.342 27.0968 108.299 30.5036C108.084 31.2598 107.858 32.0122 107.641 32.7665C107.16 31.5258 106.661 30.2925 106.187 29.05C104.377 24.089 102.624 19.1019 100.587 14.2256C99.7049 12.2938 98.9348 10.2002 98.0884 8.16708C101.726 13.2592 105.562 16.4652 112.547 18.9987ZM104.283 28.8649C103.571 28.5719 102.85 28.3031 102.157 27.9636C100.546 27.2093 99.0324 26.1165 97.5936 25.0934C97.0681 22.1302 96.577 19.1642 96.179 16.1852C97.7768 17.7756 99.4602 19.301 101.421 20.4105C101.595 20.4989 101.752 20.4812 101.887 20.4152C102.285 21.5675 102.726 22.705 103.105 23.862C104.435 27.9497 105.915 31.9843 107.436 36.0041C106.518 35.5158 105.6 35.0284 104.667 34.5708C102.536 33.5794 100.543 32.3554 98.6548 30.9622C98.3004 29.0481 97.9563 27.1321 97.6159 25.2162C99.5877 26.8866 101.698 28.4017 104.075 29.4462C104.229 29.5113 104.418 29.408 104.471 29.2574C104.529 29.0965 104.441 28.9262 104.283 28.8649ZM97.0281 6.64921C97.7861 8.647 98.426 10.6987 99.158 12.6928C99.9597 14.8441 100.692 17.0195 101.452 19.1847C99.5793 18.2993 97.7182 17.3831 96.1529 16.002C95.6144 11.9376 95.2405 7.85271 95.1856 3.72692C95.8116 4.76581 96.4208 5.73216 97.0281 6.64921ZM100.405 40.9902C102.742 43.3107 105.558 45.4192 108.498 46.9361C108.688 47.0394 108.937 46.9557 109.037 46.7622C109.138 46.566 109.053 46.3269 108.86 46.2228C108.137 45.8238 107.405 45.4359 106.673 45.0518C104.405 43.8948 102.3 42.4206 100.371 40.7623C99.8499 37.534 99.2752 34.3141 98.6799 31.0961C101.426 33.412 104.444 35.8311 107.787 37.2597C107.829 37.2755 107.871 37.2504 107.914 37.2532C109.041 40.2145 110.18 43.1712 111.307 46.1316C112.152 48.3815 113.044 50.6071 113.943 52.8281C113.92 52.8142 113.909 52.7863 113.883 52.777C113.143 52.484 112.373 52.2766 111.614 52.0338C109.796 51.4498 108.022 50.688 106.5 49.5031C106.399 49.4566 106.246 49.2381 106.187 49.2799C108.344 51.1698 110.86 52.8477 113.629 53.6866C113.856 53.7396 114.082 53.5871 114.156 53.3694C115.637 57.006 117.199 60.5924 118.845 64.1257C116.811 63.6253 114.851 63.0756 112.89 62.219C108.968 60.4845 105.375 58.1249 102.048 55.4128C101.968 53.8382 101.853 52.2645 101.68 50.6936C101.383 47.4412 100.921 44.212 100.405 40.9902ZM102.849 86.2558C102.692 85.1183 102.59 83.979 102.49 82.8387C102.621 82.9317 102.757 83.0247 102.87 83.1205C106.546 85.9526 110.001 89.1092 113.966 91.5553C119.979 95.3156 126.868 97.904 133.935 98.6573C134.822 98.7392 138.99 99.0191 139.664 98.0463C141.447 100.225 143.307 102.334 145.239 104.381C144.751 104.393 144.198 104.537 143.778 104.459C137.498 104.592 131.224 103.406 125.322 101.232C121.759 100.135 117.803 98.1309 114.573 97.1571C122.887 100.885 131.163 105.567 140.489 105.943C142.275 106.007 144.132 106.081 145.839 105.469C145.937 105.432 145.994 105.343 146.049 105.257C146.313 105.531 146.556 105.823 146.822 106.094C146.179 109.273 146.035 112.497 146.635 115.707C145.9 115.704 144.946 116.139 144.316 116.119C139.723 116.967 135.183 116.806 130.578 115.812C122.86 114.293 115.765 110.336 108.6 107.391C105.866 100.636 104.089 93.4852 102.849 86.2558ZM108.619 107.434C112.003 109.026 115.043 111.145 118.371 112.875C124.564 115.972 131.353 118.07 138.303 118.328C139.478 118.3 145.231 118.154 146.974 117.022C147.148 117.709 147.257 118.399 147.505 119.083C147.889 120.594 148.507 121.953 149.3 123.185C148.454 123.187 147.318 123.75 146.619 123.766C141.478 124.86 136.204 124.595 131.044 123.566C124.665 122.189 118.796 119.055 113.123 115.89C112.939 115.791 112.757 115.689 112.569 115.591C111.064 112.957 109.752 110.233 108.619 107.434ZM93.199 117.143C99.7197 117.687 106.225 118.341 112.548 120.213C112.814 120.291 113.074 120.209 113.29 120.055C115.963 124.024 119.062 127.703 122.003 131.48C127.391 138.12 133.394 144.74 140.37 149.815C142.76 154.122 144.107 159.068 144.673 164.033C143.386 163.092 141.994 162.296 140.372 161.814C138.265 161.261 136.092 161.046 133.918 161.098C133.802 161.012 133.683 160.932 133.567 160.846C133.92 160.69 134.179 160.311 133.994 159.854C132.242 155.056 129.909 150.495 127.127 146.213C123.161 140.005 118.446 134.321 113.648 128.747C112.946 127.939 112.163 127.203 111.456 126.398C111.76 126.945 112.383 127.523 112.8 128.085C120.609 137.848 127.738 148.284 132.344 159.974C131.4 159.303 130.475 158.604 129.515 157.958C126.738 156.14 123.876 154.646 120.964 153.349C120.972 153.235 120.99 153.119 120.92 152.998C118.38 148.53 115.311 144.365 112.135 140.334C108.308 135.572 104.11 131.076 99.1794 127.439C99.1366 127.397 99.0445 127.312 99.0054 127.265C99.224 127.672 99.822 128.035 100.192 128.413C107.886 135.197 113.441 143.96 119.006 152.498C111.212 149.342 103.008 147.825 94.6164 147.281C94.5932 147.241 94.5932 147.191 94.5597 147.157C93.89 146.479 93.1506 145.867 92.4261 145.25C87.7004 141.399 82.7171 137.839 77.4632 134.739C72.0976 131.848 66.8994 128.661 62.423 124.487C61.9514 124.067 61.4548 123.635 61.0074 123.174C65.5741 121.251 70.2877 119.714 75.1036 118.654C75.9099 119.227 76.7489 120.009 77.5524 120.679C78.3979 120.735 75.5984 118.843 75.1287 118.649C79.2461 117.744 83.4314 117.199 87.6586 117.084C90.4293 119.168 93.1841 121.492 95.6777 123.94C98.3842 124.191 91.6151 119.413 88.065 117.088C89.7726 117.054 91.4812 117.034 93.199 117.143ZM44.8558 131.779C49.9275 128.483 55.3414 125.565 60.9758 123.189C61.3292 123.68 61.8882 124.168 62.3142 124.639C67.0696 129.635 72.9002 133.272 78.7485 136.828C83.5226 140.073 88.1813 143.61 92.747 147.173C87.5749 146.924 82.3432 147.008 77.0986 147.295C77.0651 147.227 77.0204 147.161 76.9302 147.126C75.8086 146.664 74.685 146.203 73.5913 145.674C71.3638 144.576 69.2144 143.167 67.29 141.623C69.6524 143.895 72.7012 145.951 75.8234 147.379C72.0985 147.604 68.3736 147.91 64.6626 148.256C64.1418 148.07 63.6218 147.885 63.1038 147.687C55.24 144.689 47.9381 140.379 40.943 135.724C40.9123 135.713 40.6779 135.515 40.7003 135.605C40.876 135.718 41.0769 135.887 41.263 136.029C47.7353 140.826 54.5341 145.607 62.1086 148.498C56.7933 149.011 51.5253 149.553 46.3523 149.979C40.624 147.94 34.9961 145.188 29.8603 142.153C34.9757 139.064 39.8809 135.294 44.8558 131.779ZM19.4937 149.482C17.1081 149.245 14.7085 148.89 12.3108 148.521C18.6111 147.969 24.3282 145.485 29.797 142.19C34.2307 145.346 38.9917 148.243 44.1229 150.143C35.9206 150.598 27.6756 150.282 19.4937 149.482ZM10.6897 154.063C13.877 153.577 19.8667 152.247 17.296 151.55C15.0471 152.388 12.8195 153.42 10.4711 153.929C7.62603 152.055 4.90836 149.98 2.34323 147.759C4.89906 148.381 7.34236 148.628 9.71032 148.627C17.0039 150.008 24.3422 151.071 31.7567 151.475C27.9518 153.109 24.065 154.557 20.3736 156.444C24.1245 154.815 28.3313 153.802 32.1743 152.219C32.5119 152.06 32.4347 151.672 32.2059 151.503C33.1927 151.552 34.174 151.659 35.1636 151.682C38.3658 151.832 41.5578 151.749 44.7461 151.582C44.6745 151.592 44.601 151.587 44.5359 151.626C42.579 152.964 40.4798 154.053 38.3314 155.058C34.0735 157.201 29.4371 158.85 25.5717 161.675C23.3386 160.729 21.1139 159.766 18.9496 158.675C16.0887 157.356 13.3367 155.792 10.6897 154.063ZM53.3483 181.173C51.5895 179.574 49.9563 177.827 48.3175 176.088C55.3098 170.442 63.221 165.725 70.6792 160.63C71.1061 160.371 70.6941 159.736 70.2904 159.987C62.5402 164.778 54.7192 169.526 48.2645 176.031C45.1376 172.713 41.9819 169.431 37.8812 167.274C33.9889 165.146 29.8696 163.491 25.7819 161.763C30.2891 159.176 35.65 157.901 40.2743 155.415C41.1895 154.923 45.957 152.897 45.2195 151.729C45.1432 151.638 45.039 151.592 44.9321 151.569C52.5326 151.162 60.1071 150.152 67.7011 149.69C67.8155 149.678 67.9318 149.672 68.0462 149.66C67.1375 150.446 66.2121 151.21 65.2178 151.889C57.7531 157.171 49.1323 160.933 42.8952 167.815C48.1752 162.98 54.9834 159.929 61.2278 156.399C64.4487 154.634 67.5216 152.463 69.7547 149.509C74.3232 149.078 78.9345 148.792 83.5532 148.711C80.5538 152.082 77.2325 155.14 73.8154 158.083C76.1545 156.344 78.8071 154.651 81.1788 152.834C81.8224 152.254 84.5196 150.018 84.9437 148.698C89.3625 148.664 93.7701 148.862 98.1405 149.338C92.4298 157.771 83.6649 163.523 75.4012 169.291C74.9101 169.306 74.433 169.264 73.9335 169.318C68.3336 169.815 62.0342 172.429 60.2652 178.239C59.8113 180.846 59.9248 183.503 59.6458 186.125C57.4499 184.587 55.3247 182.952 53.3483 181.173ZM60.1694 191.684C60.7777 189.731 61.16 187.71 61.4483 185.687C61.8491 183.353 61.4436 180.944 61.9738 178.637C63.8395 173.029 70.2737 171.099 75.6402 170.916C84.6182 170.835 91.7276 177.063 98.5525 182.12C102.115 184.655 106.483 187.801 109.339 191.109C109.366 191.255 109.384 191.405 109.413 191.55C107.595 190.253 105.746 188.992 103.907 187.729C95.6442 182.434 85.4543 177.24 75.4449 180.077C69.9528 181.576 68.1159 187.046 65.1286 191.211C62.7755 194.055 60.0057 196.779 56.637 198.419C56.6658 198.352 56.6733 198.284 56.704 198.219C57.675 195.956 59.4598 194.079 60.1694 191.684ZM63.2777 211.78C62.6192 210.793 61.3794 210.627 60.481 209.743C57.3485 207.155 54.9936 202.635 56.57 198.623C70.03 195.042 66.9887 184.418 76.6903 181.553C84.9809 179.349 93.4501 183.097 100.603 187.11C103.544 189 106.687 190.6 109.626 192.518C110.953 198.277 113.567 203.637 116.66 208.773C114.444 208.421 113.349 211.464 116.369 216.973C115.731 216.069 115.053 215.359 114.373 214.796C108.315 206.555 100.611 198.578 91.1082 194.445C99.6425 200.013 107.383 206.846 114.055 214.552C110.032 211.525 106.155 214.17 110.216 219.988C106.426 217.909 102.46 216.093 98.5432 214.331C93.7654 212.207 88.9309 210.012 83.7383 209.136C77.7282 208.239 71.1852 208.073 65.548 210.63C64.6998 210.971 63.9725 211.439 63.2917 211.955C63.2814 211.894 63.2991 211.837 63.2777 211.78ZM49.0867 266.566C38.0858 259.666 30.5653 244.617 39.9367 233.3C43.3965 228.712 49.2402 227.254 54.0068 224.474C57.422 222.459 59.5323 219.088 61.745 215.922C65.0774 211.411 71.0271 210.258 76.3452 210.243C85.4785 209.879 93.9217 213.967 102.023 217.722C106.013 219.553 110.039 221.379 113.962 223.375C114.251 223.582 114.542 223.783 114.838 223.981C114.576 223.963 114.311 223.941 114.114 223.985C112.562 223.157 110.973 222.404 109.246 222.013C107.197 221.385 102.333 221.67 103.769 224.882C105.098 226.935 107.613 227.767 109.758 228.699C107.528 228.73 104.509 228.634 103.141 230.705C102.344 233.274 105.991 234.129 107.887 234.279C106.326 234.714 104.604 235.821 104.306 236.983C102.841 237.601 101.378 238.227 99.9578 238.92C85.3222 245.483 67.7951 253.143 60.8698 268.63C60.6233 269.242 60.4103 269.898 60.201 270.557C56.3096 269.907 52.5391 268.458 49.0867 266.566ZM85.8542 300.407C82.6381 298.385 80.0766 295.667 77.1153 293.233C73.9875 290.594 70.1137 289.304 66.4158 287.714C58.393 284.128 60.1536 272.952 63.766 266.588C72.8649 251.702 89.4071 245.56 104.832 238.426C105.131 238.697 105.518 238.959 106.1 239.197C106.589 239.302 107.075 239.347 107.564 239.347C109.496 239.347 111.407 238.614 113.236 237.922C111.055 239.053 108.999 240.393 107.693 242.5C106.684 243.817 106.484 246.42 108.517 246.81C111.676 246.864 114.164 244.145 116.467 242.288C115.223 244.81 112.989 248.281 114.926 250.95C115.362 251.231 115.774 251.354 116.166 251.354C118.497 251.354 120.09 246.998 121.168 245.217C120.959 247.48 120.738 249.798 122.079 251.769C122.594 252.527 123.511 253.192 124.43 253.192C124.777 253.192 125.123 253.098 125.449 252.879C127.038 251.247 126.676 248.679 126.681 246.47C126.744 246.433 126.826 246.425 126.883 246.38C127.1 247.311 127.33 248.303 127.618 249.288C127.892 252.645 127.801 256.035 127.635 259.468C127.038 269.694 122.99 279.461 117.617 288.1C110.549 298.855 98.6604 309.551 85.8542 300.407ZM156.776 283.935C157.254 286.162 157.368 288.466 157.204 290.785C156.551 297.458 153.426 305.514 146.127 307.148C143.51 307.775 140.87 306.968 138.216 307.6C133.81 308.21 130.1 311.054 125.751 311.79C119.376 312.011 112.735 308.538 110.271 302.433C109.922 301.582 109.791 300.56 109.977 299.635C114.645 295.603 118.43 290.136 121.249 285.163C127.136 275.371 129.834 263.916 129.511 252.538C129.77 252.769 129.97 253.058 130.297 253.221C130.424 253.232 130.543 253.241 130.659 253.241C131.304 253.241 131.746 253.008 132.098 252.682C136.431 263.223 137.874 274.695 139.41 285.918C139.974 274.567 136.986 262.925 132.16 252.629C133.325 251.445 132.982 248.694 132.377 246.45C132.99 247.531 133.606 248.615 134.209 249.685C136.893 254.53 139.863 259.214 142.52 264.078C145.848 270.533 149.979 277.475 156.068 281.444C156.2 282.262 156.759 283.251 156.776 283.935ZM187.281 262.345C185.459 275.979 172.284 288.053 158.499 280.932C152.072 277.747 148.389 271.218 145.008 265.145C141.767 259.587 138.652 253.855 134.998 248.533C135.824 249.375 136.755 250.064 137.938 250.316C137.976 250.316 138.011 250.319 138.046 250.319C139.406 250.319 139.814 248.717 139.478 247.601C138.874 245.372 137.269 243.331 135.489 241.68C135.956 241.693 136.319 241.577 136.597 241.365C137.126 241.568 137.663 241.749 138.205 241.907C138.525 242.216 138.862 242.533 139.139 242.858C145.863 250.989 150.612 260.668 160.757 265.277C156.035 262.07 151.569 258.116 147.915 253.6C144.803 249.852 142.39 245.504 138.721 242.242C138.612 242.148 138.501 242.056 138.39 241.964C139.609 242.305 140.855 242.529 142.132 242.541C142.236 242.545 142.344 242.549 142.459 242.549C143.649 242.549 145.217 242.183 145.213 240.777C144.605 238.481 141.743 237.588 139.771 236.733C150.416 237.411 150.47 230.763 140.01 230.62C141.538 230.215 143.231 229.784 144.577 228.895C154.744 228.671 164.925 231.481 174.615 234.564C165.708 229.542 154.842 228.118 144.661 228.846C145.235 228.453 145.758 227.997 146.145 227.377C147.201 225.528 144.69 224.627 143.229 224.65C141.455 224.602 139.708 225.036 138.011 225.626C139.653 224.833 141.261 223.973 142.422 222.507C142.882 221.838 143.091 221.29 143.2 220.797C144.646 220.387 146.095 219.999 147.536 219.652C154.272 218.369 161.235 219.363 167.979 218.107C169.23 217.862 170.455 217.447 171.646 216.945C172.868 217.268 174.089 217.585 175.281 218.036C178.828 218.976 181.913 221.171 184.05 224.148C190.12 232.04 184.84 240.633 185.56 249.267C186.044 253.687 187.928 257.804 187.281 262.345ZM187.263 247.758C191.958 248.287 196.672 249.38 201.405 249.38C201.819 249.38 202.233 249.349 202.647 249.331C197.857 250.561 192.593 251.153 187.663 251.139C187.456 250.024 187.313 248.899 187.263 247.758ZM188.386 254.611C188.194 253.724 188.001 252.838 187.82 251.948C189.461 252.069 191.127 252.172 192.825 252.172C195.824 252.172 198.857 251.916 201.768 251.282C196.917 253.483 192.616 254.562 188.386 254.611ZM210.59 246.412C209.031 247.205 207.328 247.909 205.504 248.503C204.95 248.553 204.396 248.607 203.842 248.627C198.255 248.856 192.787 247.292 187.248 246.627C187.412 242.757 188.518 238.987 188.726 235.119C189.798 225.99 182.658 216.769 173.406 216.095C177.329 213.938 180.498 210.422 181.478 205.986C181.69 205.033 181.801 204.07 181.863 203.107C184.105 203.029 186.317 202.695 188.473 202.092C185.816 210.945 187.133 220.812 192.096 228.801C196.748 235.868 204.269 240.981 212.433 243.237C211.843 244.309 211.202 245.353 210.59 246.412ZM216.657 242.435C211.466 241.632 206.575 239.482 202.213 236.567C189.685 228.651 185.054 210.814 192.142 197.777C193.551 194.965 195.411 192.322 197.412 189.882C198.197 188.922 198.97 187.961 199.762 187.008C202.93 190.078 206.846 192.484 210.536 194.765C216.535 198.434 222.706 202.251 229.731 203.514C248.761 206.823 239.364 184.336 234.556 174.758C241.406 180.792 248.351 184.674 256.076 186.895C256.481 187.914 257.426 188.76 257.943 189.734C259.016 191.307 260.029 192.991 260.885 194.707C263.655 200.478 266.155 206.396 267.968 212.544C270.717 221.824 269.671 232.56 264.422 240.795C261.931 244.717 257.607 246.819 253.405 248.485C246.506 251.513 238.397 254.189 231.194 250.503C227.624 248.711 225.281 245.101 221.98 243.718C223.512 243.552 224.85 243.438 225.488 243.622C222.652 242.599 219.592 242.828 216.657 242.435ZM224.082 246.884C225.007 247.811 225.889 248.775 226.754 249.58C229.014 251.662 231.906 252.966 234.899 253.588C235.761 253.783 236.619 253.872 237.474 253.945C237.221 253.939 236.957 254.025 236.833 254.25C235.031 259.218 232.492 263.989 229.103 268.071C228.017 265.798 227.051 263.454 226.25 261.01C224.995 256.408 224.411 251.658 224.082 246.884ZM261.984 306.176C260.284 304.637 258.568 303.09 256.855 301.528C262.191 294.148 266.528 286.093 269.816 277.571C272.754 270.164 275.361 262.599 276.691 254.721C276.827 253.911 275.569 253.738 275.451 254.525C274.31 263.484 271.326 272.042 267.829 280.329C264.948 287.782 260.982 294.713 256.822 301.497C253.211 298.206 249.615 294.842 246.189 291.333C249.359 288.116 252.341 284.452 254.403 280.395C254.843 279.559 253.549 278.879 253.113 279.71C251.171 283.747 248.818 287.666 246.086 291.23C243.032 288.096 240.154 284.817 237.493 281.391C243.049 275.89 246.885 268.897 249.735 261.664C249.961 261.175 249.203 260.85 248.996 261.325C245.959 268.435 242.649 275.538 237.467 281.359C234.269 277.239 231.42 272.884 229.156 268.165C231.593 265.749 233.89 263 235.738 260.081C236.65 258.648 237.328 257.081 237.937 255.498C238.181 254.993 238.349 254.241 237.722 253.979C242.671 254.339 247.501 252.833 252.151 250.9C251.651 253.322 251.178 255.82 250.174 258.063C251.383 255.986 252.211 253.29 252.934 250.891C252.968 250.77 252.943 250.673 252.895 250.594C255.008 249.692 257.086 248.729 259.112 247.827C262.209 246.214 264.581 243.82 266.371 240.997C265.247 253.692 260.442 265.883 254.669 277.125C258.419 271.208 261.464 264.614 263.966 258.003C266.166 252.301 267.712 246.299 267.77 240.159C267.785 239.763 267.489 239.543 267.175 239.516C267.802 238.357 268.351 237.154 268.813 235.902C268.902 236.047 268.993 236.194 269.077 236.339C271.281 239.599 273.868 242.559 276.681 245.276C276.668 247.194 276.886 249.214 276.377 251.059C276.886 249.545 277.27 247.775 277.444 246.053C279.543 248.002 281.793 249.773 284.181 251.365C283.823 252.297 284.004 253.396 283.844 254.388C282.769 264.694 280.591 274.932 277.22 284.734C275.51 289.546 272.86 294.006 270.793 298.681C276.467 289.361 280.678 279.021 283.102 268.312C284.247 263.006 285.702 257.574 285.418 252.108C286.676 252.897 287.912 253.72 289.239 254.402C290.223 254.948 291.237 255.456 292.256 255.95C292.263 256.013 292.234 256.078 292.247 256.139C292.292 256.752 292.297 257.369 292.332 257.984C291.923 274.711 287.157 291.067 280.027 306.131C286.126 294.77 291.094 282.226 292.99 269.292C293.358 267.674 293.67 266.049 293.819 264.418C293.81 263.492 294.381 259.361 294.149 256.787C295.568 257.396 297.023 257.898 298.506 258.307C299.467 259.491 300.425 260.677 301.334 261.903C301.203 262.03 301.111 262.193 301.117 262.38C301.453 266.918 301.063 271.608 300.428 276.133C299.623 281.689 299.038 287.319 297.355 292.69C299.601 286.978 300.913 280.717 301.973 274.615C302.174 273.207 303.14 267.337 302.823 264.015C306.015 268.537 308.913 273.284 311.589 278.17C311.588 278.198 311.564 278.211 311.567 278.242C312.611 289.925 310.196 301.548 306.572 312.615C310.615 302.586 313.737 291.56 312.882 280.585C315.078 284.723 317.159 288.922 319.165 293.131C319.425 303.353 317.617 313.869 313.561 323.267C305.29 322.161 296.915 321.875 288.805 320.319C293.186 313.252 295.905 305.045 297.576 296.873C297.708 296.413 296.999 296.227 296.875 296.669C295.017 304.799 292.589 312.881 288.759 320.312C279.264 318.487 270.14 314.903 261.984 306.176ZM322.09 299.338C323.435 302.31 324.823 305.291 326.264 308.254C326.263 308.602 326.266 308.95 326.256 309.297C326.072 313.12 325.761 317.117 324.319 320.674C325.804 317.487 326.911 313.825 327.213 310.17C328.286 312.326 329.402 314.463 330.558 316.579C330.559 316.583 330.557 316.588 330.559 316.591C330.323 316.482 329.987 316.575 329.984 316.913C329.895 320.209 329.104 323.482 328.543 326.732C323.667 324.953 318.668 323.957 313.626 323.279C318.184 315.154 320.489 304.756 320.151 295.219C320.8 296.594 321.449 297.969 322.09 299.338ZM342.649 334.556C338.806 329.139 335.48 323.392 332.444 317.466C335.853 318.693 339.24 320.18 341.904 322.689C341.895 326.658 342.102 330.621 342.649 334.556ZM341.904 322.642C339.187 319.738 335.612 317.297 331.745 316.07C330.482 313.562 329.254 311.034 328.057 308.489C331.41 309.415 334.718 310.518 337.656 312.44C335.202 310.707 332.413 308.916 329.48 307.91C328.97 307.834 328.121 307.334 327.659 307.646C327.023 306.289 326.39 304.932 325.763 303.57C326 303.583 326.231 303.598 326.411 303.654C332.089 304.709 337.716 306.681 342.572 309.87C342.18 314.118 341.917 318.383 341.904 322.642ZM328.622 326.763C329.406 323.518 330.758 320.348 330.775 316.982C334.237 323.284 338.125 329.337 342.683 334.856C342.684 334.865 342.685 334.873 342.686 334.881C338.179 331.076 333.461 328.536 328.622 326.763ZM342.573 309.844C337.818 306.219 332.045 303.104 325.947 302.51C325.763 302.517 325.513 302.5 325.271 302.507C323.841 299.396 322.414 296.286 320.964 293.196C324.175 293.51 327.493 293.59 330.522 294.692C329.574 294.145 322.448 291.693 320.501 292.229C319.728 290.592 318.954 288.955 318.157 287.336C317.417 285.955 316.689 284.564 315.96 283.173C316.102 283.184 316.247 283.194 316.362 283.231C326.094 284.351 335.866 287.33 344.263 292.467C344.116 294.836 343.919 297.204 343.68 299.566C343.675 299.601 343.672 299.636 343.668 299.672C341.799 298.367 332.581 293.821 334.189 296.082C337.458 296.964 340.714 298.093 343.656 299.775C343.261 303.113 342.884 306.473 342.573 309.844ZM344.268 292.422C336.022 286.448 325.758 281.464 315.322 281.963C313.774 279.011 312.199 276.073 310.569 273.167C318.791 273.288 326.945 275.603 334.321 279.209C327.257 275.018 318.821 271.759 310.423 272.184C310.28 272.19 310.176 272.251 310.102 272.335C308.716 269.897 307.29 267.484 305.738 265.149C305.003 264.115 304.198 263.129 303.438 262.112C303.611 262.071 303.786 262.027 303.937 262.011C317.32 259.61 331.758 262.034 343.492 268.994C344.6 276.675 344.752 284.545 344.268 292.422ZM343.489 268.982C331.888 260.6 316.337 257.8 302.306 260.618C301.877 260.059 301.468 259.485 301.03 258.933C302.303 259.154 303.594 259.298 304.908 259.299C312.877 259.59 316.299 256.52 318.733 253.11C319.467 253.354 320.69 252.877 321.395 252.972C327.191 252.698 333.065 253.803 338.549 255.676C333.297 253.51 327.464 251.562 321.618 251.585C321.196 251.653 320.453 251.572 319.765 251.589C321.316 249.178 322.665 246.847 324.96 245.571C325.712 245.588 326.463 245.609 327.194 245.608C330.034 245.573 332.884 245.312 335.704 244.881C339.883 252.494 342.28 260.617 343.489 268.982ZM361.926 216.858C359.192 232.257 350.749 241.113 335.08 243.33C329.265 244.229 322.829 243.212 317.64 246.526C319.264 245.784 321.075 245.603 322.912 245.572C318.654 248.068 317.851 254.126 312.345 256.387C298.74 261.831 279.954 248.565 272.318 237.766C271.336 236.506 270.358 234.99 269.601 233.481C270.23 231.267 270.653 229.005 270.895 226.765C271.648 228.303 272.452 229.816 273.29 231.305C278.804 240.719 288.21 249.694 299.022 252.315C300.077 252.553 301.136 252.731 302.211 252.835C302.226 252.835 302.23 252.816 302.218 252.812C302.123 252.777 302.012 252.731 301.924 252.702C289.646 248.063 279.249 239.351 271.974 228.474C271.613 227.926 271.257 227.269 270.901 226.717C270.967 226.099 271.052 225.476 271.093 224.867C271.835 216.804 268.922 209.024 265.912 201.689C263.927 196.775 261.676 191.954 258.662 187.583C263.716 188.777 269.105 189.367 275.064 189.417C275.531 189.401 275.997 189.35 276.464 189.326C276.57 189.65 276.799 189.947 277.161 190.033C289.536 195.971 303.405 197.254 316.946 197.805C323.177 197.935 329.422 197.488 335.556 196.376C338.257 195.874 340.982 195.267 343.556 194.286C346.45 196.308 348.819 199.323 351.051 202.196C353.821 206.039 356.267 210.19 357.309 214.859C357.78 205.932 350.802 198.58 343.562 194.283C344.712 193.845 345.834 193.339 346.9 192.708C347.094 192.831 347.3 192.941 347.489 193.033C355.398 198.212 363.27 206.665 361.926 216.858ZM366.578 155.199C365.287 160.858 371.295 163.648 368.142 169.641C367.523 172.118 357.602 180.636 354.603 178.914C354.103 176.371 352.526 174.006 349.502 172.282C355.032 176.468 354.008 184.603 349.16 188.961C337.332 199.829 299.875 196.395 285.326 191.435C283.356 190.782 281.504 189.964 279.628 189.121C285.176 188.641 290.696 187.642 295.98 185.893C303.175 183.269 312.647 179.245 316.081 171.975C316.513 168.583 312.28 167.519 310.057 165.951C308.814 165.231 307.521 164.52 306.207 163.827C307.21 163.593 308.216 163.364 309.209 163.108C318.164 160.727 327.085 157.228 334.463 151.52C337.452 149.312 339.103 146.497 339.414 144.159C339.501 144.151 339.59 144.18 339.671 144.158C341.718 143.8 343.556 143.29 345.687 143.041C352.841 142.072 364.089 141.565 367.188 149.723C367.581 151.539 366.978 153.4 366.578 155.199ZM369.979 141.519C368.646 142.528 367.222 143.487 365.821 144.42C365.75 144.455 365.686 144.51 365.618 144.555C365.033 144.079 364.413 143.642 363.732 143.299C361.671 142.16 359.464 141.518 357.198 141.158C361.78 138.81 365.449 134.87 368.736 130.958C365.185 134.61 360.912 137.801 356.91 141.111C352.095 140.404 346.996 141.066 342.264 141.816C341.707 142.024 340.331 142.131 339.366 142.475C339.028 140.696 337.663 139.497 335.22 139.642C337.529 138.79 339.793 137.837 341.875 136.525C351.695 129.561 352.453 117.68 341.856 111.134C344.178 108.888 347.517 103.151 348.122 102.035C352.014 94.6869 354.533 86.2883 354.491 77.94C354.861 78.0209 355.307 77.9819 355.669 77.9456C357.625 77.8805 359.513 78.1195 361.481 78.7018C372.089 82.0305 379.584 91.7962 378.639 103.13C378.493 104.785 378.386 107.194 377.005 108.347C374.45 107.688 371.685 107.607 369.168 107.954C375.811 108.01 384.424 111.69 383.999 119.528C383.102 128.471 376.633 135.918 369.979 141.519Z" fill="black"/>
<path d="M124.995 225.936C118.98 225.874 118.021 236.652 124.067 237.479C130.003 237.709 130.859 226.618 124.995 225.936ZM124.422 236.298C122.601 236.318 121.269 234.627 120.771 232.999C120.088 230.168 122.103 226.33 125.367 226.77C129.779 227.701 128.96 236.186 124.422 236.298Z" fill="black"/>
<path d="M183.325 255.162C183.343 255.165 183.362 255.168 183.381 255.171C183.38 255.149 183.38 255.127 183.38 255.106C183.38 255.11 183.376 255.11 183.376 255.11C183.383 255.005 183.392 254.901 183.399 254.798C183.373 254.92 183.35 255.04 183.325 255.162Z" fill="black"/>
<path d="M118.34 74.8643C116.406 74.0291 114.433 73.2962 112.555 72.342C109.494 70.8697 106.751 68.7891 104.082 66.7262C107.23 69.8931 112.939 73.9687 117.947 75.773C118.509 75.9971 118.88 75.1136 118.34 74.8643Z" fill="black"/>
<path d="M124.952 76.9095C123.735 76.7198 122.492 76.5524 121.324 76.1701C122.278 76.6975 123.724 76.9579 124.868 77.3029C125.12 77.3662 125.207 76.9579 124.952 76.9095Z" fill="black"/>
<path d="M158.076 82.3644C158.562 81.4901 159.031 80.6047 159.517 79.7267C162.782 73.8486 165.276 67.2656 166.415 60.7012C165.094 66.2053 162.627 71.3728 160.076 76.411C159.101 78.2442 158.043 80.0308 157.068 81.8649C156.922 82.1346 157.053 82.4853 157.322 82.6201C157.597 82.7597 157.925 82.6378 158.076 82.3644Z" fill="black"/>
<path d="M134.735 88.4136C134.938 88.5578 135.229 88.4917 135.367 88.2899C137.474 85.4085 139.166 82.2295 140.411 78.885C139.139 81.5822 137.457 84.2859 135.501 86.6455C135.236 87.1719 134.114 87.8286 134.735 88.4136Z" fill="black"/>
<path d="M130.648 82.6509C130.972 82.8099 131.419 82.715 131.611 82.397C132.865 80.2243 133.882 77.9187 134.876 75.6186C139.098 64.6345 141.828 52.9444 142.345 41.1716C142.361 40.7307 142.359 40.2899 142.399 39.8509C142.249 40.2685 142.276 40.9381 142.195 41.4534C140.57 53.1221 137.308 64.6391 133.04 75.6288C132.18 77.6201 131.302 79.6914 130.31 81.6389C130.132 82.0073 130.279 82.4658 130.648 82.6509Z" fill="black"/>
<path d="M121.535 63.0245C121.408 63.3054 121.509 63.6411 121.789 63.7834C123.578 64.1899 126.814 52.4849 127.339 50.662C128.438 46.366 129.434 41.7408 129.215 37.3704C128.858 44.7923 126.216 51.8869 123.509 58.7397C122.906 60.1924 122.201 61.6006 121.535 63.0245Z" fill="black"/>
<path d="M64.1631 140.044C60.7748 137.822 57.4033 135.486 54.1992 132.996C57.1075 135.738 60.5097 138.256 63.9203 140.471C64.1956 140.634 64.4365 140.198 64.1631 140.044Z" fill="black"/>
<path d="M81.9888 124.048C82.0474 124.218 82.3692 124.384 82.5431 124.553C91.8856 131.481 100.373 139.388 107.454 148.656C107.963 149.187 108.803 148.424 108.359 147.858C105.494 144.104 102.304 140.606 98.9235 137.309C94.4498 132.915 89.3745 129.223 84.2609 125.62C83.5122 125.085 82.7152 124.616 81.9888 124.048Z" fill="black"/>
<path d="M342.192 283.115C342.247 282.883 338.156 280.189 338.872 281.328C339.991 281.838 341.118 282.366 342.132 283.061C342.126 283.064 342.122 283.076 342.131 283.085C342.145 283.097 342.169 283.112 342.192 283.115Z" fill="black"/>
<path d="M282.194 310.8C282.121 310.765 282.041 310.8 282.005 310.869C281.442 312.056 280.91 313.248 280.353 314.439C281.064 313.43 281.679 312.137 282.267 310.985C282.298 310.916 282.263 310.831 282.194 310.8Z" fill="black"/>
<path d="M250.168 258.075C250.17 258.071 250.17 258.068 250.171 258.064C250.17 258.068 250.168 258.072 250.165 258.076C250.165 258.074 250.166 258.076 250.168 258.075Z" fill="black"/>
<path d="M212.348 83.4284C212.089 83.9186 211.898 84.6486 211.666 85.2272C207.978 96.2085 206.134 109.704 210.287 120.764C209.37 108.38 208.269 95.4589 212.348 83.4284Z" fill="black"/>
<path d="M213.297 106.16C212.415 111.091 211.887 116.565 213.801 121.404C213.569 116.401 212.804 111.228 213.297 106.16Z" fill="black"/>
<path d="M154.939 146.584C154.51 145.635 153.987 144.713 153.59 143.761C153.89 144.847 154.508 146.085 154.938 147.212C157.73 153.938 161.834 160.15 167.655 164.629C172.205 168.2 177.13 171.628 182.684 173.432C184.61 174.06 186.609 174.391 188.611 174.672C185.684 173.404 182.612 172.078 179.764 170.505C169.35 165.225 159.845 157.415 154.939 146.584Z" fill="black"/>
<path d="M170.434 158.861C170.426 158.845 170.407 158.857 170.411 158.872C170.477 159.008 170.581 159.129 170.684 159.237C176.192 164.726 182.886 169.521 190.723 170.749C183.86 167.377 176.278 164.413 170.561 159.029C170.535 158.985 170.456 158.919 170.434 158.861Z" fill="black"/>
<path d="M162.542 149.314C163.32 151.279 164.752 153.133 166.146 154.775C164.99 153.031 163.845 151.037 162.542 149.314Z" fill="black"/>
<path d="M195.242 88.3819C192.869 72.1457 194.886 55.0901 201.708 40.1197C202.743 37.9582 203.871 35.8497 205.102 33.7924C203.747 35.5502 202.555 37.681 201.451 39.6853C188.851 62.3967 189.656 95.7583 204.081 117.457C200.711 107.985 196.7 98.4825 195.242 88.3819Z" fill="black"/>
<path d="M323.058 51.3298C323.057 51.3298 323.056 51.3298 323.055 51.3298C323.055 51.3298 323.055 51.3298 323.058 51.3298C323.05 51.3298 323.047 51.3289 323.043 51.3251C323.022 51.327 323.003 51.3317 322.982 51.3326C323.007 51.3345 323.033 51.3289 323.058 51.3298Z" fill="black"/>
<path d="M309.551 54.106C304.495 55.8081 299.918 58.5908 295.879 62.0553C304.347 57.5333 313.12 52.0403 322.982 51.3326C318.527 51.167 313.805 52.5677 309.551 54.106Z" fill="black"/>
<path d="M292.855 63.989C291.429 64.6094 290.052 65.8212 288.954 67.0006C290.223 66.1105 291.484 64.8521 292.855 63.989Z" fill="black"/>
<path d="M294.914 174.427C288.459 177.514 281.375 179.592 274.337 181.187C281.562 180.836 288.597 177.937 294.914 174.427Z" fill="black"/>
<path d="M271.221 221.018C274.813 227.965 280.113 234.234 287.035 238.146C281.513 232.854 275.371 227.593 271.221 221.018Z" fill="black"/>
<path d="M293.623 242.438C295.891 244.69 299.427 245.979 302.651 246.254C306.214 246.427 309.89 245.273 313.015 243.797C306.741 245.042 299.12 246.51 293.623 242.438Z" fill="black"/>
<path d="M293.504 242.356C293.502 242.358 293.501 242.358 293.499 242.359C293.499 242.361 293.499 242.363 293.499 242.363C293.538 242.393 293.583 242.409 293.622 242.438C293.583 242.399 293.53 242.372 293.491 242.333C293.507 242.329 293.515 242.349 293.504 242.356Z" fill="black"/>
<path d="M200.304 194.49C200.93 192.799 201.792 191.158 202.368 189.46C202.109 189.867 201.878 190.555 201.593 191.051C192.724 204.492 194.462 227.697 211.176 234.007C197.622 224.683 194.674 209.453 200.304 194.49Z" fill="black"/>
<path d="M206.763 223.539C206.738 223.472 206.679 223.369 206.668 223.288C206.6 223.318 206.73 223.557 206.788 223.712C210.203 230.579 216.614 236.53 224.5 237.288C217.685 234.476 210.584 230.158 206.763 223.539Z" fill="black"/>
<path d="M188.203 131.291C187.778 134.229 186.957 137.079 186.397 139.987C185.052 145.924 188.043 151.41 190.102 156.751C186.961 146.756 186.166 144.208 189.355 133.847C189.925 131.946 189.583 129.743 190.525 127.989C191.188 127.366 192.263 127.621 193.072 127.8C194.7 128.207 196.464 129.042 197.983 129.684C196.804 128.74 195.595 127.811 194.223 127.169C190.181 125.134 188.533 127.356 188.203 131.291Z" fill="black"/>
<path d="M380.192 119.457C380.305 118.915 380.381 118.377 380.411 117.841C380.402 118.381 380.26 118.917 380.192 119.457Z" fill="black"/>
<path d="M362.911 141.478C370.218 137.028 379.054 128.408 380.192 119.457C378.516 127.443 368.255 135.883 362.911 141.478Z" fill="black"/>
<path d="M341.559 187.021C338.261 188.379 334.772 189.145 331.226 189.833C319.731 192.45 307.92 190.609 296.387 189.36C301.933 191.77 308.265 192.453 314.327 192.691C325.623 193.133 339.533 191.131 348.05 183.137C348.18 183.017 348.307 182.89 348.446 182.786C348.458 182.779 348.443 182.759 348.431 182.767C346.297 184.423 344.101 186.008 341.559 187.021Z" fill="black"/>
<path d="M340.64 182.091C335.967 184.082 330.774 184.52 325.792 185.25C326.358 185.365 327.111 185.344 327.744 185.369C332.143 185.257 336.828 184.163 340.64 182.091Z" fill="black"/>
<path d="M296.842 117.416C302.275 113.468 308.208 110.193 313.672 106.277C302.366 110.2 293.331 118.531 284.729 126.613C288.761 123.681 292.779 120.411 296.842 117.416Z" fill="black"/>
<path d="M123.205 254.414C119.609 269.243 112.156 283.285 101.355 294.118C112.453 284.221 121.993 268.421 123.463 253.389C123.332 253.641 123.312 254.081 123.205 254.414Z" fill="black"/>
<path d="M112.596 261.859C115.428 257.531 118.118 253.101 120.121 248.321C114.933 256.77 109.766 265.529 104.85 274.21C107.699 270.386 110.02 265.951 112.596 261.859Z" fill="black"/>
<path d="M112.099 249.412C112.703 248.527 113.431 247.571 113.936 246.708C103.658 257.83 93.3449 269.277 86.2131 282.742C90.8533 275.279 96.2002 268.006 101.984 261.281C105.325 257.299 109.098 253.67 112.099 249.412Z" fill="black"/>
<path d="M106.341 245.132C96.5165 251.237 86.614 258.105 78.8191 266.827C82.0901 263.85 85.4096 260.574 89.0331 257.884C94.8089 253.637 100.886 249.811 106.341 245.132Z" fill="black"/>
<path d="M144.873 242.31C145.164 242.504 145.483 242.71 145.77 242.931C153.64 249.425 162.102 256.121 172.372 258.117C162.645 254.91 153.979 249.034 145.833 242.846C145.528 242.667 145.148 242.389 144.873 242.31Z" fill="black"/>
<path d="M145.127 236.876C150.101 238.446 154.959 240.464 159.89 242.191C155.332 239.902 150.116 237.872 145.127 236.876Z" fill="black"/>
<path d="M102.555 232.616C101.974 232.445 101.179 232.397 100.519 232.266C89.5075 230.732 74.3696 232.051 64.6653 237.684C76.306 231.952 89.8274 232.451 102.555 232.616Z" fill="black"/>
<path d="M82.5767 225.561C88.305 225.946 94.2835 226.816 100.069 227.675C94.5048 226.04 88.3747 225.427 82.5767 225.561Z" fill="black"/>
<path d="M99.3226 235.283C93.1404 235.749 86.7332 237.575 81.2783 240.671C86.8848 237.972 93.2827 236.888 99.3226 235.283Z" fill="black"/>
<path d="M84.9866 199.054C92.9963 202.836 100.823 207.086 107.729 212.684C101.364 206.664 93.2465 201.963 84.9866 199.054Z" fill="black"/>
<path d="M133.2 289.718C134.113 281.809 133.555 273.472 132.275 265.593C133.014 273.518 133.097 281.664 133.2 289.718Z" fill="black"/>
<path d="M127.678 212.73C127.681 212.748 127.707 212.765 127.708 212.746C127.711 212.742 127.71 212.735 127.707 212.731C127.652 212.51 127.656 212.241 127.643 211.999C127.647 211.999 127.647 212.002 127.647 212.002C127.626 204.916 130.68 198.204 134.441 192.322C129.453 197.574 126.853 205.476 127.678 212.73Z" fill="black"/>
<path d="M157.226 206.553C149.481 207.693 142.757 212.612 138.651 219.178C138.647 219.19 138.671 219.195 138.674 219.181C142.606 213.674 148.606 209.901 154.911 207.523C155.658 207.191 156.565 206.905 157.226 206.553Z" fill="black"/>
<path d="M147.188 195.573C141.599 198.451 136.852 203.961 134.894 210.019C134.903 210.044 134.938 210.028 134.921 210.01C137.334 204.121 142.098 199.324 147.188 195.573Z" fill="black"/>
</svg>
