<svg width="25" height="29" viewBox="0 0 25 29" fill="none" xmlns="http://www.w3.org/2000/svg">
<path d="M23.6781 22.516C23.2743 23.4574 22.7754 24.355 22.1892 25.195C21.406 26.3135 20.7629 27.0865 20.27 27.5167C19.5044 28.2196 18.6819 28.5812 17.8025 28.6017C17.1725 28.6017 16.4113 28.4223 15.5246 28.0577C14.635 27.6946 13.8183 27.5167 13.0702 27.5167C12.2871 27.5167 11.4471 27.6946 10.5473 28.0577C9.64896 28.4223 8.92271 28.6133 8.36709 28.6308C7.52563 28.6673 6.68417 28.2969 5.84563 27.5167C5.31042 27.05 4.64104 26.2479 3.8375 25.1133C2.97709 23.9044 2.26979 22.4971 1.71563 20.8973C1.12209 19.1662 0.824585 17.4921 0.824585 15.8704C0.824585 14.014 1.22563 12.4112 2.02917 11.0696C2.63693 10.0159 3.5058 9.13647 4.55209 8.51604C5.58381 7.89722 6.76159 7.56402 7.96459 7.55062C8.63542 7.55062 9.51479 7.75771 10.6042 8.16604C11.6935 8.57437 12.3935 8.78146 12.6983 8.78146C12.9288 8.78146 13.7031 8.53792 15.0215 8.05521C16.2654 7.6075 17.3154 7.42229 18.1758 7.49521C20.5092 7.68333 22.2606 8.60208 23.4258 10.2587C21.3404 11.5231 20.3094 13.2921 20.3298 15.5627C20.3473 17.3317 20.9904 18.8031 22.2504 19.9713C22.8075 20.5043 23.4574 20.9309 24.1681 21.2298C24.0135 21.6775 23.8502 22.1048 23.6781 22.516V22.516ZM18.3304 1.47083C18.3304 2.85625 17.8229 4.15125 16.8152 5.34854C15.596 6.77187 14.1231 7.59583 12.5263 7.46604C12.5054 7.29183 12.4951 7.1165 12.4956 6.94104C12.4956 5.60958 13.0731 4.18625 14.1042 3.02104C14.6175 2.43187 15.2708 1.94042 16.0627 1.54958C16.8531 1.16458 17.5998 0.951665 18.3027 0.915207C18.3217 1.10187 18.3304 1.28708 18.3304 1.47083V1.47083Z" fill="black"/>
</svg>
