<svg width="31" height="31" viewBox="0 0 31 31" fill="none" xmlns="http://www.w3.org/2000/svg">
<path d="M29.7996 12.6439H28.625V12.5833H15.5V18.4167H23.7417C22.5393 21.8124 19.3084 24.25 15.5 24.25C10.6678 24.25 6.74996 20.3322 6.74996 15.5C6.74996 10.6678 10.6678 6.75 15.5 6.75C17.7305 6.75 19.7598 7.59145 21.3049 8.96593L25.4298 4.84104C22.8252 2.41364 19.3412 0.916664 15.5 0.916664C7.44631 0.916664 0.916626 7.44635 0.916626 15.5C0.916626 23.5536 7.44631 30.0833 15.5 30.0833C23.5536 30.0833 30.0833 23.5536 30.0833 15.5C30.0833 14.5222 29.9827 13.5677 29.7996 12.6439Z" fill="#FFC107"/>
<path d="M2.59814 8.71219L7.3895 12.226C8.68596 9.01625 11.8257 6.75 15.5 6.75C17.7305 6.75 19.7598 7.59146 21.3049 8.96593L25.4298 4.84104C22.8252 2.41364 19.3413 0.916664 15.5 0.916664C9.89856 0.916664 5.04085 4.07906 2.59814 8.71219Z" fill="#FF3D00"/>
<path d="M15.5 30.0833C19.2669 30.0833 22.6896 28.6418 25.2774 26.2975L20.7639 22.4781C19.2505 23.629 17.4013 24.2515 15.5 24.25C11.7069 24.25 8.48617 21.8314 7.27284 18.456L2.51721 22.1201C4.93075 26.8429 9.83221 30.0833 15.5 30.0833Z" fill="#4CAF50"/>
<path d="M29.7997 12.6439H28.625V12.5833H15.5V18.4167H23.7418C23.1666 20.0328 22.1306 21.445 20.7617 22.4789L20.7639 22.4774L25.2774 26.2968C24.958 26.587 30.0833 22.7917 30.0833 15.5C30.0833 14.5222 29.9827 13.5677 29.7997 12.6439Z" fill="#1976D2"/>
</svg>
