<svg width="38" height="31" viewBox="0 0 38 31" fill="none" xmlns="http://www.w3.org/2000/svg">
<path d="M32.0593 6.30593H31.0193L31.0176 0.929606C31.0176 0.451903 30.628 0.0623169 30.1503 0.0623169H9.11851C8.64081 0.0623169 8.25122 0.45192 8.25122 0.929606V6.30593H6.12706C3.17793 6.30593 0.750732 8.73504 0.750732 11.6823V19.9657C0.750732 22.9149 3.17984 25.3421 6.12706 25.3421H8.25122V29.6785C8.25122 30.1562 8.64083 30.5458 9.11851 30.5458H30.1503C30.628 30.5458 31.0176 30.1562 31.0176 29.6785V25.3421H32.0576C35.0067 25.3421 37.4339 22.913 37.4339 19.9657L37.4356 11.6823C37.4356 8.73482 35.0065 6.30593 32.0593 6.30593ZM9.98594 1.7969H29.2831V6.26387L9.98594 6.26218V1.7969ZM29.2831 28.7692H9.98594V21.4414H29.2831V28.7692ZM35.6573 19.9219C35.6573 21.9174 34.0091 23.5639 32.0153 23.5639H30.9753V21.3956L32.8826 21.3973C33.3603 21.3973 33.7499 21.0077 33.7499 20.53C33.7499 20.0523 33.3603 19.6628 32.8826 19.6628H6.21349C5.73578 19.6628 5.3462 20.0524 5.3462 20.53C5.3462 21.0077 5.7358 21.3973 6.21349 21.3973H8.25127V23.5656H6.1271C4.13165 23.5656 2.48518 21.9174 2.48518 19.9236L2.48349 11.6827C2.48349 9.68719 4.13169 8.04073 6.12541 8.04073H32.0578C34.0532 8.04073 35.6997 9.68893 35.6997 11.6827L35.7014 19.9219L35.6573 19.9219Z" fill="white"/>
<path d="M30.7693 6.30601L30.7693 6.55593H31.0193H32.0593C34.8685 6.55593 37.1856 8.8729 37.1856 11.6822L37.1839 19.9657C37.1839 22.7749 34.8686 25.0921 32.0576 25.0921H31.0176H30.7676V25.3421V29.6785C30.7676 30.0181 30.4899 30.2958 30.1503 30.2958H9.11851C8.77889 30.2958 8.50122 30.0181 8.50122 29.6785V25.3421V25.0921H8.25122H6.12706C3.31785 25.0921 1.00073 22.7767 1.00073 19.9657V11.6823C1.00073 8.87305 3.31606 6.55593 6.12706 6.55593H8.25122H8.50122V6.30593V0.929606C8.50122 0.589988 8.77888 0.312317 9.11851 0.312317H30.1503C30.4899 0.312317 30.7676 0.589977 30.7676 0.929606V0.929685L30.7693 6.30601ZM9.98594 1.5469H9.73594V1.7969V6.26218V6.51215L9.98591 6.51218L29.2831 6.51387L29.5331 6.51389V6.26387V1.7969V1.5469H29.2831H9.98594ZM29.2831 29.0192H29.5331V28.7692V21.4414V21.1914H29.2831H9.98594H9.73594V21.4414V28.7692V29.0192H9.98594H29.2831ZM35.8992 20.1717L35.9515 20.1717L35.9514 19.9218L35.9497 11.6827C35.9497 9.55093 34.1914 7.79073 32.0578 7.79073H6.12541C3.99369 7.79073 2.23349 9.54904 2.23349 11.6827V11.6827L2.23518 19.9236C2.23518 19.9237 2.23518 19.9237 2.23518 19.9237C2.23521 22.0554 3.99351 23.8156 6.1271 23.8156H8.25127H8.50127V23.5656V21.3973V21.1473H8.25127H6.21349C5.87387 21.1473 5.5962 20.8697 5.5962 20.53C5.5962 20.1904 5.87386 19.9128 6.21349 19.9128H32.8826C33.2222 19.9128 33.4999 20.1904 33.4999 20.53C33.4999 20.8696 33.2224 21.1472 32.8829 21.1473C32.8828 21.1473 32.8828 21.1473 32.8828 21.1473C32.8828 21.1473 32.8827 21.1473 32.8826 21.1473L30.9755 21.1456L30.7253 21.1454V21.3956V23.5639V23.8139H30.9753H32.0153C34.0633 23.8139 35.7683 22.1911 35.8992 20.1717Z" stroke="#A78BFA" stroke-opacity="0.5" stroke-width="0.5"/>
</svg>
