<svg width="16" height="16" viewBox="0 0 16 16" fill="none" xmlns="http://www.w3.org/2000/svg">
<path d="M3.07146 1.60733C2.77309 1.60733 2.48695 1.73245 2.27597 1.95515C2.06499 2.17785 1.94646 2.47989 1.94646 2.79483V13.3127C1.94647 13.5982 2.04396 13.8742 2.22105 14.0901C2.39815 14.3059 2.64301 14.4472 2.91075 14.488V9.58055C2.91075 9.17562 3.06314 8.78728 3.3344 8.50095C3.60566 8.21462 3.97356 8.05376 4.35718 8.05376H11.75C12.1337 8.05376 12.5016 8.21462 12.7728 8.50095C13.0441 8.78728 13.1965 9.17562 13.1965 9.58055V14.488C13.4642 14.4472 13.7091 14.3059 13.8862 14.0901C14.0633 13.8742 14.1607 13.5982 14.1607 13.3127V4.51569C14.1607 4.20016 14.0425 3.89819 13.831 3.67562L12.2013 1.95544C12.0968 1.84507 11.9728 1.75752 11.8362 1.69779C11.6997 1.63806 11.5533 1.60732 11.4055 1.60733H11.2679V4.49126C11.2679 4.69176 11.2305 4.8903 11.1578 5.07554C11.0851 5.26078 10.9786 5.42909 10.8442 5.57086C10.7099 5.71264 10.5505 5.8251 10.375 5.90183C10.1995 5.97856 10.0114 6.01805 9.82146 6.01805H5.64289C5.25928 6.01805 4.89137 5.85719 4.62011 5.57086C4.34885 5.28454 4.19646 4.89619 4.19646 4.49126V1.60733H3.07146ZM5.16075 1.60733V4.49126C5.16075 4.77219 5.37675 5.00019 5.64289 5.00019H9.82146C9.94934 5.00019 10.072 4.94657 10.1624 4.85113C10.2528 4.75569 10.3036 4.62624 10.3036 4.49126V1.60733H5.16075ZM12.2322 14.5002V9.58055C12.2322 9.44557 12.1814 9.31613 12.091 9.22068C12.0005 9.12524 11.8779 9.07162 11.75 9.07162H4.35718C4.22931 9.07162 4.10667 9.12524 4.01625 9.22068C3.92583 9.31613 3.87503 9.44557 3.87503 9.58055V14.5002H12.2322ZM0.982178 2.79483C0.982178 2.20994 1.2023 1.649 1.59412 1.23541C1.98593 0.821827 2.51735 0.589478 3.07146 0.589478H11.4061C11.9602 0.589512 12.4916 0.821885 12.8834 1.23548L14.513 2.95566C14.9052 3.36958 15.125 3.93076 15.125 4.51569V13.3127C15.125 13.8976 14.9049 14.4585 14.5131 14.8721C14.1213 15.2857 13.5899 15.518 13.0357 15.518H3.07146C2.51735 15.518 1.98593 15.2857 1.59412 14.8721C1.2023 14.4585 0.982178 13.8976 0.982178 13.3127V2.79483Z" fill="black"/>
</svg>
