<svg width="34" height="35" viewBox="0 0 34 35" fill="none" xmlns="http://www.w3.org/2000/svg">
<path d="M31.1948 5.94442L31.2311 5.9993L31.2336 5.99885C33.6728 9.61501 33.8358 14.0841 33.7933 18.0203L33.7933 18.022C33.8202 22.4782 32.8175 26.0817 30.8893 28.7119C28.9623 31.3404 26.1041 33.0067 22.3991 33.5779L22.3975 33.5782L22.3429 33.5875L22.3288 33.5894L22.314 33.5913C20.1806 33.8514 18.2275 33.9834 16.4432 33.9834C11.106 33.9834 7.2799 32.8094 4.59654 30.4128L4.59652 30.4128C1.5718 27.713 0.116041 23.5504 0.165528 17.66L0.165609 17.66L0.165481 17.6559C0.0285703 13.3424 0.701605 9.78658 2.13678 7.06191C3.57073 4.33957 5.76788 2.44204 8.69175 1.44488L8.6927 1.44454C11.496 0.456648 14.488 0.315818 17.0539 0.310309L17.0542 0.310308C21.5306 0.287013 27.836 0.865268 31.1948 5.94442ZM17.0576 1.46396L17.0573 1.46396C14.606 1.46945 11.7341 1.59958 9.08632 2.52928L9.08548 2.52928L9.0694 2.53476C6.36538 3.45704 4.35951 5.19412 3.06426 7.72535C1.7707 10.2533 1.18847 13.5678 1.31741 17.6452C1.29546 20.2735 1.58427 22.5263 2.18766 24.4391L2.2364 24.5937L2.35267 24.4808C6.23463 20.714 11.4779 18.5739 16.9074 18.5739C17.5282 18.5739 18.1358 18.6068 18.7274 18.6604L18.7666 18.6639L18.7977 18.6398C22.0826 16.0923 26.0128 14.7447 30.1864 14.7447C30.9542 14.7447 31.7193 14.7927 32.4721 14.8846L32.5906 14.899L32.584 14.7798C32.4279 11.9352 31.8943 9.01645 30.2377 6.58763C27.9181 3.08133 23.7642 1.46396 17.2188 1.46396L17.0576 1.46396ZM2.70944 25.8048L2.70073 26.064L2.77892 25.9833C3.42395 27.3975 4.28061 28.5844 5.36446 29.5522C6.93104 30.9518 8.95012 31.8873 11.4819 32.3903L11.5948 32.4127L11.6012 32.2978C11.7959 28.814 12.9515 25.4894 14.9655 22.6392C15.6631 21.6524 16.4596 20.742 17.3319 19.9095L17.5066 19.7428L17.2652 19.7372C17.2236 19.7362 17.1807 19.7347 17.137 19.7331C17.062 19.7303 16.9849 19.7275 16.9087 19.7275C11.5776 19.7275 6.44052 21.9165 2.73756 25.7386L2.78895 25.7884L2.70947 25.8038L2.70944 25.8048ZM32.6379 18.0171L32.6375 17.9424L32.6374 17.9423C32.6435 17.3579 32.643 16.7596 32.6324 16.1562L32.6309 16.0704L32.546 16.0588C31.7725 15.9535 30.9809 15.898 30.1865 15.898C26.1857 15.898 22.4216 17.2139 19.3011 19.705C18.0064 20.7379 16.8641 21.9481 15.9063 23.3038C13.9903 26.0157 12.9034 29.1864 12.7454 32.5079L12.741 32.5999L12.8324 32.6118C15.4291 32.9496 18.5118 32.8923 22.1584 32.4479L22.1584 32.4479L22.1623 32.4473L22.2126 32.4392C22.2126 32.4392 22.2127 32.4391 22.2127 32.4391C26.549 31.77 29.1693 29.6214 30.6973 26.9052C32.2224 24.1943 32.6552 20.9259 32.6379 18.0171Z" fill="white" stroke="white" stroke-width="0.2"/>
</svg>
